<svg height="450px" width="100%" class="nvd3-svg" style="height: 450px; width: 100%;"><g class="nvd3 nv-wrap nv-sunburstChart" transform="translate(20,30)"><g><g class="nv-sunburstWrap nvd3-svg"><g class="nvd3 nv-wrap nv-sunburst nv-chart-2515" transform="translate(340.5,200)"><path d="M0,81.6496580927726A81.6496580927726,81.6496580927726 0 1,1 0,-81.6496580927726A81.6496580927726,81.6496580927726 0 1,1 0,81.6496580927726Z" style="fill: rgb(31, 119, 180); stroke: rgb(255, 255, 255); opacity: 1;" class=""></path><path d="M7.070501591499379e-15,-115.47005383792515A115.47005383792515,115.47005383792515 0 0,1 109.81854713951091,-35.68220897730899L77.6534393824027,-25.231131935570687A81.6496580927726,81.6496580927726 0 0,0 4.9995996217394875e-15,-81.6496580927726Z" style="fill: rgb(174, 199, 232); stroke: rgb(255, 255, 255);"></path><path d="M8.659560562354933e-15,-141.4213562373095A141.4213562373095,141.4213562373095 0 0,1 83.12538755549069,-114.41228056353687L67.87159472735028,-93.41723589627156A115.47005383792515,115.47005383792515 0 0,0 7.070501591499379e-15,-115.47005383792515Z" style="fill: rgb(255, 127, 14); stroke: rgb(255, 255, 255);"></path><path d="M9.999199243478975e-15,-163.2993161855452A163.2993161855452,163.2993161855452 0 0,1 50.46226387114138,-155.3068787648054L43.70160244488211,-134.49970239279148A141.4213562373095,141.4213562373095 0 0,0 8.659560562354933e-15,-141.4213562373095Z" style="fill: rgb(255, 187, 120); stroke: rgb(255, 255, 255);"></path><path d="M1.1179444614491728e-14,-182.57418583505535A182.57418583505535,182.57418583505535 0 0,1 56.41852615720191,-173.6383691457117L50.46226387114138,-155.3068787648054A163.2993161855452,163.2993161855452 0 0,0 9.999199243478975e-15,-163.2993161855452Z" style="fill: rgb(44, 160, 44); stroke: rgb(255, 255, 255); opacity: 1;" class=""></path><path d="M1.2246467991473532e-14,-200A200,200 0 0,1 20.905692653530693,-198.90437907365467L19.08419907768132,-181.5740253419986A182.57418583505535,182.57418583505535 0 0,0 1.1179444614491728e-14,-182.57418583505535Z" style="fill: rgb(44, 160, 44); stroke: rgb(255, 255, 255);"></path><path d="M20.905692653530693,-198.90437907365467A200,200 0 0,1 41.58233816355189,-195.6295201467611L37.95930767664218,-178.58450183048734A182.57418583505535,182.57418583505535 0 0,0 19.08419907768132,-181.5740253419986Z" style="fill: rgb(44, 160, 44); stroke: rgb(255, 255, 255); opacity: 1;" class=""></path><path d="M41.58233816355189,-195.6295201467611A200,200 0 0,1 61.80339887498949,-190.2113032590307L56.41852615720191,-173.6383691457117A182.57418583505535,182.57418583505535 0 0,0 37.95930767664218,-178.58450183048734Z" style="fill: rgb(44, 160, 44); stroke: rgb(255, 255, 255);"></path><path d="M50.46226387114138,-155.3068787648054A163.2993161855452,163.2993161855452 0 0,1 66.41981568188234,-149.18134853744766L57.52124769519015,-129.1948376042502A141.4213562373095,141.4213562373095 0 0,0 43.70160244488211,-134.49970239279148Z" style="fill: rgb(255, 127, 14); stroke: rgb(255, 255, 255);"></path><path d="M66.41981568188234,-149.18134853744766A163.2993161855452,163.2993161855452 0 0,1 81.64965809277258,-141.4213562373095L70.71067811865474,-122.47448713915892A141.4213562373095,141.4213562373095 0 0,0 57.52124769519015,-129.1948376042502Z" style="fill: rgb(255, 127, 14); stroke: rgb(255, 255, 255);"></path><path d="M81.64965809277258,-141.4213562373095A163.2993161855452,163.2993161855452 0 0,1 95.98492976330903,-132.11192196391397L83.12538755549069,-114.41228056353687A141.4213562373095,141.4213562373095 0 0,0 70.71067811865474,-122.47448713915892Z" style="fill: rgb(255, 127, 14); stroke: rgb(255, 255, 255);"></path><path d="M83.12538755549069,-114.41228056353687A141.4213562373095,141.4213562373095 0 0,1 129.1948376042502,-57.52124769519014L105.4871431773831,-46.96590207381959A115.47005383792515,115.47005383792515 0 0,0 67.87159472735028,-93.41723589627156Z" style="fill: rgb(152, 223, 138); stroke: rgb(255, 255, 255);"></path><path d="M95.98492976330903,-132.11192196391397A163.2993161855452,163.2993161855452 0 0,1 109.26857045722078,-121.35504182728481L94.62935785116301,-105.09654909975177A141.4213562373095,141.4213562373095 0 0,0 83.12538755549069,-114.41228056353687Z" style="fill: rgb(152, 223, 138); stroke: rgb(255, 255, 255);"></path><path d="M109.26857045722078,-121.35504182728481A163.2993161855452,163.2993161855452 0 0,1 121.35504182728481,-109.26857045722078L105.09654909975177,-94.62935785116301A141.4213562373095,141.4213562373095 0 0,0 94.62935785116301,-105.09654909975177Z" style="fill: rgb(152, 223, 138); stroke: rgb(255, 255, 255);"></path><path d="M121.35504182728481,-109.26857045722078A163.2993161855452,163.2993161855452 0 0,1 132.11192196391397,-95.98492976330903L114.41228056353687,-83.12538755549069A141.4213562373095,141.4213562373095 0 0,0 105.09654909975177,-94.62935785116301Z" style="fill: rgb(152, 223, 138); stroke: rgb(255, 255, 255);"></path><path d="M132.11192196391397,-95.98492976330903A163.2993161855452,163.2993161855452 0 0,1 141.42135623730948,-81.6496580927726L122.4744871391589,-70.71067811865476A141.4213562373095,141.4213562373095 0 0,0 114.41228056353687,-83.12538755549069Z" style="fill: rgb(152, 223, 138); stroke: rgb(255, 255, 255);"></path><path d="M141.42135623730948,-81.6496580927726A163.2993161855452,163.2993161855452 0 0,1 149.18134853744766,-66.41981568188235L129.1948376042502,-57.52124769519016A141.4213562373095,141.4213562373095 0 0,0 122.4744871391589,-70.71067811865476Z" style="fill: rgb(152, 223, 138); stroke: rgb(255, 255, 255);"></path><path d="M129.1948376042502,-57.52124769519014A141.4213562373095,141.4213562373095 0 0,1 134.49970239279148,-43.701602444882106L109.81854713951091,-35.68220897730899A115.47005383792515,115.47005383792515 0 0,0 105.4871431773831,-46.96590207381959Z" style="fill: rgb(214, 39, 40); stroke: rgb(255, 255, 255);"></path><path d="M149.1813485374477,-66.41981568188233A163.2993161855452,163.2993161855452 0 0,1 155.3068787648054,-50.462263871141374L134.49970239279148,-43.701602444882106A141.4213562373095,141.4213562373095 0 0,0 129.1948376042502,-57.52124769519014Z" style="fill: rgb(214, 39, 40); stroke: rgb(255, 255, 255);"></path><path d="M109.81854713951091,-35.68220897730899A115.47005383792515,115.47005383792515 0 0,1 67.87159472735028,93.41723589627156L47.99246488165451,66.05596098195699A81.6496580927726,81.6496580927726 0 0,0 77.6534393824027,-25.231131935570687Z" style="fill: rgb(255, 152, 150); stroke: rgb(255, 255, 255); opacity: 1;" class=""></path><path d="M134.49970239279148,-43.701602444882106A141.4213562373095,141.4213562373095 0 0,1 134.49970239279148,43.701602444882134L109.81854713951091,35.68220897730902A115.47005383792515,115.47005383792515 0 0,0 109.81854713951091,-35.68220897730899Z" style="fill: rgb(255, 127, 14); stroke: rgb(255, 255, 255);"></path><path d="M155.3068787648054,-50.462263871141374A163.2993161855452,163.2993161855452 0 0,1 163.2993161855452,0L141.4213562373095,0A141.4213562373095,141.4213562373095 0 0,0 134.49970239279148,-43.701602444882106Z" style="fill: rgb(255, 187, 120); stroke: rgb(255, 255, 255);"></path><path d="M173.6383691457117,-56.418526157201896A182.57418583505535,182.57418583505535 0 0,1 182.57418583505535,0L163.2993161855452,0A163.2993161855452,163.2993161855452 0 0,0 155.3068787648054,-50.462263871141374Z" style="fill: rgb(44, 160, 44); stroke: rgb(255, 255, 255);"></path><path d="M190.2113032590307,-61.803398874989476A200,200 0 0,1 195.62952014676114,-41.58233816355184L178.58450183048737,-37.95930767664213A182.57418583505535,182.57418583505535 0 0,0 173.6383691457117,-56.418526157201896Z" style="fill: rgb(44, 160, 44); stroke: rgb(255, 255, 255);"></path><path d="M195.62952014676114,-41.58233816355184A200,200 0 0,1 198.90437907365467,-20.90569265353068L181.5740253419986,-19.084199077681305A182.57418583505535,182.57418583505535 0 0,0 178.58450183048737,-37.95930767664213Z" style="fill: rgb(44, 160, 44); stroke: rgb(255, 255, 255);"></path><path d="M198.90437907365467,-20.90569265353068A200,200 0 0,1 200,0L182.57418583505535,0A182.57418583505535,182.57418583505535 0 0,0 181.5740253419986,-19.084199077681305Z" style="fill: rgb(44, 160, 44); stroke: rgb(255, 255, 255);"></path><path d="M163.2993161855452,0A163.2993161855452,163.2993161855452 0 0,1 162.40474544519137,17.069426573533676L140.64663525068084,14.782557040713332A141.4213562373095,141.4213562373095 0 0,0 141.4213562373095,0Z" style="fill: rgb(255, 127, 14); stroke: rgb(255, 255, 255);"></path><path d="M162.40474544519137,17.069426573533676A163.2993161855452,163.2993161855452 0 0,1 159.73083432836216,33.95183693752057L138.33096029604513,29.403153293039672A141.4213562373095,141.4213562373095 0 0,0 140.64663525068084,14.782557040713332Z" style="fill: rgb(255, 127, 14); stroke: rgb(255, 255, 255);"></path><path d="M159.73083432836216,33.95183693752057A163.2993161855452,163.2993161855452 0 0,1 155.3068787648054,50.462263871141374L134.49970239279148,43.701602444882106A141.4213562373095,141.4213562373095 0 0,0 138.33096029604513,29.403153293039672Z" style="fill: rgb(255, 127, 14); stroke: rgb(255, 255, 255);"></path><path d="M134.49970239279148,43.701602444882134A141.4213562373095,141.4213562373095 0 0,1 94.62935785116298,105.0965490997518L77.26454714086084,85.81097300725021A115.47005383792515,115.47005383792515 0 0,0 109.81854713951091,35.68220897730902Z" style="fill: rgb(152, 223, 138); stroke: rgb(255, 255, 255); opacity: 1;" class=""></path><path d="M155.3068787648054,50.46226387114141A163.2993161855452,163.2993161855452 0 0,1 149.18134853744766,66.41981568188235L129.1948376042502,57.52124769519016A141.4213562373095,141.4213562373095 0 0,0 134.49970239279148,43.701602444882134Z" style="fill: rgb(152, 223, 138); stroke: rgb(255, 255, 255);"></path><path d="M149.18134853744766,66.41981568188235A163.2993161855452,163.2993161855452 0 0,1 141.42135623730948,81.64965809277264L122.47448713915888,70.71067811865478A141.4213562373095,141.4213562373095 0 0,0 129.1948376042502,57.52124769519016Z" style="fill: rgb(152, 223, 138); stroke: rgb(255, 255, 255);"></path><path d="M141.42135623730948,81.64965809277264A163.2993161855452,163.2993161855452 0 0,1 132.11192196391397,95.98492976330903L114.41228056353687,83.12538755549069A141.4213562373095,141.4213562373095 0 0,0 122.47448713915888,70.71067811865478Z" style="fill: rgb(152, 223, 138); stroke: rgb(255, 255, 255);"></path><path d="M132.11192196391397,95.98492976330903A163.2993161855452,163.2993161855452 0 0,1 121.3550418272848,109.26857045722078L105.09654909975175,94.62935785116301A141.4213562373095,141.4213562373095 0 0,0 114.41228056353687,83.12538755549069Z" style="fill: rgb(152, 223, 138); stroke: rgb(255, 255, 255);"></path><path d="M121.3550418272848,109.26857045722078A163.2993161855452,163.2993161855452 0 0,1 109.26857045722073,121.35504182728482L94.62935785116298,105.0965490997518A141.4213562373095,141.4213562373095 0 0,0 105.09654909975175,94.62935785116301Z" style="fill: rgb(152, 223, 138); stroke: rgb(255, 255, 255);"></path><path d="M94.62935785116298,105.0965490997518A141.4213562373095,141.4213562373095 0 0,1 83.12538755549069,114.41228056353687L67.87159472735028,93.41723589627156A115.47005383792515,115.47005383792515 0 0,0 77.26454714086084,85.81097300725021Z" style="fill: rgb(214, 39, 40); stroke: rgb(255, 255, 255);"></path><path d="M109.26857045722073,121.35504182728482A163.2993161855452,163.2993161855452 0 0,1 95.98492976330903,132.11192196391397L83.12538755549069,114.41228056353687A141.4213562373095,141.4213562373095 0 0,0 94.62935785116298,105.0965490997518Z" style="fill: rgb(214, 39, 40); stroke: rgb(255, 255, 255); opacity: 1;" class=""></path><path d="M67.87159472735028,93.41723589627156A115.47005383792515,115.47005383792515 0 0,1 -67.87159472735031,93.41723589627155L-47.99246488165453,66.05596098195697A81.6496580927726,81.6496580927726 0 0,0 47.99246488165451,66.05596098195699Z" style="fill: rgb(148, 103, 189); stroke: rgb(255, 255, 255);"></path><path d="M83.12538755549069,114.41228056353687A141.4213562373095,141.4213562373095 0 0,1 8.659560562354933e-15,141.4213562373095L7.070501591499379e-15,115.47005383792515A115.47005383792515,115.47005383792515 0 0,0 67.87159472735028,93.41723589627156Z" style="fill: rgb(255, 127, 14); stroke: rgb(255, 255, 255);"></path><path d="M95.98492976330903,132.11192196391397A163.2993161855452,163.2993161855452 0 0,1 50.46226387114138,155.3068787648054L43.70160244488211,134.49970239279148A141.4213562373095,141.4213562373095 0 0,0 83.12538755549069,114.41228056353687Z" style="fill: rgb(255, 187, 120); stroke: rgb(255, 255, 255);"></path><path d="M107.31441388315088,147.70561907472958A182.57418583505535,182.57418583505535 0 0,1 56.41852615720191,173.6383691457117L50.46226387114138,155.3068787648054A163.2993161855452,163.2993161855452 0 0,0 95.98492976330903,132.11192196391397Z" style="fill: rgb(44, 160, 44); stroke: rgb(255, 255, 255);"></path><path d="M117.55705045849463,161.80339887498948A200,200 0 0,1 99.99999999999997,173.20508075688775L91.28709291752766,158.11388300841895A182.57418583505535,182.57418583505535 0 0,0 107.31441388315088,147.70561907472958Z" style="fill: rgb(44, 160, 44); stroke: rgb(255, 255, 255);"></path><path d="M99.99999999999997,173.20508075688775A200,200 0 0,1 81.34732861516,182.7090915285202L74.25961145884769,166.7898181524109A182.57418583505535,182.57418583505535 0 0,0 91.28709291752766,158.11388300841895Z" style="fill: rgb(44, 160, 44); stroke: rgb(255, 255, 255);"></path><path d="M81.34732861516,182.7090915285202A200,200 0 0,1 61.80339887498949,190.2113032590307L56.41852615720191,173.6383691457117A182.57418583505535,182.57418583505535 0 0,0 74.25961145884769,166.7898181524109Z" style="fill: rgb(44, 160, 44); stroke: rgb(255, 255, 255);"></path><path d="M50.46226387114138,155.3068787648054A163.2993161855452,163.2993161855452 0 0,1 33.951836937520575,159.73083432836216L29.40315329303968,138.33096029604513A141.4213562373095,141.4213562373095 0 0,0 43.70160244488211,134.49970239279148Z" style="fill: rgb(255, 127, 14); stroke: rgb(255, 255, 255);"></path><path d="M33.951836937520575,159.73083432836216A163.2993161855452,163.2993161855452 0 0,1 17.069426573533725,162.40474544519137L14.782557040713373,140.64663525068084A141.4213562373095,141.4213562373095 0 0,0 29.40315329303968,138.33096029604513Z" style="fill: rgb(255, 127, 14); stroke: rgb(255, 255, 255);"></path><path d="M17.069426573533725,162.40474544519137A163.2993161855452,163.2993161855452 0 0,1 9.999199243478975e-15,163.2993161855452L8.659560562354933e-15,141.4213562373095A141.4213562373095,141.4213562373095 0 0,0 14.782557040713373,140.64663525068084Z" style="fill: rgb(255, 127, 14); stroke: rgb(255, 255, 255);"></path><path d="M8.659560562354933e-15,141.4213562373095A141.4213562373095,141.4213562373095 0 0,1 -70.71067811865478,122.4744871391589L-57.7350269189626,99.99999999999999A115.47005383792515,115.47005383792515 0 0,0 7.070501591499379e-15,115.47005383792515Z" style="fill: rgb(152, 223, 138); stroke: rgb(255, 255, 255);"></path><path d="M9.999199243478975e-15,163.2993161855452A163.2993161855452,163.2993161855452 0 0,1 -17.069426573533704,162.40474544519137L-14.782557040713355,140.64663525068084A141.4213562373095,141.4213562373095 0 0,0 8.659560562354933e-15,141.4213562373095Z" style="fill: rgb(152, 223, 138); stroke: rgb(255, 255, 255);"></path><path d="M-17.069426573533704,162.40474544519137A163.2993161855452,163.2993161855452 0 0,1 -33.9518369375207,159.7308343283621L-29.403153293039786,138.3309602960451A141.4213562373095,141.4213562373095 0 0,0 -14.782557040713355,140.64663525068084Z" style="fill: rgb(152, 223, 138); stroke: rgb(255, 255, 255);"></path><path d="M-33.9518369375207,159.7308343283621A163.2993161855452,163.2993161855452 0 0,1 -50.4622638711415,155.30687876480536L-43.70160244488221,134.49970239279142A141.4213562373095,141.4213562373095 0 0,0 -29.403153293039786,138.3309602960451Z" style="fill: rgb(152, 223, 138); stroke: rgb(255, 255, 255);"></path><path d="M-50.4622638711415,155.30687876480536A163.2993161855452,163.2993161855452 0 0,1 -66.41981568188255,149.18134853744758L-57.52124769519033,129.19483760425013A141.4213562373095,141.4213562373095 0 0,0 -43.70160244488221,134.49970239279142Z" style="fill: rgb(152, 223, 138); stroke: rgb(255, 255, 255);"></path><path d="M-66.41981568188255,149.18134853744758A163.2993161855452,163.2993161855452 0 0,1 -81.64965809277281,141.42135623730937L-70.71067811865494,122.47448713915881A141.4213562373095,141.4213562373095 0 0,0 -57.52124769519033,129.19483760425013Z" style="fill: rgb(152, 223, 138); stroke: rgb(255, 255, 255);"></path><path d="M-70.71067811865478,122.4744871391589A141.4213562373095,141.4213562373095 0 0,1 -83.12538755549072,114.41228056353684L-67.87159472735031,93.41723589627155A115.47005383792515,115.47005383792515 0 0,0 -57.7350269189626,99.99999999999999Z" style="fill: rgb(214, 39, 40); stroke: rgb(255, 255, 255);"></path><path d="M-81.64965809277264,141.42135623730948A163.2993161855452,163.2993161855452 0 0,1 -95.98492976330905,132.11192196391394L-83.12538755549072,114.41228056353684A141.4213562373095,141.4213562373095 0 0,0 -70.71067811865478,122.4744871391589Z" style="fill: rgb(214, 39, 40); stroke: rgb(255, 255, 255);"></path><path d="M-67.87159472735031,93.41723589627155A115.47005383792515,115.47005383792515 0 0,1 -109.81854713951093,-35.682208977308974L-77.65343938240271,-25.23113193557068A81.6496580927726,81.6496580927726 0 0,0 -47.99246488165453,66.05596098195697Z" style="fill: rgb(197, 176, 213); stroke: rgb(255, 255, 255); opacity: 1;" class=""></path><path d="M-83.12538755549072,114.41228056353684A141.4213562373095,141.4213562373095 0 0,1 -134.49970239279148,43.70160244488212L-109.81854713951091,35.682208977309A115.47005383792515,115.47005383792515 0 0,0 -67.87159472735031,93.41723589627155Z" style="fill: rgb(255, 127, 14); stroke: rgb(255, 255, 255); opacity: 1;" class=""></path><path d="M-95.98492976330905,132.11192196391394A163.2993161855452,163.2993161855452 0 0,1 -132.11192196391406,95.98492976330891L-114.41228056353692,83.12538755549059A141.4213562373095,141.4213562373095 0 0,0 -83.12538755549072,114.41228056353684Z" style="fill: rgb(255, 187, 120); stroke: rgb(255, 255, 255); opacity: 1;" class=""></path><path d="M-107.31441388315092,147.70561907472955A182.57418583505535,182.57418583505535 0 0,1 -147.70561907472967,107.31441388315076L-132.11192196391406,95.98492976330891A163.2993161855452,163.2993161855452 0 0,0 -95.98492976330905,132.11192196391394Z" style="fill: rgb(44, 160, 44); stroke: rgb(255, 255, 255); opacity: 1;" class=""></path><path d="M-117.55705045849467,161.80339887498945A200,200 0 0,1 -133.82612127177177,148.62896509547872L-122.16597567328557,135.67906146906944A182.57418583505535,182.57418583505535 0 0,0 -107.31441388315092,147.70561907472955Z" style="fill: rgb(44, 160, 44); stroke: rgb(255, 255, 255);"></path><path d="M-133.82612127177177,148.62896509547872A200,200 0 0,1 -148.62896509547897,133.82612127177146L-135.67906146906967,122.16597567328529A182.57418583505535,182.57418583505535 0 0,0 -122.16597567328557,135.67906146906944Z" style="fill: rgb(44, 160, 44); stroke: rgb(255, 255, 255); opacity: 1;" class=""></path><path d="M-148.62896509547897,133.82612127177146A200,200 0 0,1 -161.80339887498968,117.55705045849436L-147.70561907472975,107.31441388315064A182.57418583505535,182.57418583505535 0 0,0 -135.67906146906967,122.16597567328529Z" style="fill: rgb(44, 160, 44); stroke: rgb(255, 255, 255); opacity: 1;" class=""></path><path d="M-132.11192196391406,95.98492976330891A163.2993161855452,163.2993161855452 0 0,1 -141.42135623730962,81.6496580927724L-122.47448713915901,70.71067811865458A141.4213562373095,141.4213562373095 0 0,0 -114.41228056353692,83.12538755549059Z" style="fill: rgb(255, 127, 14); stroke: rgb(255, 255, 255);"></path><path d="M-141.42135623730962,81.6496580927724A163.2993161855452,163.2993161855452 0 0,1 -149.18134853744775,66.41981568188217L-129.19483760425027,57.521247695190006A141.4213562373095,141.4213562373095 0 0,0 -122.47448713915901,70.71067811865458Z" style="fill: rgb(255, 127, 14); stroke: rgb(255, 255, 255);"></path><path d="M-149.18134853744775,66.41981568188217A163.2993161855452,163.2993161855452 0 0,1 -155.30687876480548,50.46226387114112L-134.49970239279153,43.701602444881885A141.4213562373095,141.4213562373095 0 0,0 -129.19483760425027,57.521247695190006Z" style="fill: rgb(255, 127, 14); stroke: rgb(255, 255, 255);"></path><path d="M-134.49970239279148,43.70160244488212A141.4213562373095,141.4213562373095 0 0,1 -138.3309602960451,-29.403153293039722L-112.94675611816984,-24.00757413226074A115.47005383792515,115.47005383792515 0 0,0 -109.81854713951091,35.682208977309Z" style="fill: rgb(152, 223, 138); stroke: rgb(255, 255, 255);"></path><path d="M-155.3068787648054,50.462263871141396A163.2993161855452,163.2993161855452 0 0,1 -159.73083432836216,33.95183693752052L-138.33096029604513,29.40315329303963A141.4213562373095,141.4213562373095 0 0,0 -134.49970239279148,43.70160244488212Z" style="fill: rgb(152, 223, 138); stroke: rgb(255, 255, 255);"></path><path d="M-159.73083432836216,33.95183693752052A163.2993161855452,163.2993161855452 0 0,1 -162.40474544519137,17.06942657353352L-140.64663525068084,14.782557040713193A141.4213562373095,141.4213562373095 0 0,0 -138.33096029604513,29.40315329303963Z" style="fill: rgb(152, 223, 138); stroke: rgb(255, 255, 255);"></path><path d="M-162.40474544519137,17.06942657353352A163.2993161855452,163.2993161855452 0 0,1 -163.2993161855452,-2.7007945868861926e-13L-141.4213562373095,-2.3389567226469413e-13A141.4213562373095,141.4213562373095 0 0,0 -140.64663525068084,14.782557040713193Z" style="fill: rgb(152, 223, 138); stroke: rgb(255, 255, 255);"></path><path d="M-163.2993161855452,-2.7007945868861926e-13A163.2993161855452,163.2993161855452 0 0,1 -162.40474544519134,-17.06942657353391L-140.64663525068082,-14.782557040713533A141.4213562373095,141.4213562373095 0 0,0 -141.4213562373095,-2.3389567226469413e-13Z" style="fill: rgb(152, 223, 138); stroke: rgb(255, 255, 255);"></path><path d="M-162.40474544519134,-17.06942657353391A163.2993161855452,163.2993161855452 0 0,1 -159.73083432836208,-33.9518369375209L-138.33096029604505,-29.403153293039964A141.4213562373095,141.4213562373095 0 0,0 -140.64663525068082,-14.782557040713533Z" style="fill: rgb(152, 223, 138); stroke: rgb(255, 255, 255);"></path><path d="M-138.3309602960451,-29.403153293039722A141.4213562373095,141.4213562373095 0 0,1 -134.49970239279142,-43.701602444882205L-109.81854713951088,-35.682208977309074A115.47005383792515,115.47005383792515 0 0,0 -112.94675611816984,-24.00757413226074Z" style="fill: rgb(214, 39, 40); stroke: rgb(255, 255, 255);"></path><path d="M-159.73083432836214,-33.951836937520625A163.2993161855452,163.2993161855452 0 0,1 -155.30687876480536,-50.462263871141495L-134.49970239279142,-43.701602444882205A141.4213562373095,141.4213562373095 0 0,0 -138.3309602960451,-29.403153293039722Z" style="fill: rgb(214, 39, 40); stroke: rgb(255, 255, 255);"></path><path d="M-109.81854713951093,-35.682208977308974A115.47005383792515,115.47005383792515 0 0,1 -2.1211504774498136e-14,-115.47005383792515L-1.499879886521846e-14,-81.6496580927726A81.6496580927726,81.6496580927726 0 0,0 -77.65343938240271,-25.23113193557068Z" style="fill: rgb(140, 86, 75); stroke: rgb(255, 255, 255);"></path><path d="M-134.49970239279148,-43.70160244488209A141.4213562373095,141.4213562373095 0 0,1 -83.1253875554907,-114.41228056353685L-67.8715947273503,-93.41723589627156A115.47005383792515,115.47005383792515 0 0,0 -109.81854713951093,-35.682208977308974Z" style="fill: rgb(255, 127, 14); stroke: rgb(255, 255, 255);"></path><path d="M-155.30687876480542,-50.46226387114136A163.2993161855452,163.2993161855452 0 0,1 -132.11192196391391,-95.98492976330911L-114.41228056353681,-83.12538755549078A141.4213562373095,141.4213562373095 0 0,0 -134.49970239279148,-43.70160244488209Z" style="fill: rgb(255, 187, 120); stroke: rgb(255, 255, 255);"></path><path d="M-173.63836914571172,-56.418526157201875A182.57418583505535,182.57418583505535 0 0,1 -147.7056190747295,-107.31441388315098L-132.11192196391391,-95.98492976330911A163.2993161855452,163.2993161855452 0 0,0 -155.30687876480542,-50.46226387114136Z" style="fill: rgb(44, 160, 44); stroke: rgb(255, 255, 255);"></path><path d="M-190.21130325903073,-61.803398874989455A200,200 0 0,1 -182.70909152852016,-81.34732861516012L-166.78981815241087,-74.2596114588478A182.57418583505535,182.57418583505535 0 0,0 -173.63836914571172,-56.418526157201875Z" style="fill: rgb(44, 160, 44); stroke: rgb(255, 255, 255);"></path><path d="M-182.70909152852016,-81.34732861516012A200,200 0 0,1 -173.20508075688764,-100.00000000000017L-158.11388300841887,-91.28709291752783A182.57418583505535,182.57418583505535 0 0,0 -166.78981815241087,-74.2596114588478Z" style="fill: rgb(44, 160, 44); stroke: rgb(255, 255, 255);"></path><path d="M-173.20508075688764,-100.00000000000017A200,200 0 0,1 -161.8033988749894,-117.55705045849474L-147.7056190747295,-107.31441388315098A182.57418583505535,182.57418583505535 0 0,0 -158.11388300841887,-91.28709291752783Z" style="fill: rgb(44, 160, 44); stroke: rgb(255, 255, 255);"></path><path d="M-132.11192196391391,-95.98492976330911A163.2993161855452,163.2993161855452 0 0,1 -121.35504182728475,-109.26857045722082L-105.09654909975173,-94.62935785116306A141.4213562373095,141.4213562373095 0 0,0 -114.41228056353681,-83.12538755549078Z" style="fill: rgb(255, 127, 14); stroke: rgb(255, 255, 255);"></path><path d="M-121.35504182728475,-109.26857045722082A163.2993161855452,163.2993161855452 0 0,1 -109.26857045722065,-121.35504182728491L-94.62935785116291,-105.09654909975187A141.4213562373095,141.4213562373095 0 0,0 -105.09654909975173,-94.62935785116306Z" style="fill: rgb(255, 127, 14); stroke: rgb(255, 255, 255);"></path><path d="M-109.26857045722065,-121.35504182728491A163.2993161855452,163.2993161855452 0 0,1 -95.98492976330881,-132.1119219639141L-83.1253875554905,-114.412280563537A141.4213562373095,141.4213562373095 0 0,0 -94.62935785116291,-105.09654909975187Z" style="fill: rgb(255, 127, 14); stroke: rgb(255, 255, 255);"></path><path d="M-83.1253875554907,-114.41228056353685A141.4213562373095,141.4213562373095 0 0,1 -14.782557040713327,-140.64663525068084L-12.069907281111515,-114.83749680116989A115.47005383792515,115.47005383792515 0 0,0 -67.8715947273503,-93.41723589627156Z" style="fill: rgb(152, 223, 138); stroke: rgb(255, 255, 255); opacity: 1;" class=""></path><path d="M-95.98492976330904,-132.11192196391397A163.2993161855452,163.2993161855452 0 0,1 -81.64965809277254,-141.4213562373095L-70.7106781186547,-122.47448713915894A141.4213562373095,141.4213562373095 0 0,0 -83.1253875554907,-114.41228056353685Z" style="fill: rgb(152, 223, 138); stroke: rgb(255, 255, 255);"></path><path d="M-81.64965809277254,-141.4213562373095A163.2993161855452,163.2993161855452 0 0,1 -66.41981568188218,-149.18134853744775L-57.52124769519001,-129.19483760425027A141.4213562373095,141.4213562373095 0 0,0 -70.7106781186547,-122.47448713915894Z" style="fill: rgb(152, 223, 138); stroke: rgb(255, 255, 255);"></path><path d="M-66.41981568188218,-149.18134853744775A163.2993161855452,163.2993161855452 0 0,1 -50.46226387114127,-155.30687876480542L-43.70160244488201,-134.4997023927915A141.4213562373095,141.4213562373095 0 0,0 -57.52124769519001,-129.19483760425027Z" style="fill: rgb(152, 223, 138); stroke: rgb(255, 255, 255);"></path><path d="M-50.46226387114127,-155.30687876480542A163.2993161855452,163.2993161855452 0 0,1 -33.95183693752039,-159.7308343283622L-29.403153293039516,-138.33096029604516A141.4213562373095,141.4213562373095 0 0,0 -43.70160244488201,-134.4997023927915Z" style="fill: rgb(152, 223, 138); stroke: rgb(255, 255, 255); opacity: 1;" class=""></path><path d="M-33.95183693752039,-159.7308343283622A163.2993161855452,163.2993161855452 0 0,1 -17.06942657353338,-162.4047454451914L-14.782557040713076,-140.64663525068087A141.4213562373095,141.4213562373095 0 0,0 -29.403153293039516,-138.33096029604516Z" style="fill: rgb(152, 223, 138); stroke: rgb(255, 255, 255);"></path><path d="M-14.782557040713327,-140.64663525068084A141.4213562373095,141.4213562373095 0 0,1 -2.59786816870648e-14,-141.4213562373095L-2.1211504774498136e-14,-115.47005383792515A115.47005383792515,115.47005383792515 0 0,0 -12.069907281111515,-114.83749680116989Z" style="fill: rgb(214, 39, 40); stroke: rgb(255, 255, 255);"></path><path d="M-17.069426573533672,-162.40474544519137A163.2993161855452,163.2993161855452 0 0,1 -2.999759773043692e-14,-163.2993161855452L-2.59786816870648e-14,-141.4213562373095A141.4213562373095,141.4213562373095 0 0,0 -14.782557040713327,-140.64663525068084Z" style="fill: rgb(214, 39, 40); stroke: rgb(255, 255, 255);"></path></g></g></g></g></svg>