<?xml version="1.0" standalone="no"?>
<!DOCTYPE svg PUBLIC "-//W3C//DTD SVG 1.1//EN" "http://www.w3.org/Graphics/SVG/1.1/DTD/svg11.dtd" >
<svg xmlns="http://www.w3.org/2000/svg">
<metadata>Generated by IcoMoon</metadata>
<defs>
<font id="icomoon" horiz-adv-x="1024">
<font-face units-per-em="1024" ascent="960" descent="-64" />
<missing-glyph horiz-adv-x="1024" />
<glyph unicode="&#x20;" horiz-adv-x="512" d="" />
<glyph unicode="&#xe900;" glyph-name="about" d="M448.2 831c-142-21.6-257.8-121.4-299-257.4-11.8-39.2-14.2-57-14.2-107.6 0-39 0.6-48 4.6-68 26.8-132.6 118.8-238.4 243.8-280 116-38.6 241-18.6 338.6 53.8 18.4 13.6 50.4 44.4 64.8 62 79.8 98.4 103.4 229.6 63 351-41.2 124.2-147.8 217-278.8 243.2-28.6 5.8-94 7.4-122.8 3zM557.2 686.2c34.2-15.2 42.4-58.6 15.2-82.4-31.2-27.4-80.4-14.6-91.8 24-11.8 40.6 35.4 76.6 76.6 58.4zM513.2 533.8c19.2-7.2 30.8-19 36.2-37.6 5.2-18 2.2-37.6-14.6-98.2-8.2-29.2-16.2-60.6-17.8-69.8-4.4-25-0.6-39.8 11.2-44 9-3.2 31.4-2.8 42.8 0.8 5.4 1.6 10 2.6 10.4 2.2s-0.4-5.2-1.8-10.8l-2.2-10.4-16.2-6.2c-40.4-15.6-58.2-19-82.2-15.6-17 2.4-28.2 7.2-38.8 17-23.4 21-23.6 43.2-1.8 119.6 16.4 57.8 19.8 73.2 19.8 88.8 0 17.6-2.4 23.8-11.2 27.4-9 3.8-29.6 3.8-42.2 0-5.4-1.6-10-3-10.2-3-1.2 0-0.4 7.6 1.6 14.6 2.2 8.4 3.4 9 37.6 20.6 31.8 11 57.8 12.4 79.4 4.6z" />
<glyph unicode="&#xe901;" glyph-name="bell" d="M481.6 833c-14.2-5.8-18-8.4-31-21.2-11.2-11-23.4-32.2-25.6-44.2l-1.4-7.6h87.2c99.4 0 91-1.8 83.2 18-9.8 24.6-29.8 45.4-53.4 55.2-16.4 6.6-42.8 6.6-59-0.2zM476 750.6c-7.2-1.6-16.2-3.2-20-3.6-9.2-0.8-31.6-9.4-48-18.4-36.2-19.6-64.2-48-85.4-85.6-12.2-22-19.4-41.4-24.6-67.6-3.4-17.2-4-28-4-84 0-66-1.2-79.2-9.2-96.8-1.6-3.4-2.8-6.8-2.8-7.6 0-2.8-21.6-34.2-30.2-44-4.8-5.4-16.2-17.8-25.2-27.2-9.2-9.4-16.6-17.6-16.6-18.4s135.4-1.4 301-1.4c199.4 0 301 0.6 301 2 0 1.2-0.8 2-1.8 2-3.2 0-46.8 49.6-56.6 64.2-23.6 35.6-25.6 45.2-25.6 127.8 0 75.4-1.6 87.2-16.6 126-9.2 24-26.4 49.2-49.4 72.2-26 26.2-49.2 40.6-82.2 51.8-35.6 11.8-75.6 15.2-103.8 8.6zM174 249v-25h674v50h-674v-25zM403 193.6c1.8-10.6 11.6-31.8 19.6-42.6 9.6-12.8 25.2-26.8 38.8-34.4 41.2-23 91.2-14.8 125 20.6 16 16.6 29.2 40 32.4 57.4l1.4 7.4h-218.6l1.4-8.4z" />
<glyph unicode="&#xe902;" glyph-name="Cloud-upload" d="M447.2 774.8c-48.2-9-83.8-27.4-113.6-58.4-20.4-21.2-39.2-54.2-44.4-77.6-1.2-5-3-6.4-12.6-9.4-30.4-9.6-64.6-30.2-87-52-25-24.4-40.2-49.8-51-84.4-5.2-17.2-5.4-20-5.6-59 0-38.6 0.4-42.2 5.4-60.6 16.6-59.4 51.2-101.4 107.6-130.2 38.8-19.8 79.8-30.4 126.6-32.6l27.4-1.2v54.6h-18.6c-34.2 0-78 10.4-108.4 25.4-42.8 21.4-72.6 56.2-84.2 97.6-5 18.2-6 63-2 81.6 4.2 18.4 14.4 40 26.2 55.4 19.8 25.8 59.8 49.6 100 59.6l21 5.2v7.4c0 11.2 9.4 41.2 17.2 55.2 14 25.2 32.6 42.4 59.8 55.6 21.6 10.4 36.4 14.2 66.4 17.2 47.4 5 88.8-6.6 123.2-34 34.6-27.4 65.6-86 76.4-143.2 1.8-9.8 3.6-19.8 4.2-22.2 0.6-3.8 2.6-4.4 21.2-5.4 35.6-2.2 59.6-11.4 79.8-30.6 21.4-20.4 31.8-49 31.8-86.6 0-53.6-22.4-86.2-77-112.4-36-17.2-78.2-25.8-126.4-25.8h-28.6v-54.6l38.6 1.2c21.6 0.6 45.8 2.4 55.2 4.2 100 18.8 162.2 64.2 184.6 135.2 4.2 13.6 4.6 18.6 4.4 53 0 35.6-0.4 39.2-5.6 56-17.4 56.8-55.8 93.4-113.2 107.8-16.2 4-19.2 5.4-20.6 9.4-0.8 2.6-4.6 14.6-8.4 26.4-18 56.2-51 105.4-91 135.8-17 13-44.6 26.4-67 33-16 4.6-22.4 5.2-57 5.8-28.6 0.4-43.2-0.2-54.8-2.4zM479.6 591.4c-3-1.4-31.2-29.4-62.6-62.4-41.6-43.8-57.6-62-59.2-67.4-6.4-20.2 9.8-38.4 30.6-34.2 6.8 1.4 11.6 5.6 50.2 46.4l25.4 26.8v-181.8c0-169.2 0.2-182.2 3.6-188.6 5-10 12.2-14.6 23-14.6 9.8 0 18 4.2 22 11.2 1.8 3.2 2.6 51 3.4 194.6l1 190.6 35.6-40c29.6-33.2 37-40.2 43.2-42 14.2-3.8 28.4 4.2 32.2 18 3.8 14.2 1.4 18-34.8 58.8-83.2 93.4-76.4 87.2-96.2 87.2-6.6-0.2-14.4-1.2-17.4-2.6z" />
<glyph unicode="&#xe903;" glyph-name="Filter" d="M259.8 809.2c-24.4-8.6-45.4-27.4-56.2-50.2l-6-13h-25.8c-28.6 0-36.4-2-43.4-11-6.2-7.8-6.2-24.2 0-32 7-9 14.8-11 43.2-11h25.8l7.2-14.6c11.6-23.4 33-41.8 57.4-49.6 17.8-5.6 44.4-5.6 62.2 0 26.2 8.2 50.2 29.6 60.2 53.8l4.4 10.4h230.6c250.6 0 239.2-0.6 248.2 11 6.2 7.8 6.2 24.2 0 32-9 11.6 2.4 11-248 11h-230.6l-6.4 13.6c-11 23.6-34.6 43.6-60.4 51.2-17 5-46 4.2-62.4-1.6zM311 757c3.4-1.4 9.2-5.4 12.8-9.2 23.6-23.4 11.8-61.8-21.4-69.8-31.8-7.6-61.6 26-49.2 55.6 9.4 22.8 34.4 33 57.8 23.4zM471.4 561c-24.6-6.8-47.2-24.2-59.4-45.6l-6.4-11.4h-129.8c-141 0-138.6 0.2-147.4-11-6.2-7.8-6.2-24.2 0-32 8.8-11.2 6.6-11 145.4-11h127.8l1.2-6.8c2.6-13.4 13-30.6 26.2-43 39.8-37.2 98.2-37.2 138 0 13.2 12.4 23.6 29.6 26.2 43l1.2 6.8h127.8c138.8 0 136.6-0.2 145.4 11 6.2 7.8 6.2 24.2 0 32-8.8 11.2-6.4 11-147.4 11h-129.8l-6.4 11.4c-12.4 21.8-35 39-60.2 45.6-13.2 3.6-39.4 3.6-52.4 0zM518.2 505c11.4-5.8 20.6-18.4 22.8-31 3.8-23-18.4-48-43-48-17.4 0-37.4 15.2-42 31.8-9.2 34.8 29 63.8 62.2 47.2zM690 329.8c-34.4-3.6-67.4-28-79.2-58.8l-3.4-9h-230.8c-250.6 0-239.2 0.6-248.2-11-6.2-7.8-6.2-24.2 0-32 9-11.6-2.4-11 248-11h230.6l6.4-13.6c11-23.6 34.6-43.6 60.4-51.2 16-4.8 45.2-4.2 60.8 1 24.8 8.2 46.8 27.6 57.6 50.8l6.2 13h25.8c28.6 0 36.4 2 43.4 11 6.2 7.8 6.2 24.2 0 32-7 9-14.8 11-43.2 11h-25.8l-7.2 14.6c-18.8 38-56.4 57.8-101.4 53.2zM713 275.8c24.2-6 39-33.6 29.8-55.4-11.8-28.6-48.8-36.2-70.6-14.2-22.6 22.6-12.8 59.2 18.2 68.8 10.8 3.4 12 3.4 22.6 0.8z" />
<glyph unicode="&#xe904;" glyph-name="finder_cofnig" d="M332.4 827.4c-2.6-2.6-9.4-16.8-15.2-31.6-6-14.8-11.4-26.6-12-26.2-0.6 0.2-4.2-1-7.6-2.8-8-4.2-16.6-4-20.8 0-1.8 1.8-3.8 2.8-4.6 2.2-1-0.4-5.4 1-10.2 3.2-4.6 2.2-10.4 4.4-12.8 5-2.2 0.4-4.4 1.6-4.8 2.8s-1.4 1.6-2.4 1c-1-0.6-4.2 0-7.4 1.2-10.6 4.4-14.2 2.6-35-17.6-20-19.6-20-19.6-19-28 0.4-4.6 6-19.4 12-32.8l11.2-24.4-4-9.2c-3.2-7.6-5.4-9.8-13.2-13-5-2.2-10.4-3.8-12-3.8-1.4 0-2.6-1-2.6-2 0-1.2-0.6-1.6-1.2-0.8-0.8 0.6-6.6-1.4-13-4.8-6.4-3.2-12.4-5.8-13.2-6-1 0-4-2.2-7.2-5-5.4-4.8-5.4-4.8-5.4-32.6 0-26.6 0.2-27.8 5-33 2.8-3 5-4.8 5-4.2s4.4-1.2 10-4c5.4-2.8 10.2-4.8 10.4-4.6 1 0.8 26.4-9 31-11.8 2.4-1.6 5.8-6.4 7.4-10.8 3.2-8 3.2-8.2-3.8-23.8-8.6-19.2-17-41.8-17-46.2s40.8-43.8 45.4-43.8c2 0.2 7.2 1.4 11.4 3 4.4 1.6 8.6 2.4 9.6 1.8 0.8-0.6 1.6-0.2 1.6 1 0 1 2 2.4 4.6 3.2 3.8 1.2 10 3.8 27 11.6 3.2 1.6 6.8 1.6 12 0 4-1 8.8-2.4 10.4-2.8 4.6-1.2 7-5.4 15-25 4-9.8 10.2-22.6 13.6-28.2l6.2-10.6h59l5 6.6c2.6 3.4 9.4 17.6 14.8 31.2 6.8 17 11 25 13.2 25.4 1.8 0.2 5.4 1.8 7.8 3.4 4.2 2.6 15.2 2.6 17.4-0.2 0.6-0.8 2.4-1.6 4-2s7-2.4 11.8-4.6c5-2.4 10.8-4.6 13-5s4.4-1.4 5-2.2c0.6-1 3-1.8 5.2-2.2 2.2-0.2 7.4-1 11.4-1.8 7.2-1 8-0.6 27.6 18.6 20.4 19.8 20.4 19.8 19.4 28.2-0.4 4.6-5.8 19.2-12 32.6l-11.2 24.2 3.4 9.2c2.4 6.2 5 9.6 8.4 11 2.8 1 7.6 3 11 4.6 3.2 1.4 6.6 2.2 7.4 1.8 0.8-0.6 1.6 0 1.6 1.4s0.6 2 1.2 1.2c0.8-0.6 6.6 1.4 13 4.8 6.6 3.2 11.8 5.4 11.8 4.8 0-1 5.8 3.6 11.2 8.6 2.2 2 2.8 9.4 2.8 30.8 0 27.4-0.2 28.2-5 32.8-2.8 2.6-5 4.2-5 3.6 0-0.4-3.8 1-8.2 3.4-4.6 2.2-9.8 4.4-11.6 4.8s-6.8 2.2-11.2 4.2c-4.4 2-9.2 3.8-10.6 4-1.6 0.2-4.2 1.2-6 2s-4.2 1.6-5.2 1.6c-0.8 0.2-3.4 4.6-5.4 9.8l-3.8 9.6 7.8 18.4c11 25.6 16.2 39.8 16.2 43.6s-40.6 43.8-44.4 43.8c-1.4 0-6.2-1-10.6-2.4-4.4-1.2-8.8-2.2-9.8-1.8-1 0.2-3.4-1.2-5.4-3-2.2-1.8-3.8-2.8-3.8-2s-4.2-1-9.2-3.8c-5-2.8-9.8-4.6-10.8-4s-3-0.4-4.6-2c-4-3.8-12-3.8-19.4 0-3.4 1.8-6.6 2.8-7.4 2.6-0.6-0.4-6.2 10.6-12 24.4-6 13.6-13 27.8-15.8 31.4l-5 6.6h-28.6c-27.2 0-28.6-0.2-32.8-4.6zM378 680.8c2.8-0.6 6.6-1.2 8.6-1.2 3.8 0.2 19.8-6.2 24-9.4 25.6-20 36-39.6 36-67.2 0-27.2-11.6-49.2-35.6-66.8-3-2.2-19.4-8.6-24-9.4-2.2-0.4-7.2-1.2-11-2-8.8-1.8-11.4-1.8-20 0-3.8 0.8-8.8 1.8-11 2s-5.8 1.2-8 2c-2.2 0.8-6.4 2.4-9.4 3.6-3.2 1.2-5.6 2.8-5.6 3.8s-1.2 1.8-2.8 1.8c-4.8 0-21.4 19.8-27.6 33.2-5.4 11.6-6 15-6 31.4 0 19 2.8 30 11 42.4 6 9 19.8 23 22.8 23 1.4 0 2.6 0.8 2.6 1.8 0 2 19.2 9.8 24 9.8 4.2 0.2 14.8 2.4 15.8 3.6 1 0.8 3.6 0.4 16.2-2.4zM672.6 566.6c-12.2-0.8-12.4-0.8-16.4-9.2-2.2-4.6-5.6-14-7.6-20.8-3.2-11-4.2-12.4-10.4-14.4-3.8-1-8.2-1.2-10-0.4-1.8 1-4.2 1.2-5.6 0.8-1.2-0.4-5.6 0.6-9.6 2.2-4.2 1.8-9.2 3.2-11.2 3.2-2.2 0-3.8 1-3.8 2 0 1.2-1.2 2-2.8 2-3.2 0-28.2-24.6-30.2-29.6-0.6-1.8 3-11.8 8.2-22.6 8.8-18.2 9.2-19.6 6.4-25-1.6-3.2-4-5.6-5.2-5.2-1.4 0.2-2.4-0.6-2.4-2 0-1.2-0.6-1.8-1.2-1-1.6 1.6-23.6-10.2-28.6-15.4-3.6-3.8-3.8-6-2.8-22.6l1.2-18.4 9.8-5c5.6-2.8 10.8-4.6 11.8-4s6.8-1.2 12.8-4c14.2-6.4 15-10 7.6-31.6-3-9.2-6.2-16.8-7-17.2-3.2-1.4-1.2-5.6 4.8-10.4 3.4-2.8 10-8.4 14.6-12.4 9-8 13.2-9 22.4-5.2 3 1.2 6.6 2.4 8 2.8 1.2 0.2 5.6 3 9.6 6 7.2 5.4 7.6 5.4 15.6 2.6 7.4-2.4 9.4-4.6 17-18.8 4.6-8.8 9.6-17.2 11-18.4 2-2 7.4-2.2 21-1.4l18.4 1.4 3.8 8.2c2.2 4.6 5.6 13.8 7.6 20.6 3.2 11.4 4.2 12.4 11.2 14.8 5.4 1.8 8.2 1.8 9.8 0.2 1.2-1.2 3.2-1.6 4.6-1.2 1.4 0.6 6.8-0.8 11.8-3.2 5.2-2.2 10.2-3.6 11.2-3 1.2 0.6 2 0.2 2-0.8 0-5.4 7.4-1 18.6 11 6.8 7.2 13.2 14.6 14 16.2 1.2 2-1.4 9.4-7.6 22.4-11 22.8-10.8 26.8 1.2 31.4 4.2 1.8 7.8 4 7.8 5s1.4 1.8 3 1.8c3.6 0 17 8.2 20.6 12.4 1.8 2.2 2 8 1.2 21.2l-1.4 18.4-9.2 4.4c-5 2.4-11.4 4.6-14.2 4.8-8.8 0.6-19.8 6.4-22.4 11.8-2 4.4-1.4 7.8 3.6 22.6 3.2 9.6 6.4 17.8 7.4 18 3.4 1.6 0.6 5.8-8.2 12.8-5.2 4.2-11.8 9.8-14.8 12.6-5.8 5.4-13.4 6.4-20.2 2.6-2.4-1.4-5.6-2.6-7-2.8-1.6-0.2-4.2-1.8-6-3.2-7.8-6.4-15.4-8.2-22.4-5.6-0.6 0.2-1.6 0.4-2.4 0.2-0.8 0-4.8 6.4-8.8 14.4-11.2 22.2-14 25.4-21.4 25-3.6-0.2-12-0.6-18.8-1zM705 467.2c13.2-4.8 22.8-12.4 29.4-22.8 6-9.8 7-32.8 1.8-44.6-4.2-10-14.4-20.4-23.2-24-14.4-5.6-41.8-5.8-47.4-0.2-1.4 1.4-3.4 2.4-4.6 2.4-2.8 0-15.8 13.6-19 19.8-3.4 6.8-4.6 31.4-1.8 39.8 3 9 15 22.2 23.8 26 3.8 1.6 10.6 3.4 15 3.8 4.4 0.6 8.4 1.2 8.8 1.8 1.2 1 12-0.2 17.2-2zM436.4 406c-11.8-1.4-18.2-5-18.4-10.6 0-1-1.8-8-4.2-15.4-3.4-11.4-5-14-9.6-15.6-3.2-1.2-6.8-1.2-8.2-0.4-1.4 1-3.6 1.2-5 0.8-1.2-0.6-5.4 0.4-9.2 1.8-3.6 1.6-10.4 2.8-14.8 3-7.4 0.2-8.6-0.6-16-10-14.2-18.4-14-17-4-34.2 5-8.4 9-17 9-19.2 0-4.2-8.8-12.2-13.2-12.2-1.6 0-2.8-0.6-2.8-1.4 0-1-4-3.2-9-5.2-5-2.2-9-5-9-6.6s-1-2.8-2.2-2.8c-3 0-0.2-27.8 3.4-33.4 2.6-4.2 15.2-11 18.4-10.2 0.8 0.4 5.8-0.8 11-2.2 13.8-4 14.6-7 8.6-28.2-2.8-9.8-5.2-18.6-5.2-19.6s5.4-5.8 12-10.6c6.6-4.8 12-9.8 12-11.2 0-3 16.4 2.2 24.4 7.6 2.8 2.2 6.2 3.8 7.4 3.8s2.2 0.8 2.2 1.6c0 2 12.4 1.6 15.6-0.4 1.2-0.8 5.4-7 9.4-13.8 12-21 10.2-20 29.2-17.8 9.4 1.2 17 3.2 18 4.8 1 1.4 4.2 10 7 18.8 3.8 12 6.2 16.8 9.6 18.4 4.6 2 15.4 0.8 25.2-3 6.6-2.6 22-3.2 22-1 0 0.8 4 6.4 9 12.2s9 12.4 9 14.8c0 2.4-3.6 10.8-8.2 18.4-9.4 16-9 21.6 1.2 27 3.2 1.6 7 4.2 8.6 5.6 1.4 1.2 3.8 2.4 5.2 2.4 1.6 0 3.8 1.4 5.2 3s3.2 2.4 4.2 1.8c1-0.6 1.8 0.4 1.8 2 0 1.8 1 3.2 2.2 3.2 2.4 0 0.4 26.8-2.6 32.4-2 4-15.4 11.4-19.8 11-6-0.6-19.6 5.4-21.8 9.6-2 3.6-1.4 7.2 2.8 20.8 2.8 9 5.2 17.6 5.2 18.8 0 1.4-5.4 6.6-12 11.4-6.6 5-12 10.2-12 11.8 0 1.4-1.2 2.2-2.4 1.6-1.4-0.4-6.2-2-10.6-3.6s-9.6-4.4-11.4-6.2c-2-2-5-3.6-6.6-3.6s-3-0.8-3-1.6c0-1.6-15.6-1.6-16.8-0.2-0.4 0.4-5 8.2-10.2 17.4-7.4 12.6-10.8 16.4-13.8 16.2-2.4-0.2-9.8-1-16.8-1.8zM466 317.2c0-0.8 1.2-1.2 2.8-0.6s5.2-0.6 7.8-2.8c2.8-2 5.6-3.8 6.2-3.8 2.6 0 8.8-7.2 12.2-14 2-3.8 4-12.8 4.4-20 0.6-11.8 0.2-14-5.2-22.4-5.8-9-16.4-17.4-25.6-20.4-7-2.2-26.6-2.8-26.6-0.6 0 1-1.2 1.4-2.4 0.8-3.2-1.2-15 5.8-21.2 12.2-6.6 7-8.8 13.6-9.4 28.4-0.6 10.6 0.2 14.4 4 21 4.2 7.4 17 20.6 17 17.8 0-0.8 1.2-0.2 2.8 1 5.4 4.6 33.2 7.4 33.2 3.4z" />
<glyph unicode="&#xe905;" glyph-name="geofence" d="M450 825c-43.4-8-87.8-31.2-119.6-62.6-32.4-32.2-53.6-73-64.8-125-6.2-29.4-6.2-81.6 0-111 5.2-23.6 12.8-45.4 22.6-64.8 6.4-12.4 203.6-299.6 205.8-299.4 0.6 0 46 65.2 101 144.8 60.6 87.8 103 151 107.4 160.4 17 36 24.4 70.2 24.2 114.6 0 45-7.8 81.2-25.6 118.6-30.4 64.4-93.6 112-164.6 124.4-21 3.8-66 3.6-86.4 0zM510 680c42-8 73.2-48 69.4-89-3.2-34.4-28-64.6-61-74.2-17.2-5-41-3-57.2 5-37.2 18.2-56.4 57.8-46.4 95.4 9.6 36 42.8 63 79.4 64.6 3 0.2 10-0.8 15.8-1.8zM325 304c-91-13.8-163.8-43.6-185-75.6-7.6-11.6-8.8-15.8-7.6-29.4 1.2-14 8.4-24.6 24.4-36 45.6-32.2 127.6-52.8 243.6-61 37.8-2.6 153.4-2.6 191.2 0 116 8.2 198 28.8 243.6 61 16 11.4 23.2 22 24.4 36 1.2 13.6 0 17.8-7.6 29.4-21.4 32.4-95.2 62.2-186.8 75.8-23.2 3.4-26.4 3.4-30.6 0.8-10.4-6.8-6.6-21.8 5.8-23.8 61.8-9.6 96-17.4 124.6-28.2 38.8-14.6 69-36 69-48.8 0-28-89-59.4-204-72-77-8.4-191-8.4-268 0-115 12.6-204 44-204 72 0 12.8 30.2 34.2 69 48.8 28.6 10.8 63.2 18.6 124.4 28.2 6.8 1 12.6 7.2 12.6 13.4 0 4.2-8.6 13.4-12.4 13.2-1.4 0-13.4-1.8-26.6-3.8z" />
<glyph unicode="&#xe906;" glyph-name="my_profile" d="M450 830c-33.2-8.6-66.8-30.4-89.6-58-13.8-17-31.2-52.2-36.8-75-6.4-26-6.4-68.6 0.2-94 17.6-68.8 68.8-120.6 132.6-134 17.8-3.8 49.4-3.8 67.2 0 63.8 13.4 115 65.2 132.6 134 6.6 25.6 6.6 68.2 0.2 94-5.8 22.8-23 58-36.8 75-23 28-56.6 49.6-90.4 58-21.4 5.4-58 5.4-79.2 0zM448 408c-75-9.4-146-51.8-190-113.6-21.2-29.6-36-62-45.4-99.2-4.2-17-5.2-26.4-6-59.8l-1.2-39.4h568.6v31.8c0 49.4-7.6 83.2-27.8 125.2-38 78.4-107.6 133.2-191.8 151-22.4 4.8-81.6 7-106.4 4z" />
<glyph unicode="&#xe907;" glyph-name="reset" d="M394 826.4c-15.2-6.8-17.8-13-24.8-61.8-4.6-31.2-7.2-43.6-9.2-44.8-1.6-0.8-11.8-6.6-22.4-12.6-10.6-6.2-20.2-11.2-21.2-11.2-1.2 0-19 6.8-39.6 15-28.6 11.4-40.2 15.2-47.8 15.4-10.6 0.2-19.8-3.4-25.2-9.6-6.6-7.8-74.4-125.8-76.2-132.8-2.4-9.2 0.6-21.2 7-28 2.6-2.8 19.2-16.2 37-30l32.2-24.8v-52.2l-34.2-26c-18.8-14.2-35.4-28-37-30.4-5-7.6-6.8-19.2-4-28 4-13.2 73.6-130.4 80.2-135.2 3.4-2.4 10-4.4 16.4-5 9.4-0.8 14.6 0.8 49.2 14.2 21.2 8.4 39.6 15.4 40.8 15.8s9.4-3.6 18-8.6c8.8-5.2 19-11 22.8-13.2l6.8-3.8 6.4-43.6c6.8-46 7.8-49.4 19.6-58 5.2-4 8.4-4.2 66.8-4.8 33.8-0.4 63.4 0 66 0.6 2.8 0.8 5.8 3.8 7.6 8.4 3 6.8 2.8 7.6-2 16.4-14.6 26-25.6 51-29.6 67.2-6 24.2-6.4 64.6-0.8 88 4.6 19.4 4.4 24.4-1.2 30.4-3.8 4.2-6.2 4.6-21.4 4.6-51.8 0-99 29.8-122.2 77-10.8 21.8-14.2 36.2-14.2 60 0 37.6 13 68.4 41 96 17.8 17.6 34.4 27.6 58.2 35 84.6 26 176-39.4 177.2-127.2 0.2-16.6 2.4-23.4 8.8-26.8 5-2.6 7.4-2.4 30 2.6 17.6 4 40.4 4.8 65.4 2.8 19.2-1.8 19.4-1.6 24.6 3.4 4.6 4.6 5 6.4 5 22.8v17.8l31.6 24.2c43.8 33.6 43.4 33.2 43.4 51v14.4l-34.8 59c-41 69.4-40.8 69.2-48.8 73.4-12.2 6.2-23.4 4-64.2-12.2-21-8.4-38.8-15.2-39.8-15.2-0.8 0-9 4.2-18.2 9.6-9 5.2-19 10.8-22.2 12.4l-6 3.2-6.4 43.8c-6.8 46.8-7.8 49.8-20.6 58.6-6.6 4.4-6.8 4.4-85.8 4.2-43.6 0-80.6-0.6-82.2-1.4zM667 428.6c-63.4-8.8-119-56.6-139-119.6-5.6-17.6-7.6-57.6-4.2-78.2 13.6-77.2 85.2-138.8 161.6-138.8 15.2 0 16.6 0.4 20.4 5.2 4.8 6 5.2 10.4 2 17.4-2.8 6.4-9.8 9.4-21 9.4-23.8 0-59.4 13.6-81.2 31-42.4 33.6-61.2 93-45.6 144 11.4 37.4 36.8 66.6 73 84 23.4 11.2 35.4 14 61 13.8 33.6-0.2 59-10.6 84.8-34.8 15-14 35.2-44 35.2-52 0-1.2-11.2-2-31.8-2-30.8 0-32.2-0.2-37.4-4.8-6.8-5.6-7.6-16.8-1.8-23.2 3.4-3.8 5.8-4 57.8-4 46 0 55 0.4 58.8 3.2 4.4 3 4.4 3.4 4.4 57.8v54.8l-5.4 4.2c-4.2 3.2-7.2 4-12.4 3.2-11.4-1.8-13-5-14.2-27.6l-1-20.2-7.8 11.4c-15.4 22.4-44.4 45.4-70.6 56.2-22.8 9.2-58.8 13.2-85.6 9.6z" />
<glyph unicode="&#xe908;" glyph-name="screenshot" d="M377.2 770c-12.2-6.2-15.2-9.8-44.6-53.4-15-22.4-28.4-40.6-29.8-40.6s-2.6 5.6-3.2 15.8c-2 33.4-21.8 50.2-59.6 50.2-20.4 0-32.6-4.4-44-15.8-10.4-10.6-14-20-14-37.8v-12.2l-10.8-2.2c-13-2.6-25.2-11-32.6-22.4l-5.6-8.4v-400.6l6-9.8c3.8-6 9.8-12 15.8-15.8l9.8-6h670.8l9.8 6c6 3.8 12 9.8 15.8 15.8l6 9.8 0.6 197.8 0.4 197.6-4.2 9c-2.4 4.8-7.4 11.8-11.4 15.2-14.4 12.6-14.8 12.8-89.8 13.8l-68.4 1-26.2 39c-30 44.4-33.2 48.2-45.2 54-8.6 3.8-12 4-123.2 4-109.8-0.2-115-0.4-122.4-4zM632.6 674l33.6-50h149.8v-364h-632v364h149.8l67.2 100h198l33.6-50zM469.4 622.8c-51.4-9.2-96.2-42.6-119.4-88.8-10.8-21.4-16-41.2-17.4-65.4-4-69.6 32.8-131 96.2-160.6 88.6-41.6 195.8 2.2 229.2 93.4 7.8 21.8 10.8 42.8 9.4 67.2-5.6 100.2-98 172.2-198 154.2zM524.2 571.2c31.6-6.8 65.6-33 79.4-61.4 30.6-63.2-0.2-137-67.2-160.2-19.2-6.6-53.6-6.6-72.8 0-45.4 15.6-76 55.8-79 103.4-2 32.2 9.2 60.8 33.4 85.2 29.4 29.8 66.6 41.4 106.2 33zM711.8 571.4c-8.2-5.4-11.8-12-11.8-21.4s3.6-16 11.8-21.4c22.6-15.2 50.4 11.6 36.2 34.8-7.6 12.6-24 16.2-36.2 8z" />
<glyph unicode="&#xe909;" glyph-name="search" d="M390.6 827.8c-51.2-7.8-107.8-32.2-147-63.4-20-15.8-49.6-48-63.4-68.4-33.2-49.6-48.4-100.4-48.4-161.4 0.2-48.4 8-82.8 29.2-126 40.8-83.4 117.8-142.2 213.8-163 27.4-6 94.8-6.6 121.2-1 38.8 8.2 78.6 23.4 104.8 40.2l11.8 7.6 94.2-94.2c51.8-51.6 96.8-95 99.8-96.2 7.4-2.6 25.6-2.6 32.8 0.2 12.4 4.6 24.4 21.8 24.6 34.8 0 17.8 0.8 16.8-97.4 115.2l-93 93.4 10.8 14c67.4 88.6 78.6 207 28.8 305.2-41.4 81.4-116.6 138.6-209.6 159.4-14.8 3.4-27.2 4.4-59.6 4.8-22.6 0.4-46.6-0.2-53.4-1.2zM486 747c83.2-18.2 149.2-81 170.2-161.8 5.4-20.6 7.2-59.4 3.8-80.8-15.8-98.4-97.2-173.6-200-184.6-75.8-8.2-156.6 26.2-202.6 86.6-33.4 43.8-49.2 98.4-43.4 149.6 8.4 74.8 54.4 139 123 172.2 20.6 10 47.2 18.4 68 21.8 16.8 2.6 63.2 0.8 81-3z" />
<glyph unicode="&#xe90a;" glyph-name="inactive_customer" d="M627 780.2c-20.8-5.2-33-20.8-33-42.2 0-17.6 7.6-30.4 23-38.6 7.8-4.4 10-4.4 111-5 69.6-0.4 106.2 0 113.2 1.6 20 4.2 32.8 20.6 32.8 42 0 18-7.2 30.2-23 38.6-7.8 4.4-9.6 4.4-113 4.8-57.8 0.2-107.6-0.4-111-1.2zM337.2 752.8c-29.2-6.4-55.4-21.4-76.4-43.2-31-32.2-44.4-68.6-42.4-114.4 1.6-34.6 12-61 34.8-89.6 12.2-15.2 13-13.2-7.6-17.6-35.2-7.4-75.8-37.4-95.4-70.6-9-15.4-17.6-41.2-19.6-59.4-1-8.2-1.4-61.6-1-118.4l0.8-103.6h182.6l-0.6 21.4c-2.4 72.4 32.4 138.2 93.2 177.6 11.4 7.2 14.4 10.2 13.2 12.6-13.2 30.6-19.8 65-18 93.8 3.6 52.4 30.2 107 68 139.2 12.4 10.8 44.4 31.4 48.6 31.4 6.6 0-0.2 35.6-11.4 58.2-19 39.2-56 70-97 81-17.4 4.6-54.8 5.4-71.8 1.6zM579 581.8c-17.2-2-42.6-10.8-58.2-20-16.4-9.6-42.6-36-52.4-52.8-4.4-7.6-10.6-21.2-13.8-30-5.2-15-5.6-18-5.6-48 0.2-29.4 0.6-33.4 5.6-48 6.6-20 17.4-38.4 30.8-53l10.4-11.2-14.4-2.4c-36.6-6.2-73.4-30.8-97-65-19.8-28.4-29.4-69-25.2-105l1.4-10.4h483.2l-0.8 10.4c-0.6 5.8-1.4 18.4-1.8 27.8-3.2 57.6-37.8 108.4-90 131.8-13.4 6-35.2 12-44 12-5.6 0-5.6 0.2 5 11.6 14.2 15.4 22.8 30.4 30.4 51.8 10.8 31 9.8 74.6-2 104.6-19.2 47.6-57.2 81-106.6 93-15.2 3.8-38.4 5-55 2.8z" />
<glyph unicode="&#xe90b;" glyph-name="license" d="M200 466v-366h381.6l1.2 4.6c0.6 2.4 1.2 51 1.2 108v103.4h234v516h-618v-366zM730.8 748.8l5.2-5.4v-122.8l-5.2-5.4-5.4-5.2h-436.8l-5.4 5.2-5.2 5.4v122.8l5.2 5.4 5.4 5.2h436.8l5.4-5.2zM724.2 573c18.6-9.6 18.6-42.4 0-52-5.4-2.6-30.4-3-216.2-3-232 0-218-0.8-226 12.6-4.8 7.8-5.2 23.2-1 31.6 1.8 3.2 6 7.8 9.6 9.8 6.2 3.8 11.6 4 217 4 186.2 0 211.2-0.4 216.6-3zM430.8 491c39.6-10.4 73.8-44.6 84.2-84.2 3.8-15 3.8-46.6 0-61.6-4.6-17.4-16.2-38.2-28.8-51.4l-11.2-11.6 4.6-4.4c4.4-4.2 4.4-5 4.4-52.8v-48.4l-5.2-5.4-5.4-5.2h-144.8l-5.4 5.2-5.2 5.4v48.2c0 45 0.2 48.8 3.8 52.6 3.8 4 3.8 4.2-7.6 16-13 13.6-24.6 34.4-29.2 51.8-3.8 15-3.8 46.6 0 61.6 10.2 39.2 44.2 73.6 83.2 84 14.6 4 48 4 62.6 0.2zM732 486.8c7.8-4.8 12-13 12-23.8s-4.2-19-12-23.8c-5-2.8-15.2-3.2-86-3.2-88.2 0-87.6 0-94.8 12-4.2 7.2-4.2 22.8 0 29.8 7.2 12.2 6.2 12 94.4 12.2 71.2 0 81.4-0.4 86.4-3.2zM732 402.8c7.8-4.8 12-13 12-23.8s-4.2-19-12-23.8c-5-2.8-15.2-3.2-86-3.2-88.2 0-87.6 0-94.8 12-4.2 7.2-4.2 22.8 0 29.8 7.2 12.2 6.2 12 94.4 12.2 71.2 0 81.4-0.4 86.4-3.2zM342.4 687.6c-1.4-1.4-2.4-5.2-2.4-8.6s1-7.2 2.4-8.6c3.4-3.4 325.8-3.4 329.2 0 1.4 1.4 2.4 5.2 2.4 8.6s-1 7.2-2.4 8.6c-3.4 3.4-325.8 3.4-329.2 0zM373 432.2c-12.4-6-21.2-14.2-28-26.2-3.4-5.8-4-10.8-4-29 0-24 1.6-29 14-42.8 16.4-18.4 50-24 74-12.4 12.4 6 21.2 14.2 28 26.2 5.8 10.2 5.8 47.8 0 58-6.8 12-15.6 20.2-28 26.2-10.2 5-14.4 5.8-28 5.8s-17.8-0.8-28-5.8zM376 257v-21h48v42h-48v-21zM645 203c-5.2-35.8-9.2-65.6-8.4-66.2 1-1 143.4 128.2 143.4 130.4 0 0.4-28.2 0.8-62.6 0.8h-62.6l-9.8-65z" />
<glyph unicode="&#xe90c;" glyph-name="edit-plain" d="M628.6 815.8c-5.8-2.8-72-67.6-212.4-208.2-112.2-112.2-204.4-205.4-205-207.2-3-10-23.2-161.8-23.2-174.8 0-14.4 0.4-15.6 6.2-21.4s7-6.2 21.6-6.2c8.4 0 46.4 4.4 84.4 9.8 37.8 5.6 74 10.6 80.2 11.2l11.4 1.4 205 205c144.6 144.4 206.2 207.4 209 213.4 3.4 6.8 4.2 12.4 4.2 27.4 0 17-0.6 19.8-5.8 28.8-7.6 13.2-110 114.8-121.6 120.8-12 6-41.8 6-54 0zM709.4 719.6c30.8-30.8 50.6-52 50.6-54.4 0-4.6-34-39.2-238.2-242.6l-155.2-154.6h-8.8c-4.8 0-32.6-3.6-61.8-8-29.2-4.2-53.2-7.6-53.4-7.4s3.2 24.2 7.4 53.4c4.4 29.2 8 57 8 62v9l279.8 279.8 6.6-5.8 6.6-6-13.2 14.4 21.6 20.8c11.8 11.4 37.4 36.4 56.6 55.2 21.6 21.4 36.6 34.6 39 34.6 2.6 0 22.2-18.2 54.4-50.4z" />
<glyph unicode="&#xe90d;" glyph-name="report" d="M214 466v-366h414l-0.2 41.6c-0.2 22.8-0.8 67.8-1.6 100l-1.2 58.4 97 0.4c53.4 0.2 98.6 0.4 100.6 0.2 3.2 0 3.4 14 3.4 265.8v265.6h-612v-366zM663.4 751.4c7.4-7.2 7.6-7.8 7.6-22.4s-0.2-15.2-7.6-22.4l-7.4-7.6h-264l-7.4 7.6c-7.4 7.2-7.6 7.8-7.6 22.4 0 13.6 0.4 15.2 6 21 3.4 3.6 7.8 7.2 10 8.2 2.2 0.8 62.2 1.4 133.4 1.2l129.6-0.4 7.4-7.6zM740.2 675.4c11.4-7.6 15.8-16.2 15.8-30.4s-4.4-22.8-15.8-30.4l-6.8-4.6h-422.8l-6.8 4.6c-11.4 7.6-15.8 16.2-15.8 30.4s4.4 22.8 15.8 30.4l6.8 4.6h422.8l6.8-4.6zM749.4 573.4c7.4-7.2 7.6-7.8 7.6-22.4s-0.2-15.2-7.6-22.4l-7.4-7.6h-436l-7.4 7.6c-7.4 7.2-7.6 7.8-7.6 22.4 0 13.6 0.4 15.2 6 21 3.4 3.6 7.8 7.2 10 8 2.2 1 101 1.6 219.4 1.4l215.6-0.4 7.4-7.6zM490.2 325.4c11.4-7.6 15.8-16.2 15.8-30.4s-4.4-22.8-15.8-30.4l-6.8-4.6h-170.8l-6.8 4.6c-11.4 7.6-15.8 16.2-15.8 30.4s4.4 22.8 15.8 30.4l6.8 4.6h170.8l6.8-4.6zM490.2 231.4c11.4-7.6 15.8-16.2 15.8-30.4s-4.4-22.8-15.8-30.4l-6.8-4.6h-170.8l-6.8 4.6c-11.4 7.6-15.8 16.2-15.8 30.4s4.4 22.8 15.8 30.4l6.8 4.6h170.8l6.8-4.6zM676 181c0-32.4 0.4-59 1-59s30.4 25.8 66.2 57.2c46.6 41 64.4 57.8 62.4 59-1.4 1-31.2 1.8-66 1.8h-63.6v-59z" />
<glyph unicode="&#xe90e;" glyph-name="role" d="M709 820.6c-19.4-10.2-23-19-23-59v-31.6h-31c-23.6 0-33-0.8-38.6-3-15.8-6.8-24.4-20.2-24.4-38.6 0-16 6.2-27.4 19-35.4 9.6-6 10-6 42.4-6.6l32.6-0.8v-30.8c0-33 1.6-40.8 10.6-50.4 10.8-11.6 33-16 48-9.6 7.8 3.4 18.4 14.2 21.2 21.8 1.2 3.2 2.2 19.8 2.2 37.4v31.6l32.6 0.8c32.4 0.6 32.8 0.6 42.4 6.6 22.6 14 26 48.4 6.6 66.4-9.6 9-17.4 10.6-50.6 10.6h-31v31.8c0 17.6-1 34.4-2.2 37.6-2.8 7.6-13.4 18.4-21.2 21.8-8.6 3.8-28.2 3.4-35.6-0.6zM349 704c-27.8-5-53.2-18.4-74.8-39-56-53.6-61-141.6-11.6-201.2l11-13.2-15.4-3.4c-52.8-11.4-97.6-55.6-111-109.4-4-16-4.4-31-3.6-143.2l0.4-88.6h175.6l1 30.6c0.6 22 2 34.8 5.2 46.4 4.6 17.6 18.4 47.8 28.4 62.4 11.4 16.4 33.8 38.2 51.6 50 9.4 6.4 17.4 11.6 17.6 11.6 0.2 0.2-2.2 7-5.2 15.2-23.8 61.2-13.4 133.8 26.8 185.6 17.2 22.4 50.4 49.6 70.6 58 5.6 2.4 6 3.2 5.2 9.8-5.2 38.8-23.2 72-52.2 96.4-25.2 21.4-53.4 32-87.6 33-12 0.4-26.4 0-32-1zM560.2 534c-43-11.4-75.2-37.6-94.2-77-26.6-54.6-19.6-114.8 19.2-161.8 9.8-12 10.4-13.2 6.4-13.2-8.6 0-34.4-8.2-47.8-15.2-52.8-27.8-84.4-86.2-78.8-145.6l1.4-15.2h466.2l-1.4 25.6c-1.8 32.4-5.2 47-16.2 69.6-20 41.2-65.6 75-108 80l-10.8 1.4 10.8 11.8c26.2 29.2 39.4 72 34.8 113.4-7 61.6-50 111.2-109.4 126.4-20.2 5.2-52 5-72.2-0.2z" />
<glyph unicode="&#xe90f;" glyph-name="support" d="M458 827c-58.6-13-106.8-51.2-134-106-10-19.8-20-53.2-20-66 0-4.2-2.4-9.4-6.8-15.2-3.6-4.8-7.6-11.8-9-15.6-1.4-4.4-2.2-27.6-2.2-68 0-60.4 0-61.4 4.8-71.6 6.6-14.2 17.4-21.2 34-22.2 13.8-1 24.2 3 32.8 12.2l4.8 5 9.6-19.2c16.2-32.2 39.8-57 67.4-71l12.4-6.2 8.6 9.4c15.6 16.6 21.2 18.2 76.6 19.4 43.6 1 48.6 1.4 55 5 8.4 5 24.2 27.8 32.8 48l6.6 14.8 5.6-5.8c5.4-5.6 5.6-6.4 4.4-21.4-1.6-23.2-7.6-37.2-22.2-51.8-19.2-19.2-25.4-20.8-78.4-20.8-46.8 0-52.6-1-60.4-11-3.2-4.2-4.4-8.2-4.4-16.2 0-13.2 6.2-21.6 18.6-25 12.2-3.4 92.8-1 107.4 3 32 9 61 33.2 75.8 63.2 9.6 19.8 14.2 38.8 14.2 60.2 0 11.8 0.8 16 3.4 18 1.8 1.6 5.4 7.4 7.8 12.8 4.6 9.8 4.8 11.4 4.8 71.2 0 40.4-0.8 63.6-2.2 68-1.4 3.8-5.4 10.8-9 15.6-4.4 5.8-6.8 11-6.8 15.2 0 12.8-10 46.2-20 66-24.6 49.8-70.2 88.2-122 103.2-19.6 5.6-70.2 7.2-90 2.8zM538 772c27.4-9.2 51-25.4 68.6-47 13.2-16.2 26.8-44.2 30.8-64.2l3.4-16.2-10-12-9.4 18.2c-16.6 32.4-40 56.4-68.4 70.2-19.2 9.4-34.6 13-56 13s-36.8-3.6-56-13c-28.4-13.8-51.8-37.8-68.4-70.2l-9.4-18.2-4.6 5.4c-5.6 6.8-5.6 9.2-0.8 28.6 12.8 49.6 50.6 90.2 98.2 105.2 18.6 5.8 20.6 6 46 5.2 17-0.4 26.4-1.8 36-5zM338.6 379.2c-55-20-99-59.4-126.2-112.8-18.8-36.8-26.4-69.2-26.4-111.8 0-30.2 2.4-38.4 14.4-47l6.6-4.6h580l6.6 4.6c12 8.6 14.4 16.8 14.4 47 0 42.8-7.6 75-26.6 112.2-12.6 24.8-29 46.8-48 64.2-13.8 13-35.4 29-38.8 29-1 0-5.6-5-10.4-11-17.4-21.8-49.2-41.8-77.8-49.2-12.8-3.2-22.2-3.8-65.4-3.8-33 0-52.8 0.8-57.2 2.4-12.2 4-23.4 13.4-30.2 24.8-6 10-8 11.6-19.8 16.4-19.8 8-38 19.4-53.4 33.6-9.2 8.4-15.6 12.8-18.8 12.8-2.4-0.2-13-3.2-23-6.8z" />
<glyph unicode="&#xe910;" glyph-name="user1" d="M464 815.4c-23.8-8-40.2-20.4-54-40.4-21.8-31.6-21.6-78 0.2-110.8 40.8-61.2 132.8-61.2 173.6 0 11.4 17 16.2 34 16.2 56.6-0.2 45.6-28.6 82.6-73.8 96-16.4 4.8-46 4.2-62.2-1.4zM309.8 630.4c-41-10.8-69.6-47.4-69.8-89.4-0.2-67.4 69.2-112.4 133.4-86.4 12.4 5 12.2 4.6 18.8 25.2 5 16.2 18.2 36.6 31.8 49 8.2 7.6 8.2 7.8 7 18-4.6 36-22.2 61.6-51.8 76.2-23.2 11.4-45 13.6-69.4 7.4zM638 631.8c-14.6-2.8-36.4-14.8-47.8-26-12.6-12.8-23.4-34-26.2-51.6-1-7.2-1.6-13-1.4-13.2 5.4-2.2 25.2-19.8 31-27.6 12.6-16.6 18-28.4 23.2-52 1.6-7 9.6-10.6 28.6-13.4 48-6.8 93.6 23 105.6 69 17.6 67.6-42.4 128.6-113 114.8zM437 612.6c-4.4-0.4-8.8-1.6-9.6-2.6-1-0.8 0.6-5 3.4-9.4 7.2-10.8 13.4-29.2 14.8-43.2 0.8-9.6 1.6-11.6 4.2-10.6 1.8 0.6 8.6 3 15.2 5.4 8.4 3.2 18 4.8 32 5.4 18.8 0.8 25 0 46.2-6.6 3.8-1.2 4.4-0.4 5.4 8.6 1.4 12.8 8 31.2 14.6 41 3.8 5.8 4.6 8.4 2.8 10.2-2.2 2.2-111.2 3.8-129 1.8zM476.2 534.8c-34-9.2-61-37-68-70.4-6.8-32.2 2-60.8 25.6-84.6 20-19.8 39.2-27.6 68.4-27.8 26.6 0 49.4 9.4 68.2 28 50.4 50.4 26.2 136.8-43.4 155-14.6 3.8-36.4 3.6-50.8-0.2zM262.2 438c-38.4-10.2-69.2-38.8-82.6-77l-5.6-16v-120.8l10.4-3c39.6-11.4 83-19.8 114.8-22.2l18.2-1.4 1.2 25.6c0.6 14.2 2.6 31.2 4.4 37.8 7.6 28 25.2 55 48 73.6 12 9.8 41.4 25.4 47.6 25.4 5 0 4.4 1.4-5.6 12.4-12.2 13.6-22.4 35.4-25.4 54.4l-2.6 15.2-54-0.2c-46.8 0-56-0.6-68.8-3.8zM616.2 427c-3-18-14.4-42.2-26.2-55.4-4.4-5.2-8-9.6-8-10 0-0.6 3.8-2 8.6-3.4 21.4-6.4 49.2-26.4 64.4-46.6 21.4-28.6 29-52 29-90.2v-25.6l6.6 1c3.4 0.6 14 1.6 23.4 2.2 31.2 2.4 72 11.8 95 22l11 4.8v119.2l-5.6 16c-13.4 38.6-44.2 67-83.4 77-13.6 3.4-22.2 4-64 4h-48.2l-2.6-15zM429 343c-41.4-11.4-75.4-45.4-86-86-2.4-9.4-3-24-3-70.4 0-32.2 0.4-58.6 0.8-58.6 0.6 0 14.8-3.6 31.6-8 55.8-14.4 75.2-16.8 137.6-17 37.4 0 59.8 0.8 70 2.6 25.2 4.6 54.2 12.4 69.6 18.8l14.8 6-0.8 61.4c-0.8 59.8-0.8 61.4-5.8 74.4-7.8 20-15.2 31.4-29.6 45.8-14.6 14.4-35.2 26-55.2 31-16.2 4-128.8 4-144 0z" />
<glyph unicode="&#xe911;" glyph-name="lock" d="M476 804.2c-1.6-1-8-2.8-14-4.2s-12.4-3.4-14-4.2c-1.6-1-8.2-4-14.4-6.8-35-15.8-74.4-55.4-86.8-87-2-5-4.2-9.4-4.8-10-1.2-0.8-2.8-6.6-10-34-1-3.8-2-27-2-51.4v-44.6h-13.6c-17 0-27-4.4-38.2-17.2l-8.2-9.4v-361.4l5-8c2.6-4.2 8.4-10.2 12.4-13l7.6-5h444l7.6 5c4 2.8 9.8 8.8 12.4 13l5 8v361.4l-8.4 9.6c-10.6 12-22 17-38.8 17h-12.8v44.6c0 24.4-1 47.6-2 51.4-7.2 27.4-8.8 33.2-10 34-0.6 0.6-2.8 5-4.8 10-11.8 30.2-51.2 70.4-83.6 85.6-35 16.4-44.8 18.4-88 18.4-20 0-38-0.8-39.6-1.8zM546.2 759c9.4-1.6 21.8-5.2 27.4-8 5.8-2.8 11.2-5 12.4-5 1 0 2-0.8 2-1.8s2-2.6 4.6-3.4c9.8-3 29.6-21.4 42-38.8 8.2-11.8 16.8-30 18.6-39.4 0.8-4.2 2-8.6 3-9.8 0.8-1 2-22 2.2-46.4l0.6-44.4h-284l1.2 44.4c1.2 46.8 2.4 55.2 11.2 74.6 11.4 24.6 38.8 55 54.2 59.8 2.4 0.8 4.4 2.4 4.4 3.4s0.8 1.8 2 1.8c1 0 6.8 2.2 12.6 5 21.4 10.2 55.2 13.2 85.6 8zM720.4 354l-0.4-162h-406l-0.4 162-0.6 162h408l-0.6-162zM491 423.2c-9.2-3.2-15-7.2-25-17.2-18.8-18.6-21-23.8-21-52 0-20.6 0.6-24 5-32.6 6.4-12.8 24-30 35-34.6 7-2.8 9-4.6 9-8.2 0-2.8 1.2-4.6 3-4.6 1.6 0 3 1.6 3 3.8 0 3.4 1.4 3.6 19.2 2.6 11-0.6 19.8-0.2 20.6 1 0.6 1 5.2 3.6 10.2 6 11.4 5.2 27.8 21.6 34 34 4.4 8.6 5 12.2 5 32.6 0 28.2-2.2 33.4-21 52-10.8 10.6-15.6 13.8-26.4 17.6-16.8 5.6-34.2 5.4-50.6-0.4zM528.8 379.2c9.6-4 15.8-13.8 16-25.4 0.2-12-4.6-19.2-17.4-25.4-8.2-4.2-10.2-4.4-16.4-2.4-15.4 5.2-24.8 19-22 32.6 4.2 18.6 22.2 28 39.8 20.6z" />
<glyph unicode="&#xe912;" glyph-name="mail" d="M189 706c-12.8-6.2-25.4-17.2-30.2-26.4-2.4-4.8-2.8-38.2-2.4-237l0.6-231.6 5-6.6c2.8-3.8 9.2-9.8 14.2-13.6 18.8-13.8-5.8-12.8 335.8-12.8 342 0 317-1 336 13 5.2 3.8 11.8 10.4 14.6 14.6l5.4 7.6v230.6c0 195.4-0.4 231.2-2.8 236-4.6 8.6-20.4 22-32.4 27.4l-11 4.8-620.8-0.2-12-5.8zM813.8 673c5.6-2.8 8-8.6 6.6-15.4-0.4-1.8-7.6-8.6-16-14.8-8.4-6.4-18.8-14.2-23-17.4s-64-48.2-133-100l-125.4-94h-11.4c-10.2 0-12.4 0.8-21 7.4-12.6 10-245.8 185.4-251.4 189.2-16 11-35 26.8-35.8 30-1.6 6.4 0.8 12 6.4 15 8 4.4 595.6 4.4 604 0zM233.2 581.2c10.2-8 35.6-27.2 54.8-41.2 8.8-6.4 44.2-33 92.8-69.6 27.8-21 31.4-24.4 30.2-28.6-1-3.2-0.6-3.6 3.2-2 3.6 1.2 6.4 0.2 13-4.6 34.4-25.6 44.6-32.2 56.6-36.4 29.4-10.4 65.4-3 86.6 17.8 1.4 1.4 7.2 5.6 12.6 9.4 5.6 3.8 18.2 12.8 28 20.4 10 7.4 25.2 19 34 25.6s21.4 16 28 21c6.6 5 16 12 21 15.4 5 3.6 17.2 12.8 27.4 20.6 10 7.6 25.8 19.6 35 26.4 9.2 7 22.2 16.8 29.2 22 7 5.4 17.8 13.2 24 17.8l11.4 8.2v-316.8l-5 3.2c-2.8 1.8-26.6 19.4-53 39.2-26.4 20-52.4 39.6-58 43.6-21.4 16-42.6 31.8-53.8 40.4-6.6 5-12.4 9-13 9-2 0-31.2-22.4-32-24.4-0.4-1.2 0.6-2.8 2-3.8 1.6-0.8 8.2-5.8 14.8-10.8 11-8.4 57.8-43.6 82-61.6 32.2-24 44.8-33.6 57.6-43.4 8-6.2 18.8-14.2 24-17.8 20.4-14 33.4-26.2 33.4-31.4 0-7.6-3.2-12.2-10.2-14.6-4.6-1.6-90.2-2.2-298.2-2.2-316.6 0-303.2-0.4-307.4 10.6-1.2 2.8-1.4 6.8-0.8 9 0.6 2.4 43.8 36.2 105.8 82.6 57.6 43.2 104.8 79.6 104.8 80.6-0.2 1.2-6 8.4-13 16l-12.8 13.8-13.2-9.8c-7.2-5.4-19.6-14.8-27.6-20.8-8-6.2-18.2-13.8-22.8-17-4.4-3.4-15.8-11.6-25-18.6-9-7-24-18.2-33-25-9.2-6.8-22.2-16.8-29-22.2-7-5.2-17.8-13.2-24-17.6l-11.6-7.8v318.2l10.6-7.4c5.6-4 15-11 20.6-15.4z" />
<glyph unicode="&#xe913;" glyph-name="arrow" d="M210.6 756.2c-4.8-2.2-10.2-6.8-12.6-10.6-3.8-6.2-4-10-4-75.2 0-59 0.4-69.8 3.2-75.6 9-19 38.2-19.8 50.2-1.4 3 4.4 3.8 11 4.6 37.4l1 32 59.6-63.2c32.6-34.6 61.8-64 64.6-65.2 7.2-3.4 22.2-3 28.4 0.8 12.4 7.4 18.2 25.8 11.8 38-1.8 3.4-27.8 32.6-58.2 65l-55 58.8 21.4 1c23.6 1.2 28.2 3 34.8 13.8 8.4 13.6 4.4 33-9 43-5.4 4-8.2 4.2-69 4.8-59.2 0.4-64 0.2-71.8-3.4zM646.6 756.2c-4.8-2.2-10.2-6.8-12.6-10.6-5.2-8.8-5.4-26.4-0.2-34.2 7-10.6 11.4-12.4 35.4-13.4l22.2-1-54.8-58c-30.2-31.8-56.6-60.6-58.8-64-7.8-12.4-3.2-33.4 9.2-41 7.2-4.4 21.8-5.4 29.8-1.8 2.8 1.4 32.2 31.2 65.6 66.4l60.6 64 1-33.2c0.8-29.4 1.4-33.8 5.2-38.8 12.6-17.2 37.8-16.2 48.8 1.8 3.8 6.2 4 10.2 4 76.6 0 97.4 7 89.8-84 90.6-58.8 0.4-63.6 0.2-71.4-3.4zM587 374c-12.6-8.2-17-28.6-9.2-41 2.2-3.2 28.6-32 58.8-64l54.8-58-22.2-1c-24-1-28.4-2.8-35.4-13.4-5.2-7.8-5-25.4 0.2-34.2 2.4-3.8 7.6-8.2 12.6-10.4 7.6-3.6 13.6-4 69.4-4s61.8 0.4 69.4 4c5 2.2 10.2 6.6 12.6 10.4 3.8 6.2 4 10 4 76.6 0 66.4-0.2 70.4-4 76.6-11 18-36.2 19-48.8 1.8-3.8-5-4.4-9.4-5.2-38.8l-1-33.2-60.6 64c-33.4 35.2-62.8 65-65.6 66.4-8 3.6-23 2.6-29.8-1.8zM376.6 373.6c-2.6-1.2-31.4-30.6-64-65.2l-59.6-63.2-1 32c-0.8 26.4-1.6 33-4.6 37.4-12 18.4-41.2 17.6-50.2-1.4-2.8-5.8-3.2-16.6-3.2-75.6 0-65.4 0.2-69 4-75.2 2.6-4 7.6-8.2 13-10.6 8.6-3.8 12.8-4 71.8-3.4 60.4 0.6 63.2 0.8 68.6 4.8 13.4 10 17.4 29.4 9 43-6.6 10.8-11.2 12.6-34.8 13.8l-21.4 1 55 58.8c30.2 32.4 56.4 61.6 58.2 64.8 6.4 12.4 0.8 30.8-11.8 38.2-6 3.6-22.2 4-29 0.8z" />
<glyph unicode="&#xe914;" glyph-name="bell1" d="M478.4 750c-14.2-5-21.6-10-32.8-21.4-11.8-12-19.6-27.6-21-41.6-1.2-10.6-1.2-10.8-11.4-15.8-36.4-18-68.2-50.4-86.2-88.2-16-33.6-20.6-54.8-23-109.8-2.2-49-5.8-76.8-13.4-106.2-10.4-40.2-28-72.4-46.8-86-14.6-10.4-18.2-17.2-17.4-33.2 1-20.4 11.8-33.2 31.6-37.6 5.2-1.2 37.6-2.2 76.2-2.2h67.4l1.2-6.4c3.8-20.6 42.8-50.2 77.2-58.8 19.6-5 58.4-3 76.4 3.6 28.6 10.8 52.6 30 62.6 50.2l5.4 11.2 72.2 0.6c71.8 0.6 72.4 0.6 82.2 5.4 13.4 6.6 21.2 19 21.2 33.8 0 5.8-1 12.6-2.2 15s-10 12-19.6 21.4c-13.8 13.8-18.8 20.2-25.6 34-19.2 39-30.6 94.8-30.6 150.8 0 46-11.8 81.8-41.8 126.8-22.6 33.4-50.4 59.6-79.4 74l-12.4 6.2-1.2 10.8c-3.6 28-25.6 53.6-54.6 63.6-15 5-39.8 5-54.2-0.2zM519.8 708c4.2-2 10.2-6.8 13.2-10.4l5.6-6.6-10.8-1.8c-17.6-3.2-53.8-1.2-53.8 2.6 0 0.8 3 4.2 6.6 7.6 13.6 13 25.6 15.6 39.2 8.6zM542.4 649.8c55.2-15.4 105.8-66 125.4-125.8 4.6-13.6 8-41.6 8.2-64.6 0-19.6 5.4-54.4 13-83.8l6.6-25.6h-365.2l4.6 17.2c8 28.6 13 64 15 102.8 2 44 5.6 60 19.8 89 36.4 74.4 103.8 109.8 172.6 90.8zM720.8 289c5.4-9.2 14.2-21.2 19.6-26.8l10-10.2h-474.2l8.6 9c9.4 9.6 20.8 25.8 26.4 37.6l3.6 7.4 396.2-0.2 9.8-16.8zM554 201.8c-25.4-21.8-56.4-22.2-81-0.8l-8 6.8h96l-7-6z" />
<glyph unicode="&#xe915;" glyph-name="Devices" d="M262.2 628.8c-11.6-5.8-20.8-16.8-24.4-28.6-1.4-4.8-1.8-60.8-1.4-168.4l0.6-161.2 6-9.8c3.8-6 9.8-12 15.8-15.8l9.8-6h488.8l9.8 6c6 3.8 12 9.8 15.8 15.8l6 9.8v330.8l-6 9.8c-3.8 6-9.8 12-15.8 15.8l-9.8 6-484.6 1-10.6-5.2zM688 436v-148h-350v296h350v-148z" />
<glyph unicode="&#xe916;" glyph-name="Edit" d="M547 669.6c-8-8-54.4-55.6-103.2-105.6s-105.2-107.8-125.2-128.2l-36.6-37.4v-48.8c0-48.6 0-49 4.6-53.2 4.4-4.2 6.2-4.4 49.8-4.4 25 0 46.6 0.6 48.2 1.2s64.6 64 139.6 141c87.8 89.8 137.8 142.4 139.6 146.8 2.4 6 2.2 7.6-1 13.8-2.2 3.8-21.8 25.4-43.8 48-40 41-40.2 41.2-48.8 41.2-8.2 0-9.6-1-23.2-14.4zM596.8 613.8c19.8-20.8 24.8-27 23.2-29.6-0.8-1.8-7.2-8.6-13.8-15l-12-12-4.4 4c-2.4 2-14.2 14.4-26.4 27.4l-22 23.6 13.8 14c7.4 7.6 14.4 13.8 15 13.8 0.8 0 12.8-11.8 26.6-26.2zM542.6 557.4l25.2-26.8-99.2-101.2-99-101.4h-53.8l1.2 53.6 98.8 101.2c54.2 55.6 99.2 101.2 100 101.2s12.8-12 26.8-26.6zM286.2 234.8c-2.4-3-4.2-8.2-4.2-11.8s1.8-8.8 4.2-11.8l4-5.2h459.2l4.2 4.6c6.2 6.6 6 19.2-0.2 25l-4.6 4.4h-458.6l-4-5.2z" />
<glyph unicode="&#xe917;" glyph-name="Finder" d="M384 767.8c-8.2-1-16.4-2.6-18.2-3.6s-8.8-3-15.6-4.4c-6.6-1.2-12.2-3-12.2-3.8s-3.2-2.2-7-2.8c-3.8-0.8-7-2.2-7-3.2 0-0.8-2.6-2.2-6-3-3.2-0.8-6-2-6-2.8s-3.6-2.6-8-4c-4.4-1.2-8-3.2-8-4.2s-2-2.4-4.4-3.2c-4-1.2-6-2.6-12.2-8-1.4-1.2-4.4-3.2-7-4.6-8.8-4.6-52.4-47.6-52.4-51.6 0-0.6-1.6-3-3.4-5.6-2-2.4-5-6.6-6.6-9s-4.2-5.8-5.6-7.2c-1.4-1.6-2-3.6-1.4-4.8 0.6-1 0.6-2-0.4-2-0.8 0-3.8-5-6.6-11s-5.6-11-6.4-11c-0.6 0-2-2.8-2.6-6.4-0.8-3.6-2.2-7.8-3.2-9.6-1-1.6-3.2-8.4-4.8-15-1.8-6.6-4.2-15.2-5.2-19-5.2-19.4-3.6-109.4 2-117 0.8-1 2.8-7.6 4.2-14.4 1.4-7 3.2-12.6 4-12.6s2.2-3.2 2.8-7c0.8-3.8 2.2-7 3.2-7 0.8 0 2.2-2.6 3-6s2-6 3-6c1 0 2.2-2.6 3-6 0.8-3.2 2.2-6 3.2-6 1.2 0 1.6-0.8 1-1.8s0.2-2.8 1.8-4.2c1.6-1.4 3-3.4 3-4.4s1.2-3 2.6-4.4c1.2-1.6 3.8-4.8 5.4-7.4 1.6-2.4 6-7.8 9.6-11.8 3.4-4.2 6.4-8 6.4-8.6 0-1.8 24.2-25.4 26-25.4 0.8 0 4.6-3 8.6-6.4 10.2-9.4 11.2-10 22.4-16.4 5.6-3.2 10.4-6.6 11-7.4s3.6-2.2 6.6-2.8c3-0.8 5.4-2.2 5.4-3s4-2.6 9-4c5-1.4 9-3.2 9-4 0-1 3.6-2.2 8-3s8-2 8-3c0-0.8 4.6-2.2 10-3 5.6-0.8 10-2 10-3 0-2.2 37.6-6 61-6s61.4 3.6 63 6c0.6 0.8 5.2 2.2 10.6 3 5.2 0.8 9.4 2.2 9.4 3.2 0 0.8 3.2 2.2 7 3 3.8 0.6 7.6 2 8.2 3 0.4 1 4.6 2.6 9.2 4 4.6 1.2 9.4 3.4 11 5s4.2 2.8 5.8 2.8c1.6 0 2.8 1 2.8 2.2 0 1.4 35.2-32.8 78.4-76 53.8-53.8 79.6-78.2 82.6-78.2 2.8 0 15.6 11.4 38 34 18.8 18.6 34.2 34.6 34.6 35.8 0.4 1-34.2 36.6-76.6 79-42.6 42.4-76.4 77.2-75.2 77.2s2.6 2.2 3.4 4.8c0.6 2.8 2.4 5.4 4 6s2.8 2.4 2.8 4.2c0 1.6 0.8 3 1.6 3 1 0 2.8 3.2 4.4 7s3.4 7 4.2 7c0.8 0 2 2.6 2.8 6s2 6 3 6c1 0 2.4 3 3 6.6 0.8 3.4 2.2 6.8 2.8 7.4 3.6 2.6 13.6 43.8 16.4 67 2.2 17.2 0.6 70.6-2 74-1 1-2.4 6.8-3.2 12.6-0.8 6-2.6 13.2-4.2 16-1.4 3-3.2 9.2-4 13.8-0.6 4.8-2 8-3 7.4s-1.8 0.8-1.8 3.2c0 3.8-7.2 19.4-10.2 22-0.6 0.6-2.2 4-3.6 7.6-1.6 3.4-3.4 6.4-4.4 6.4s-1.8 1.2-1.8 2.6c0 2.8-5 10-10.4 15-2 1.8-3.6 4.2-3.6 5.2s-2 3.6-4.4 6c-2.6 2.4-7.2 7.8-10.4 12.2-3.4 4.4-7 8.6-8 9.4-6 4-12.4 9.2-17 13.6-2.8 2.8-9.2 7.8-14.2 11-5 3.4-9.2 6.6-9.6 7.6-0.4 0.8-2 1.4-3.4 1.4-1.6 0-4 1.2-5.4 2.6-3 3-24.2 13.4-27.4 13.4-1.2 0-2.2 0.8-2.2 2 0 1-3.2 2.4-7 3.2-3.8 0.6-7 1.8-7 2.6s-6 2.6-13.4 4c-7.6 1.6-14.4 3.4-15.6 4.2-7.2 5.2-70.6 7.6-103 3.8zM468 661.2c6-2 13.8-4.8 17.4-6.4 3.4-1.6 7.2-2.8 8.4-2.8s2.2-0.8 2.2-1.6c0-0.8 3.2-2.8 7-4.2s7-3.4 7-4.4c0-1 1-1.8 2.4-1.8 2.6 0 4-1.2 21.6-18.4 15-14.6 22-22.8 20.8-24.2-0.4-0.4 0.4-2 2.2-3.4 1.6-1.4 3-3.8 3-5.2 0-1.6 0.8-2.8 1.8-2.8s2.4-2.6 3.2-6c0.8-3.2 2-6 3-6 0.8 0 2.8-4.8 4-10.4 1.4-5.8 3.4-11.2 4.4-11.8 4.4-2.8 4.2-79.6-0.2-77-0.8 0.6-2.6-4.4-4-11-1.2-6.4-3.2-11.8-4.2-11.8-0.8 0-2.2-2.6-3-6s-2.2-6-3.2-6c-1 0-1.8-1.2-1.8-2.8 0-1.4-1.4-3.8-3-5.2-1.8-1.4-2.8-3-2.2-3.4 2.2-2.2-38-42.6-42.6-42.6-1 0-3.2-1.2-4.6-2.8-4.2-4-24.4-13.2-29.2-13.2-2.4 0-4.4-0.8-4.4-1.8 0-1.2-4.2-2.6-9.4-3.2-5.4-0.6-11.2-2-13-3.2-4.6-2.4-44.6-2.4-49.2 0-1.8 1.2-7.6 2.6-12.8 3.2-5.4 0.6-9.6 2-9.6 2.8s-4.4 2.6-10 4c-5.4 1.4-10 3.2-10 4.2 0 0.8-2.4 2.2-5.2 2.8-2.8 0.8-6.2 2.2-7.4 3.4-9.2 7.6-12.2 9.8-13.4 9.8-3 0-28 26-28 29 0 1.6-1 3-2 3-1.2 0-3 2.2-4 5s-2.8 5-3.8 5c-1 0-2.4 2.8-3.2 6-0.8 3.4-2.2 6-3.2 6s-1.8 1-1.8 2.2c0 1-1.8 6-4.2 11-2.2 5-4.6 13.6-5.2 19s-2 9.8-2.8 9.8c-1 0-1.8 11.2-1.8 25s0.8 25 1.8 25c0.8 0 2.2 4.4 2.8 9.8s3 14 5.2 19c2.4 5 4.2 10 4.2 11 0 1.2 0.8 2.2 1.8 2.2s2.4 2.8 3.2 6.2c0.8 3.4 2.6 6.6 4.2 7.2s2.8 2 2.8 3.4c0 1.4 1.6 4.6 3.6 7.2 4.8 6.4 26.8 28.4 32.4 32 2.4 1.6 6.4 4.6 8.8 6.4 2.6 1.8 7 4 9.8 4.6 3 0.8 5.4 2.2 5.4 3 0 1 2.8 2.2 6 3 3.4 0.8 6 2 6 2.8s4.2 2.6 9.6 4c5.2 1.2 12.2 3.2 15.4 4.2 10.6 3.2 58.6 1.2 71-2.8zM394.8 615.8c-15.4-9.8-23.4-19.8-29.6-38-4-11.2-4-17.2 0-32.4 7-27.4 27-53 45.4-58.4 11.6-3.4 21.4-4 21.4-1 0 1.2 3 2 6.6 2 4 0 7.8 1.6 10 4 1.8 2.2 4.8 4 6.4 4s2.8 1 2.6 2.4c-0.4 1.2 1.6 3.4 4.2 4.8 12.4 6.4 24.6 34.6 25 57.8 0.2 13.8-0.6 17.6-5.4 27.4-6 12-18.8 25-30.2 30.4-4.8 2.2-12.6 3.2-26.6 3.2-18.6 0-20.4-0.4-29.8-6.2zM350.2 476c-11.6-4.2-25.6-14-32.4-22.8-4.2-5.2-4.2-5.6-0.6-9.4 8.4-9.4 33-26 46.8-32 13.2-5.6 32-11.8 36.6-11.8 2.6 0 1.6 6-4.6 24.6-3.2 10.2-8.6 26.6-11.6 36.4l-5.8 18-8.8 0.4c-4.8 0.2-13.6-1.4-19.6-3.4zM394 478.2c0-1.2 3.6-9.4 8-18.2l8-16h31.2l4.4 9.2c2.6 5.2 4.2 9.8 3.6 10.2-0.6 0.6 0.2 3.6 1.8 6.8 2 3.6 2.2 6 1 6.8s-14.8 1.8-30 2.4c-20.6 0.8-28 0.6-28-1.2zM473.4 476.6c-0.6-2-1.6-6.2-2.2-9.2-0.8-3-2-5.2-3-4.6-0.8 0.6-3.2-4.6-5-11.4-3.4-11.6-12-38.6-14.8-45.4-0.6-1.6-2 5.6-3.2 16l-2.2 19-34.6 1.2-1.2-11.6c-0.8-6.4-2-15.8-2.6-21l-1.2-9.6h24.8c27 0 36.6 2 59.8 11.8 13.8 6 38.4 22.6 46.8 32 3.6 3.8 3.6 4.2-0.6 9.4-11.2 14.2-35.4 26.8-51.6 26.8-6.2 0-8.6-0.8-9.2-3.4z" />
<glyph unicode="&#xe918;" glyph-name="add" d="M484 837.4c-2.6-1.4-7-5.6-9.4-9.2l-4.6-6.8v-309.4h-154c-167.8 0-160.6 0.4-169.8-11.2-3.6-4.6-4.2-8-4.2-25.8s0.6-21.2 4.2-25.8c9.2-11.6 2-11.2 169.8-11.2h154v-154c0-167.8-0.4-160.6 11.2-169.8 4.6-3.6 8-4.2 25.8-4.2s21.2 0.6 25.8 4.2c11.6 9.2 11.2 2 11.2 169.8v154h145c158 0 151.6-0.4 160.8 11.2 3.6 4.6 4.2 8 4.2 25.8s-0.6 21.2-4.2 25.8c-9.2 11.6-2.8 11.2-160.8 11.2h-145v309.4l-4.6 6.8c-6.6 9.8-12 11.8-32.4 11.8-10.4 0-20-1.2-23-2.6z" />
<glyph unicode="&#xe919;" glyph-name="add_access" d="M438 713.8c-60.6-8.2-113.2-26.6-163.2-57-31.8-19.2-49.6-33.4-78.8-62.6-21-21-27.6-29-29.6-35.2-3-10.8 0.2-21.4 9-29.2 5.8-5 8.4-5.8 18-5.8h11.2l24.2 24.6c46.2 46.6 90 74.6 147.4 94 69.2 23.6 152.4 23.6 221.6 0 57.4-19.4 101.2-47.4 147.4-94l24.2-24.6h11.2c9.6 0 12.2 0.8 18 6 8.8 7.6 12.2 18.4 9 29-1.8 6.2-9 14.4-30.6 36-15.4 15.4-35.4 33.4-44.6 40-61 44.4-123.6 69.2-199 79-18.6 2.4-77 2.2-95.4-0.2zM451.4 595.8c-47.8-5.6-100-26.8-140.6-57-18.4-13.8-48.6-44-52-52.2-9.6-22.2 8.8-44.6 31.6-38.6 5.4 1.6 11.6 6.4 22 17.2 98 102.2 251.2 102.2 349.2 0 10.4-10.8 16.6-15.6 22-17.2 22.8-6 41.2 16.4 31.6 38.6-3.4 7.8-28.6 33.8-48 49.2-58.8 46.6-138.4 68.8-215.8 60zM468 477.8c-20.6-2-48.2-10.6-66-20.8-24.8-14-49.6-37.2-54.4-51-4.4-13 4-29.6 17.4-34 12-4 19.8-0.8 37.2 15.2 28.2 25.8 51.2 35.6 84.8 35.6 33.4 0 56.8-10 85-35.8 17.2-15.8 25-19 37-15 13.4 4.4 21.8 21 17.4 34-4.8 13.8-29.6 37-54.4 51-16 9-43 18.2-59 19.8-23.6 2.6-28.2 2.6-45 1zM466 356.6c-12.8-4.6-28.2-20.8-32.6-34.4-7.2-22.6-2.6-43.2 13.2-59.2 23.2-23.2 57.6-23.2 80.8 0 22.4 22.6 22.4 57.4-0.4 80.2-15.8 16-39 21-61 13.4z" />
<glyph unicode="&#xe91a;" glyph-name="add_receiver" d="M441.4 776.2c-18.6-4.2-15-3.2-30-8-53-16.4-101.2-58.8-125.4-110.8-15.6-33.6-22-63.8-21-99.4 1-36 7.6-58.8 28.8-100.6 17-33.8 187.6-314 191-314.2 2-0.2 8 9.6 63.2 104.8 20 34.6 39.4 66.6 42.8 71 3.6 4.4 13.2 19.2 21.6 33 8.2 13.8 24.4 40.4 36 59 44.6 71.8 57.6 107.2 57.2 155.2 0 18.8-0.8 23.6-7.6 44-19 57.6-46 99.2-81.6 125.4-13.4 10-42.4 27-42.4 25.2 0-0.6-3.4 0.6-7.4 2.8-10.2 5.2-25.4 9.8-37.6 11.6-5.4 0.6-10.8 2-12 2.6-1 0.8-15 1.6-31 1.8-21.6 0.2-33-0.6-44.6-3.4zM507.4 644c25.2-8 39.2-19.6 50-41.6 7.2-14.4 7.6-16.2 7.4-34.2 0-10.6-0.6-21.4-1.2-24.2-4.2-19.8-23.4-42-45.4-52.4-12.2-5.8-14.6-6.2-34.2-6.2-18.8 0-22.2 0.6-33 5.8-15.2 7-30.6 22.4-37.8 37.6-5.2 10.8-5.6 13.8-5.6 34.4 0 26 1.2 32.2 7.4 44.8 7.8 15.6 28.4 31.6 45.6 35.2 2.4 0.6 8 1.8 12.4 2.8 9.8 2 24 1.2 34.4-2z" />
<glyph unicode="&#xe91b;" glyph-name="add_server" d="M269 786.8c-11.4-4.2-20.6-14-24-25.6-3.6-12-4.2-105.4-1-117.6 4.2-14.8-18-13.6 247-13.6h238.8l4 5.2c4 5.2 4.2 7.6 4.2 65.2 0 54.8-0.4 60.4-3.8 67.2-5.2 10-11.6 15.6-22 19.4-12.8 4.4-430.8 4.4-443.2-0.2zM346.2 736c4.2-2.2 10.6-7.8 13.8-12.4 5.4-7.2 6-9.8 6-22.4-0.2-12.2-1-15.4-5.6-22-15.8-23-47.6-22.2-63.8 1.8-4 5.8-5 9.8-5 20.4 0 11.2 0.8 14.2 5.8 21.4 11.4 16.4 31.8 21.8 48.8 13.2zM265 607c-10-5-18.6-16.4-21-27.8-3.6-16-2-112.4 2-120.2l3-6 482.8-1 3.2 5.8c2.4 5 3 16 3 65.8v59.6l-5.8 9.4c-3.8 5.6-9.2 10.8-14 13.4-8 4-10.4 4-227.6 4-191.6 0-220.4-0.4-225.6-3zM346.2 557.4c4.8-2.6 11.2-8.2 14.2-12.6 4.6-6.6 5.4-9.8 5.6-22 0-12.6-0.6-15.2-6-22.4-16-22.2-46.6-21.8-62 0.6-5.4 7.8-6.2 10.8-6.2 22s0.8 14.2 6 21.8c11.4 16.4 31.2 21.6 48.4 12.6zM245.2 422.6c-4.6-13.4-4.6-107.8-0.2-120.8 3.2-8.8 12.4-20 20-24.4 2.8-1.8 34.6-2.6 111-3.4l107-1 0.6-34.2 0.4-34.4-7.6-3c-9-3.6-19.2-13.4-22.6-22.2-1.4-3.4-3.6-6.8-4.6-7.6-1.2-0.8-47.4-1.6-102.6-1.6-97.2 0-100.6-0.2-102.6-3.8-1.4-3-1.2-4.6 1.2-7 2.8-2.8 14.8-3.2 102.4-3.2 54.6 0 100.4-0.8 101.4-1.6 1.2-0.8 3-3.6 4.2-6.4 6.4-14.6 22.6-25.8 37.4-26 14.4 0 37.4 16 37.4 26 0 7.8 1.6 8 105.2 8 89 0 100.6 0.4 103 3.2 1.8 2.2 2 4 0.4 6.4-1.8 3-11.6 3.4-102.8 4.4-55.4 0.6-102 1.8-103.2 2.6-1.4 1-2.6 3.2-2.6 5.2 0 5.4-12.8 19-21.8 23.2l-8.2 3.6v69.4h99.8c54.8 0 103.8 0.6 108.8 1.2 11.2 1.6 24 11.6 28.4 22.2s4.4 120.2 0 128.6l-3.2 6h-483.4l-3.2-9.4zM338.6 399.8c8.6-2.4 20.2-11.8 24.6-20 1.6-3 2.8-11 2.8-17.8 0-14-3-21-12.8-29.6-14.8-13-37.2-12-50.4 2-9 9.6-11 14.2-11 27.4-0.2 17.8 9.2 31.4 25.4 37.2 9.6 3.4 11.8 3.6 21.4 0.8zM500.8 187.2c9.2-3.8 15.2-13 15.2-23.2 0-12-4.8-19.6-15.2-24.4-7.8-3.4-10-3.6-16.4-1.4-9.6 3-11.8 5-16.8 14.4-6.2 12.6-2 25.6 11 33.4 7.6 4.8 13.2 5 22.2 1.2z" />
<glyph unicode="&#xe91c;" glyph-name="add_switch" d="M280.2 705c-10.8-3.4-19.6-11.4-24.4-22.6-3.6-8.4-3.8-17.2-3.8-211.4 0-223.4-0.6-213 12.6-226.6 12.4-12.8 5-12.4 227.4-12.4s215-0.4 227.4 12.4c13.2 13.6 12.6 3.4 12.6 225.2 0 152.6-0.6 203-2.4 209-3.8 12.8-16.4 24.4-29.2 27.2-16.8 3.6-408.6 2.8-420.2-0.8zM641.4 621.4c16.8-16.8 30.6-31.8 30.6-33.4 0-1.4-13.8-16.6-30.4-33.4-27.4-27.6-31.2-30.8-36.6-30.2l-6 0.6-2 38-32.4 0.6-32.6 0.4v40l32.6 0.4 32.4 0.6 0.6 21c0.2 11.6 0.8 22.2 1.4 23.6 0.4 1.2 3.4 2.4 6.4 2.4 4.4 0 11.4-6 36-30.6zM407.6 593.6c1.6-1.6 2.4-9.8 2.4-24v-21.6l32.6-0.4 32.4-0.6v-38l-32.4-0.6-32.6-0.4v-17.6c0-18.2-1.6-22.4-8.6-22.4-5.6 0-65.4 58-65.4 63.4 0 3.2 9.2 13.6 30.6 34.6 30 29.4 35.4 33.2 41 27.6zM641.4 453.4c16.8-16.8 30.6-31.8 30.6-33.4 0-1.4-13.8-16.6-30.4-33.4-27.4-27.6-31.2-30.8-36.6-30.2l-6 0.6-2 38-32.4 0.6-32.6 0.4v40l32.6 0.4 32.4 0.6 0.6 21c0.2 11.6 0.8 22.2 1.4 23.6 0.4 1.2 3.4 2.4 6.4 2.4 4.4 0 11.4-6 36-30.6zM407.6 425.6c1.6-1.6 2.4-9.8 2.4-24v-21.6l32.6-0.4 32.4-0.6v-38l-32.4-0.6-32.6-0.4v-17.6c0-18.4-1.6-22.4-9-22.4-5.6 0.2-65 58-65 63.6 0 5.4 59.4 64.4 65.2 64.4 2.2 0 5-1 6.4-2.4z" />
<glyph unicode="&#xe91d;" glyph-name="card_view" d="M164.4 828.8c-11.8-5.8-21.4-15.8-26.8-28.2-3.6-8-3.6-14.6-3.2-129l0.6-120.6 5.4-9.4c7-11.6 17.6-20.6 29.4-24.6 13.4-4.6 235-4.6 248.4 0 11.8 4 22.4 13 29.4 24.6l5.4 9.4v246l-5.4 9.2c-6.4 10.8-15.4 19-26.6 24-7.4 3.4-16.2 3.8-127.2 3.8h-119l-10.4-5.2zM396 674v-102h-204v204h204v-102zM581 830.2c-11.2-5-20.2-13.2-26.6-24l-5.4-9.2v-246l5.4-9.4c7-11.6 17.6-20.6 29.4-24.6 13.4-4.6 235-4.6 248.4 0 11.8 4 22.4 13 29.4 24.6l5.4 9.4 0.6 120.6c0.4 114.4 0.4 121-3.2 129-5.4 12.4-15 22.4-26.8 28.2l-10.4 5.2h-119c-111 0-119.8-0.4-127.2-3.8zM810 674v-102h-204v204h204v-102zM169 416.8c-11-3.8-21.8-13.2-28.6-24.4l-5.4-9.4v-246.4l6-9.6c7-11.4 20-22 30.6-25 10.2-2.8 234.6-2.8 244.8 0 10.6 3 23.6 13.6 30.6 25l6 9.6v246.4l-5.4 9.4c-6.6 11-18 20.6-29.6 24.6-12.4 4.4-236.8 4.2-249-0.2zM396 260v-102h-204v204h204v-102zM583 416.8c-11-3.8-21.8-13.2-28.6-24.4l-5.4-9.4v-246.4l6-9.6c7-11.4 20-22 30.6-25 10.2-2.8 234.6-2.8 244.8 0 10.6 3 23.6 13.6 30.6 25l6 9.6v246.4l-5.4 9.4c-7 11.6-17.6 20.6-29.4 24.6-12.8 4.4-236.8 4.2-249.2-0.2zM810 260v-102h-204v204h204v-102z" />
<glyph unicode="&#xe91e;" glyph-name="geo" d="M780.8 818c-36-14.6-625.8-280-630.6-283.8-3.8-3-9.4-10-12.8-16-11.6-20.4-7.2-47 10.4-62.8 4.6-4.2 10.4-8.4 12.8-9.6 2.4-1 60.4-15.6 129-32.6 68.4-16.8 124.8-31 125.2-31.4s18-56.2 39.2-123.8c21.2-67.6 40.2-126.2 42.2-130.2 4.4-8.8 15.4-18.8 25.2-22.8 3.8-1.6 13.2-3 20.4-3 16.2 0 31.8 7 40.6 18 6.4 8.4 265 626.6 267.6 640 1.8 10-0.2 25-4.8 33.4-4.2 8.2-17.2 20-25.6 23.6-8 3.2-31.6 4-38.8 1zM669.6 462.4c-69.4-166.4-126.8-302.4-127.6-302.4-0.6 0-20 60.2-43 133.6l-41.8 133.6-133.6 32.8c-73.4 18.2-133.6 33.4-133.6 34 0 1.2 604.6 272 605.4 271.2 0.2-0.2-56.4-136.4-125.8-302.8z" />
<glyph unicode="&#xe91f;" glyph-name="list" d="M150 784.2c-10.8-5.6-16-14.8-16-28.2s5-22.4 16-28.8c7-4.2 7.6-4.2 348-4.2s341 0 348 4.2c3.8 2.2 9 7.2 11.6 11 4 5.6 4.6 8.8 4 18.8-0.8 14.2-6 22.8-16.4 27.8-6.2 3-37.4 3.2-347.6 3.2-327.8 0-341-0.2-347.6-3.8zM155.4 637.2c-14.8-5.4-21.4-15.2-21.4-31.4 0-13 5.6-22.4 16.2-27.8 7.4-4 12.8-4 227.4-4h219.8l6.6 4.6c9.8 6.6 14.4 14 15.4 24.8 1.4 12.6-4.4 24.4-14.8 30.8l-7.6 4.8-217 0.4c-179.6 0.4-218.4 0-224.6-2.2zM153 487.2c-3.2-1.6-8.6-5.6-12-9-5.6-6-6-7.6-6-21.2 0-14.2 0.2-15 7-22 3.8-3.8 10-8 14-9.2 4.6-1.2 113-1.8 324.2-1.4l317.2 0.6 7.2 5.6c9.6 7.4 13.4 15 13.4 27 0 10.8-5 20-14.6 27.2l-5.6 4.2-319.4 0.4c-263.8 0.4-320.4 0-325.4-2.2zM150.4 336.6c-10.6-5.2-16.4-15.4-16.4-28.8 0-13.2 5-22.2 16-28.6 7-4.2 8-4.2 293.2-4.2h286l8.2 5.4c20.2 13.2 19.6 41-1.2 55l-6.8 4.6h-286.2c-261 0-286.8-0.4-292.8-3.4zM155.4 189.2c-14.8-5.4-21.4-15.2-21.4-31.6 0-8 1.2-12.4 4.8-17.8 10.2-15-20.2-13.8 359.4-13.8h340.4l8.4 5c20.8 12.2 20.2 43.4-1 55.8-7 4.2-8 4.2-345 4.6-281.6 0.4-339.2 0-345.6-2.2z" />
<glyph unicode="&#xe920;" glyph-name="network_configuration" d="M429 820.2c-10-4.4-19.2-13.4-24.2-23.6-3.2-6.2-3.8-13.2-4.4-39.8l-0.8-32.2-7-2.4-7-2.6-20.4 20.2c-12.2 11.8-24.2 21.8-29.4 24-10.8 5-30.8 5.6-41.4 1-10-4-89-82.8-94.4-94-5.4-11-5.4-30.8 0.2-42.6 2.2-5.2 12.2-17.2 24-29.4l20.2-20.4-2.6-7-2.4-7-32.2-0.8c-35.4-0.6-40.8-2.2-53.2-14.2-13.6-13.2-14-15.4-14-84.4s0.4-71.2 14-84.4c12.4-12 17.8-13.6 53.2-14.2l32.2-0.8 2.4-7 2.6-7-20.2-20.4c-11.8-12.2-21.8-24.2-24-29.4-5.6-11.8-5.6-31.6-0.2-42.6 5.4-11.2 84.4-90 94.4-94 10.6-4.6 30.6-4 41.4 1 5.2 2.2 17.2 12.2 29.4 24l20.4 20.2 7-2.6 7-2.4 0.8-32.2c0.6-35.4 2.4-41.6 14.4-53.6 13-13.2 15.6-13.6 84.2-13.6s71.2 0.4 84.2 13.6c12 12 13.8 18.2 14.4 53.6l0.8 32.2 7 2.4 7 2.6 20.4-20.2c12.2-11.8 24.2-21.8 29.4-24 10.8-5 30.8-5.6 41.4-1 10 4 89 82.8 94.4 94 5.4 11 5.4 30.8-0.2 42.6-2.2 5.2-12.2 17.2-24 29.4l-20.2 20.4 2.6 7 2.4 7 32.2 0.8c35.4 0.6 40.8 2.2 53.2 14.2 13.6 13.2 14 15.4 14 84.4s-0.4 71.2-14 84.4c-12.4 12-17.8 13.6-53.2 14.2l-32.2 0.8-2.4 7-2.6 7 20.2 20.4c11.8 12.2 21.8 24.2 24 29.4 5.6 11.8 5.6 31.6 0.2 42.6-5.4 11.2-84.4 90-94.4 94-10.6 4.6-30.6 4-41.4-1-5.2-2.2-17.2-12.2-29.4-24l-20.4-20.2-7 2.6-7 2.4-0.8 32.2c-0.6 35.4-2.4 41.6-14.4 53.6-13 13.2-15.6 13.6-84.2 13.6-55.8 0-62.8-0.4-70-3.8zM548 730.4v-43.6l14.4-3.8c7.8-2 24.8-9 37.4-15.2l23.2-11.6 30.6 30.4 30.4 30.4 33.4-33.6 33.6-33.4-30.4-30.4-30.4-30.6 11.6-23.2c6.2-12.6 13.2-29.6 15.2-37.4l3.8-14.4h87.2v-98h-87.2l-3.8-14.4c-2-7.8-9-24.8-15.2-37.4l-11.6-23.2 30.4-30.6 30.4-30.4-33.6-33.4-33.4-33.6-30.4 30.4-30.6 30.4-23.2-11.6c-12.6-6.2-29.6-13.2-37.4-15.2l-14.4-3.8v-87.2h-98v87.2l-14.4 3.8c-7.8 2-24.8 9-37.4 15.2l-23.2 11.6-30.6-30.4-30.4-30.4-33.4 33.6-33.6 33.4 30.4 30.4 30.4 30.6-11.6 23.4c-6.6 13-13.4 29.8-15.4 37.6l-3.6 14h-87.2v98h87.2l3.8 14.4c2 7.8 9 24.8 15.2 37.4l11.6 23.2-30.4 30.6-30.4 30.4 33.6 33.4 33.4 33.6 30.4-30.4 30.6-30.4 23.2 11.6c12.6 6.2 29.6 13.2 37.4 15.2l14.4 3.8v87.2h98v-43.6zM467.2 593c-37.8-9.6-71.4-37.4-87.6-72.6-9.2-20.2-12.2-36.4-11.2-61.4 1.6-35.8 12.8-62 37.8-86.8 15.2-15.2 29.4-24.4 50.2-31.8 13.2-4.8 17.2-5.4 42.6-5.4s29.4 0.6 42.6 5.4c20.8 7.4 35 16.6 50.2 31.8s24.4 29.4 31.8 50.2c4.8 13.2 5.4 17.2 5.4 42.6s-0.6 29.4-5.4 42.6c-7.4 20.8-16.6 35-31.8 50.2-15.4 15.4-29.6 24.4-50.2 31.6-18.4 6.6-55.4 8.4-74.4 3.6zM514.4 543.8c42-8.8 71.2-50.8 63.8-91.6-8.2-43.8-50.8-74.4-92.4-66.4-33.8 6.6-59.2 32.2-66 66-7.6 39.4 20.4 81.6 61.2 91.4 13 3.2 20.4 3.4 33.4 0.6z" />
<glyph unicode="&#xe921;" glyph-name="opacity_add" d="M441.8 823c-137.8-22.4-249.4-117.8-291.4-249.2-13.4-41.4-15.2-55.8-15.2-110.8 0-44.6 0.4-52.2 4.4-71 28.8-132.8 120.6-235.2 246.6-275.6 41.4-13.4 55.8-15.2 110.8-15.2 44.6 0 52.2 0.4 71 4.4 132.8 28.8 235.2 120.6 275.6 246.6 13.4 41.4 15.2 55.8 15.2 110.8 0 44.6-0.4 52.2-4.4 70.8-12.4 56.4-33.8 104-66.2 147.4-52.8 70.8-130 119.6-219.2 138.8-26 5.6-100.2 7.4-127.2 3zM550 770.8c23.4-4 59.8-15.6 82.6-26.6 60.6-29 117.2-85.8 146.2-146.8 40.6-85.8 40.6-183 0-268.8-28.8-60.8-85.6-118-145.4-146.4-122.6-58.2-261.2-34.8-356.6 60.6-94.6 94.8-118.8 233.8-61.6 354.6 29 61 85.6 117.8 146.2 146.8 32.4 15.4 73.6 26.8 111.6 30.6 14.8 1.4 58-0.8 77-4zM491.8 600.6c-11.4-7-11.8-9.4-11.8-67.4v-53.2h-53.2c-45.6 0-54-0.4-58.8-3.2-15.4-9.2-16-33.8-1.2-43.6 4.4-2.8 12.2-3.2 59.2-3.2h54v-53c0-58.4 0.6-62.2 12-68 3.2-1.6 10-3 15.2-3 7.8 0 10.2 1 16 6.8l6.8 6.8v110.4h110.4l6.8 6.8c5.8 5.8 6.8 8.2 6.8 16 0 5.2-1.4 12-3 15.2-5.8 11.4-9.6 12-68 12h-53v54c0 47-0.4 54.8-3.2 59.2-7 10.4-24.4 14-35 7.4z" />
<glyph unicode="&#xe922;" glyph-name="opacity_minus" d="M441.2 819c-148.8-24.2-265-135.4-297.6-285-4-18.8-4.4-26.4-4.4-71s0.4-52.2 4.4-71c31.4-144.2 138.2-251 282.4-282.4 18.8-4 26.4-4.4 71-4.4s52.2 0.4 71 4.4c144.2 31.4 251 138.2 282.4 282.4 6.6 31.2 6.6 110.8 0 142-31.4 144-138 250.8-281.8 282.2-25.8 5.6-100 7.2-127.4 2.8zM557 766c61.4-13 114.4-41.4 158-85 43.8-43.8 71.8-96 85.2-159 6.6-30.4 6.6-87.6 0-118-13.4-63.2-41.4-115-85.2-159-43.8-43.8-96-71.8-159-85.2-30.4-6.6-87.6-6.6-118 0-63 13.4-115.2 41.4-159 85.2-43.8 44-71.8 95.8-85.2 159-6.6 30.4-6.6 87.6 0 118 13.4 63 41.4 115.2 85.2 159 48.8 48.8 110.8 79.4 180 88.8 22.4 3.2 74.8 1 98-3.8zM369.6 476.8c-15.6-8.4-15.2-35.6 0.4-43.8 5-2.6 23.6-3 137.2-3h131.2l6.8 6.8c6 6 6.8 8 6.8 17.6 0 12-3.2 18-12 22.6-8.6 4.4-262.2 4.4-270.4-0.2z" />
<glyph unicode="&#xe923;" glyph-name="rotate_left" d="M273 844c-3.2-0.6-8-2.6-10.6-4.2-10.4-6.4-11.8-12-22.4-84.6-5.4-38.2-10-74.2-10-80 0-12.8 5.8-22.6 16-27.4 4.2-2 38.4-7.8 83.2-14l76-10.6 8 4c11.2 5.8 16.8 15 16.8 27.6 0 11.4-4.6 21-13.2 26.4-3.4 2.4-19.4 5.6-49.4 9.8l-44 6.2 10.8 7.8c85 61.2 219.6 64.8 315.6 8 119.6-70.6 174.8-207.4 137.2-339.4-13.4-47.2-39-89.6-76-126.6-34.8-34.8-71.8-57.4-118.8-73-31.8-10.6-57-14.6-92.2-14.6s-60.4 4-92.2 14.6c-47 15.6-84 38.2-118.8 73-57.6 57.4-87 128-87.2 208.2v28.2l-26 25.8c-19.6 19.6-26.4 25.2-27.6 23-4.6-7.2-7.2-37.2-7-80.2 0-38.8 0.6-47.8 4.6-66 24-112.4 95.4-204 197.2-253 25-12 56.4-22.6 87-29.4 18.6-4 26.4-4.4 70-4.4s51.4 0.4 70 4.4c30.6 6.8 62 17.4 87 29.4 101.8 49 172.8 140.2 197.4 253 4 18.6 4.4 26.4 4.4 70 0 43.4-0.4 51.4-4.4 70-16.4 75.2-51 137.8-104.8 189-27.6 26.4-52.4 43.8-86.6 61-46.4 23.2-86.4 34.2-137.8 38-75.4 5.2-147-10.8-203-45.6-9.2-5.8-17.2-10-17.8-9.6-0.4 0.6 0.6 11.2 2.4 23.6 4.2 29 4 40.4-0.2 48-6.4 10.6-21 16.6-33.6 13.6z" />
<glyph unicode="&#xe924;" glyph-name="rotate_right" d="M712.6 840c-13.2-3-21.8-12-23.8-24.2-0.6-3.8 0.8-19.2 3-34.2 2.4-15 4.2-27.8 4.2-28.4s-6 2.8-13.4 7.6c-44.6 28.8-95.6 44.8-155.4 49.2-185.8 13.2-346.2-106.4-385.6-288-4-18.6-4.4-26.6-4.4-70 0-43.6 0.4-51.4 4.4-70 31.4-144.6 140.6-252.2 286.4-282.2 20.4-4.2 28.4-4.8 70-4.8s49.6 0.6 70 4.8c145.8 30 255.4 138 286.2 282.2 4 18.2 4.6 27.2 4.6 66 0.2 43-2.4 73-7 80.2-1.2 2.2-8-3.4-27.4-23l-25.8-25.6-1.2-35.4c-0.8-27.6-2.2-39.6-6-56.2-38.2-161-196.6-261.2-357.4-226-115.8 25.2-204.2 113.6-230.4 230.2-6.2 27.8-6.6 89-1 115.8 26 121.8 117.6 212.2 240 236.4 26.4 5.2 79.8 6.2 106.4 1.8 46.4-7.4 88.8-24.4 117.8-47l8-6.2-44.4-6.2c-35.6-5.2-45.4-7.2-50.4-10.8-8.2-5.8-12-13.8-12-25.4 0-13 5.6-21.8 17.4-27l9.4-4.2 75 10.4c79.2 10.8 88.8 13.2 95.4 23.2 1.8 2.8 3.8 9.4 4.2 14.6 1 10.2-18 145.8-21.6 155-2.8 6.8-14.8 17.4-19.8 17.4-2 0-4.8 0.4-6.4 0.8-1.4 0.4-5.6 0-9-0.8z" />
<glyph unicode="&#xe925;" glyph-name="Floor" d="M816.4 795.4c-3.6-3.6-6.4-7.4-6.4-8.4 0-1.2 4.4-5.2 9.6-9s10.2-8.2 11-9.4c2.4-3.8 9-3 11.4 1.2 1 2.2 3.8 4.6 6 5.2 3.8 1.2 5.8 9 2.4 9-1 0-6.2 4-11.6 9s-11.2 9-12.8 9c-1.8 0-6-3-9.6-6.6zM180 530v-248h82v496h-82v-248zM770 743.6c-7.2-8-15.4-17-18.4-20.2-3.2-3.2-5.6-6.4-5.6-7.4s-1.6-3-3.6-4.4c-2-1.4-10-10.2-17.6-19.6-15-18-26.4-31.2-35.2-40.4-7.4-7.8-11-20-8-26.6 2-4.2 3.6-5 11.2-5 5 0 10 1.2 11.6 2.8 1.4 1.6 13 13.8 25.6 27.4 12.6 13.4 29.8 31.8 38.2 40.6 8.4 9 19.2 20.6 24 26s10.8 11.8 13.4 14.2c4.6 4.6 6 11 2.4 11-1.2 0-4.2 2-6.6 4.6-5.2 5-14.4 11.4-16.8 11.4-1 0-7.4-6.4-14.6-14.4zM559.2 698.6c-0.8-1-58.2-2.6-127.4-3.8s-126.4-2.8-127.2-3.6c-0.8-0.8-1.8-104-2.2-229.4l-0.8-227.8h35c21.4 0 35.6 0.8 36.4 2 0.6 1.2 3 2 5.2 2s8.4 4.4 14 10l10 10h24.8c20.8 0 25-0.4 25-3 0-1.6 0.8-3 1.8-3 0.8 0 3.2-4.2 5.2-9.4 2-5.4 4.2-10.4 5.2-11.4 1.8-2 157.8 2.6 160.8 4.8 1.2 0.8 22.8 2.2 48 2.8 69 2 65 1.2 76.4 16.6 5.2 7.2 11.6 14.8 14.2 17.2 2.4 2.2 4.4 5.2 4.4 6.6s1.6 3.8 3.6 5.2c1.8 1.4 5.6 5.8 8.4 9.6l5 7 0.6 173.6c0.8 158.6 0.6 173.4-2.4 173.4-1.8 0-3.2-1-3.2-2 0-1.2-2.4-4.6-5.4-7.8-3.2-3.2-11.4-12.4-18.6-20.4-7.2-7.8-15.6-17.4-19-20.8-3.2-3.6-11.8-13-19-21.2-23.6-26.8-24.8-27.8-32.2-27.8-8.2 0-25.6-4.6-35.2-9-8.8-4.2-14.4-2.8-20 5.4-2.6 3.6-10 12.4-16.6 19.4-10.6 11.4-15.2 20.2-10.4 20.2 1 0 3.4 5.6 5.2 12.4 2 7 4.4 13.2 5.6 13.8 1.2 0.8 2.6 8 3.2 16 1 15.6 2 17.4 11.8 22.4 3.4 1.8 8.2 6.6 10.8 10.8s5 8 5.8 8.6c0.6 0.6 4.2 5.4 8 10.6 3.8 5.4 8.6 11.4 10.6 13.6 1.8 2 3.4 4.8 3.4 5.8 0 2.4-106.4 2.8-108.8 0.6zM539.4 642.2c2.4-1.8 5.4-6.2 6.6-9.8 3-8.2-2.4-20.2-10.8-24.2-9.8-4.6-19.4-0.4-24.6 10.8-2.2 5-3.4 9-2.4 9s1.8 1.8 1.8 3.8c0 4.8 7.6 13.4 13 14.8 5.2 1.2 10.8-0.4 16.4-4.4zM548 588c3.8-4.2 15.2-16.2 25-27 10-10.8 24-26 31.2-33.8s15.8-17.2 19-20.8c3.2-3.8 7.4-8.2 9.4-10 3-3 3.4-8.8 3.4-63v-59.8l72 1.2 8-8.6c6.8-7.4 8-9.8 8-17.6s-1-10-8-16.8l-7.8-7.8-80.6-0.4c-131.4-0.8-274.2 0.8-278.4 3-11 5.6-17.4 19.4-13 27.6 5.8 11 6.4 11.2 45.2 13.2 20 1 37 2.4 38 3.2 1.4 1.6 3.8 44.2 5.8 104l1 29.8 46.4 46.4 46.2 46.4 11.2-0.8c9.6-0.8 12-2 18-8.4zM543.2 309c1.8-1.6 4-3 5-3 3.2 0 7.8-13 6.4-18.2-3-12.2-16.8-19.6-30.2-15.8-15.4 4-20.4 23.4-9 34 3.2 3 7.6 6 9.8 6.6 5.8 1.6 14.6-0.2 18-3.6zM491.6 437.6c0.8-43 2.4-59.6 5.6-59.6 1.6 0 4.6-1.8 6.8-4 5-5 8.4-5 11.4 0 3.6 5.8 15.8 7.4 23.6 3 5.8-3 7.6-3 16.2-0.6l9.8 2.8 0.6 29.8c0.4 16.6 0 35.6-0.6 42.6l-1.4 12.4h-72.6l0.6-26.4zM860 307.6c-7.2-7.8-35-36.6-62-64.2s-56.2-57.4-65-66.6c-8.8-9-26.6-27.4-39.4-40.6-13-13.2-23.6-24.6-23.6-25.2s46.8-1 104-1h104v101.6c0 95-0.6 110.6-3.8 110.2-0.6-0.2-7-6.6-14.2-14.2zM851.8 170l0.2-29h-111.6l24.6 25c27.2 27.6 55.2 56.6 72.6 75l11.4 12 1.2-27c0.8-14.8 1.4-40 1.6-56zM182 222v-22h78v44h-78v-22zM394.4 199.2c-8.4-4.6-12.4-13.2-12.4-26.2 0-19.8 8.6-28.8 27.6-29 10 0 28.4 6.6 25.6 9.4-0.6 0.6 0.2 2.4 1.8 4 2 2 3 7.2 3 15.6s-1 13.6-3 15.6c-1.6 1.6-2.4 3.4-1.8 4s-2.4 3-7 5.2c-9.2 4.8-26.6 5.6-33.8 1.4z" />
<glyph unicode="&#xe926;" glyph-name="home" d="M495 676.6c-6.2-3.4-230.2-185.8-243.6-198.4-4.2-4-9-9.6-10.6-12.6-3.6-7-3.6-26.2 0.2-33.4 4.2-8.4 14.2-16 24.2-18.6l8.8-2.4v-101.8c0-83.6 0.6-102.6 2.8-107 3.2-6.2 12.2-14.8 18.6-18.2 3.2-1.6 63.8-2.2 217.6-2.2h213.4l8 4.4c4.4 2.6 10.2 8.2 12.8 12.8l4.8 8.2v203.8l8.8 2.4c17.4 4.6 27.4 17.6 27.4 35.4 0 12.6-3.2 19.4-13.6 29.2-14.8 14-237.8 195.2-244 198.4-8.2 4.4-27.6 4.4-35.6 0zM634.6 542.4l111.6-91.4-32.2-1.2v-229.8h-124v55.6c0 34.2-0.8 58.4-2.2 63.4-1.4 4.8-5.4 11-10 15.4-11 10.4-21.4 12-71.4 11.2-47.4-0.6-52.6-2.2-63.4-17.4l-6-8.6-1.2-119.6h-123.8v229.8l-32 1.2 232.8 190.6 5-4c3-2.2 55.4-45 116.8-95.2zM550 273v-53h-74v106h74v-53z" />
<glyph unicode="&#xe927;" glyph-name="Report" d="M379 748.8c-8.8-4.6-150.6-146.4-155.2-155.2-3.6-7.2-3.8-13.8-3.8-220.6 0-205.8 0.2-213.4 3.8-220.6 4.4-8.6 12.6-16.6 21.6-21.2 5.8-2.8 30.4-3.2 256.6-3.2s250.8 0.4 256.6 3.2c9 4.6 17.2 12.6 21.6 21.2 3.6 7.2 3.8 15.8 3.8 287.6s-0.2 280.4-3.8 287.6c-4.4 8.6-12.6 16.6-21.6 21.2-5.8 2.8-25 3.2-190 3.2-162.4-0.2-184.2-0.6-189.6-3.2zM738 440v-266h-472v398h134v134h338v-266zM352 638v-18h-37l18 18c9.8 10 18.2 18 18.4 18 0.4 0 0.6-8 0.6-18zM527 644.6c-8.8-4.6-16.8-12.6-21.2-21-3.4-6.8-3.8-12.2-3.8-64.6 0-64.4 0.2-65.4 15.6-79.4 11.8-10.6 21.6-12 80-11.2 55.2 0.8 58.2 1.4 71 14.6 11.8 12.2 12.4 15.8 12.4 77 0 52.6-0.2 55.4-4.4 63-5 9.4-13 17.2-22 21.8-9.4 4.8-118.6 4.6-127.6-0.2zM634 559v-43h-86v86h86v-43zM345 409.2c-10-4.4-14-10.4-14-21.2s4-16.8 14.4-21.2c9.6-4.2 303.6-4.2 313.2 0 10.4 4.4 14.4 10.4 14.4 21.2s-4 16.8-14.4 21.2c-9.4 4-304.6 4-313.6 0zM345 305.2c-10-4.4-14-10.4-14-21.2 0-11.4 5.6-18.8 16.8-22.2 4.8-1.2 51.6-1.8 136.6-1.4 127.6 0.6 129.4 0.6 135 4.8 12.2 9 12.2 28.6 0 37.6-5.6 4.2-7.2 4.2-137 4.6-106 0.4-132.6 0-137.4-2.2z" />
<glyph unicode="&#xe928;" glyph-name="reset1" d="M382.2 800.8c-110.6-18.6-202.8-112.4-221.2-225.2-3.8-23.8-3.8-69.4 0-93.2 8.8-54.4 35-106 74.2-146.4 40-41.2 87.6-67.2 143.8-78.4 28.6-5.8 74.4-5.6 102.4 0.2 39.2 8.2 79 25.4 107.6 46.8l14 10.4 95.8-101c52.8-55.6 97-101.6 98-102.4 3.8-2.6 14.8-1.6 18 1.6 1.8 1.6 3.2 6.2 3.2 10 0 6.4-3.2 10.4-32.4 41.2-18 19-61.6 64.8-97 102.2l-64.6 68 7 7.8c32.2 35.6 55.4 81.4 66.2 131.6 5.4 24.2 5.4 85.8 0 109.8-12.2 56-36.8 101.8-76.2 141.2-40.4 40.8-89.6 66.2-145.8 76-22 3.8-69.8 3.6-93-0.2zM471.2 773c101.4-17.8 182.4-100 199.6-202.8 20.2-119.4-48.6-235.4-163.6-276-24.4-8.6-47.8-12.4-77.2-12.6-142.8-0.6-256 124-243.8 268.4 9.4 109.8 88.6 199.2 196.8 222 23 4.8 63.6 5.2 88.2 1zM329.4 590.4c-7-7.8-3-21 7.2-23.4 2.4-0.6 46-0.8 96.6-0.6 87.6 0.6 92.6 0.8 96.6 4.4 5.2 4.8 5.6 15.4 0.6 19.8-3.4 3-13.2 3.4-100.8 3.4-91.4 0-97.2-0.2-100.2-3.6zM329.4 504.4c-2-2-3.4-7-3.4-11 0-13.8-2.8-13.4 104.4-13.4 93 0 95.8 0.2 99.6 4 2.2 2.2 4 6.6 4 10s-1.8 7.8-4 10c-3.8 3.8-6.6 4-100.6 4-91.2 0-97-0.2-100-3.6z" />
<glyph unicode="&#xe929;" glyph-name="SiteView" d="M444.6 668.8c-112.4-16.4-211.2-83.2-270.8-183.2-15-25.6-26.4-52.8-25-60.2 0.6-3.2 6-16 12-28.2 45-92.6 129-165 226.2-195 43.4-13.2 57-15 113-15s69.6 1.8 113 15c97.2 30 181.2 102.4 226.2 195 14.8 30.4 14.8 30.8 5 53-28 63.8-78.6 122.8-139.2 162.2-45.2 29.4-97.4 49-151.2 56.6-25.8 3.6-83.8 3.6-109.2-0.2zM528.4 587.2c31.4-6 57-19.2 80.2-41 32.8-31 49.6-70.6 49.6-117.2s-16.8-86.2-49.6-117.2c-89.2-84.2-234.4-40.4-262.8 79.4-8 33.6-4 74.6 10.2 106 29.6 65.2 102.6 103.4 172.4 90zM483.2 525.8c-6.6-1-17.8-4.4-25-7.8-35.2-16.6-54.2-47.6-54.2-89 0-31 12-59 32.8-76 35.4-29 91-29 126.4 0 20.8 17 32.8 45 32.8 76 0 23-4.8 39.8-16.2 56.8-14.4 21.6-38 36.2-64.8 40.2-15.8 2.2-15.6 2.2-31.8-0.2z" />
<glyph unicode="&#xe92a;" glyph-name="upgrade" d="M488.6 751.4c-8-4.4-105-99.8-150.6-148l-13-13.8v-12c0-11.6 0.2-12 9.4-20.8 15.6-14.6 15.6-14.6 56.4 27.8l35.2 36.4v-201.6c0-223.8-0.8-209 13-216.6 8-4.2 23.2-3 29.4 2.4 10 9 9.6 1.2 9.6 241.4v224.8l12 9.4c10.6 8.4 12.6 9.2 15.6 6.8 1.8-1.4 7.2-5.6 12-9.6l8.4-6.8v-224.6c0-247.4-0.6-234.6 12.4-242.6 12.4-7.6 31.2-3.4 38 8.4 2 3.6 2.8 44.6 3.6 205.4l1 201 27-30.2c14.8-16.6 29.4-31.6 32.4-33.4 6.8-4.2 20.4-4.2 27.8 0.2 8 4.8 12.4 15 11.2 26-1 10.2-1 10.2-74 83.6-54.4 54.8-83.6 82.8-90 86.4-2.4 1.4-8.4 2.4-13.4 2.4s-11-1-13.4-2.4zM288.8 184c-2.2-0.8-6.6-4.4-9.4-8-4.4-5.2-5.4-8.4-5.4-17 0-9.4 0.8-11.6 6.8-17.8l6.6-7.2h429l6.8 6.8c6.2 6.2 6.8 8 6.8 18s-0.8 12-6.8 18.8l-6.8 7.4-211.8 0.4c-116.4 0.2-213.4-0.4-215.8-1.4z" />
<glyph unicode="&#xe92b;" glyph-name="user" d="M469 728.2c-48.6-14-88.4-61.2-101-119.8-10.8-50.8-4.8-102 17.2-144.4 30-58.4 85.6-87.4 143.4-75 82 17.4 131.4 116.4 109.4 219.4-12.8 59.6-54 107.8-103.2 120.4-16.6 4.4-50 4-65.8-0.6zM537.2 679.2c32.2-16 53-51.6 59-100.6 7.2-59.8-18.2-118.6-60.2-139.2-12-6-14.4-6.4-33-6.4s-21 0.4-33 6.4c-42 20.6-67.4 79.4-60.2 139.2 5.6 46.8 26.2 83.2 55.8 99 15.8 8.4 24.6 10.4 42.2 9.4 12-0.6 17.6-2.2 29.4-7.8zM353 399.8c-25.8-6-57-20-78.2-35-15-10.6-37.6-34.6-46.6-49.4-15.8-26.6-24.2-56.4-25.6-91.8l-1.2-25.4 6.2-6 6-6.2h578.8l6 6.2 6.2 6-1.2 26.4c-3 71.6-37.4 125.4-100.4 157-20.6 10.2-46.6 18.4-63.2 19.8-12.6 1-13.4 0.8-20-5-6-5.4-6.8-7.2-6.8-16.2 0-14.6 5.4-19.4 27.2-24.2 39.8-8.8 69.6-26.4 89.4-52.8 14.2-19.4 21.4-36.8 27.4-66.6l1.4-6.6h-255.2c-140.4 0-255.2 0.6-255.2 1.6 0 0.8 1.8 9 4 18.4 10.2 42.2 36.2 74.4 75.2 93.2 13.4 6.4 41 14.8 49 14.8 2 0 6.6 2.6 10.2 5.8 5.8 5.2 6.6 7 6.6 16.2s-0.8 11-6.6 16.2c-5.4 4.8-8.2 5.8-16 5.6-5.2-0.2-13-1-17.4-2z" />
<glyph unicode="&#xe92c;" glyph-name="xen-location" d="M472 848.8c-30-5.6-41.6-8.2-56.6-13-117.2-38-207.8-137.8-236.6-260.8-5.2-22.4-5.6-27-5.8-67 0-42.4 0-43.4 6.8-69 13-50.8 28-85 59.6-135 108.2-172.4 185.6-267.6 238.6-293.6 15.4-7.6 43.6-8.8 60.4-2.4 44.6 16.6 105.2 86 201 230 71.4 107.4 86 135.8 102.8 201 6.8 25.6 6.8 26.6 6.8 69-0.2 40-0.6 44.6-5.8 67-31.4 134.6-136 239.8-267.8 269.2-14.4 3.4-27 4.4-58.4 4.8-22 0.4-42.2 0.2-45-0.2zM535 790c114.4-12.8 213.6-97.2 246.2-210 23.2-80.2 8.6-153.6-48.4-243.2-103.2-162.2-181.8-261.6-215.8-272.8-6-2-8.2-1.8-15.6 1.8-36.4 17.6-113.4 115.6-210.2 268-59.2 92.8-74 165-50.4 246.2 14 48.4 39.4 90.6 77.2 128 46.4 46 104.6 74.8 166 81.8 21.4 2.4 30.6 2.4 51 0.2zM481.8 675c-29.6-6-54-19.2-76.8-42-33-33-46.2-68-44.4-117 0.6-20.4 1.8-28 6.2-41 14.4-42.2 40.6-72.8 78.2-91 24-11.6 38-14.8 66-14.8s42 3.2 66 14.8c37.6 18.2 63.8 48.8 78.2 91 4.4 13 5.6 20.6 6.2 41 1.8 49-11.4 84-44.4 117-8.8 8.8-21.2 19-27.4 22.8-33.6 19.6-71.6 26.4-107.8 19.2zM533.2 615.2c33.6-9 61.8-38.8 69-72.8 2.8-14 1.4-36-3.4-50.4-8.2-24.6-31-48.4-56.2-58.2-16.6-6.6-46.6-6.6-63.2 0-16 6.4-34.6 21-43.8 34.6-26.6 39-22.4 88.2 10.2 121.6 23 23.4 57.2 33.4 87.4 25.2z" />
<glyph unicode="&#xe92d;" glyph-name="zoom-in" d="M407 779.2c-32.2-6.2-54.4-13.6-81.4-27.4-82-41.2-139.8-120.8-154.6-212.8-4-23.8-3.8-73.4 0-96.2 10.4-60.2 38.4-114.4 82-157.8 48.8-48.8 104.8-75.4 175-83 63.6-7 137.6 12.6 190.2 50.4 8.4 6 16.2 11.6 17.2 12.2 1.2 0.8 48.2-47 104.6-106.6 99.4-104.8 102.8-108 110-108 9.2 0 14 4.8 14 14.2 0 6.6-7.4 14.8-102 114.4-56 59-102 107.8-102 108.4 0 0.4 5 6.4 11.2 13.4 31 34.8 53.8 81.4 65.2 133 5.8 27 6.4 82.4 0.8 111.6-7.4 40-21.8 75.4-44.6 109.8-16 24.2-54.2 63.4-76.6 78.2-31 20.6-66.6 35.8-103 44.2-19.4 4.4-86.8 5.6-106 2zM504.4 747.8c104.2-21 186.2-106 204.4-211.6 4-24 4.2-64.2 0.2-87.4-9.2-53-32-98.8-68.6-137-69.8-73.4-171-99.8-264.2-68.6-91 30.2-155.4 104-175.6 200.8-4.8 23.2-4.8 72.4 0.2 96 18.2 87.6 74.6 158.4 153.4 192.2 47.6 20.6 99.4 26 150.2 15.6zM448.6 602c-7.8-3.2-8.6-8-8.6-52.8v-43.2h-87.8l-4.2-5.4c-3.2-4-4-7.2-3.2-11.6 2.2-10.6 4.2-11 51.6-11h43.6v-89.8l5.2-4c6.6-5.2 13-5.4 19-0.4 4.8 3.8 4.8 4.2 5.4 49l0.6 45.2h43.6c49 0 50.2 0.4 50.2 14.4 0 13-1.8 13.6-50.6 13.6h-43.4v40.8c0 43.6-1.2 51.4-9.2 55-5.8 2.6-6.2 2.6-12.2 0.2z" />
<glyph unicode="&#xe92e;" glyph-name="zoom-out" d="M402.2 814.8c-9.2-1.6-26.4-6-38-10-43.4-14.4-76.4-35-109.4-67.8-40.2-40-65.4-86.4-77.8-143-5.2-23.4-6.2-76.2-2.2-103 6.2-40.2 22.6-81.6 46.6-117.4 13-19.4 43.6-51 64.6-66.6 96.8-72.4 230.4-72.4 328.6-0.4 11.6 8.4 14 9.6 16.2 7.2 17-18.4 190.8-201.8 193.6-204.2 4.2-3.6 14.6-4.8 19-2 3.8 2.4 6.6 12 5 16.4-0.8 2.2-45.8 51-100 108l-98.6 104 11.4 13.6c23.8 28 42.8 61.4 53.8 95.6 11 33.2 13.8 51.4 13.8 89.8 0 35.4-2.4 54.6-11 83.6-29.6 100.6-117 178.6-219.6 196.2-23.4 4-72.2 4-96 0zM510.6 782.2c44.2-11.2 82.2-33 115.4-66.2 64.4-64 89.8-156.6 67-243.6-25.8-97.8-103.8-170.4-201-187.2-109-18.8-216.2 37.6-266.2 139.8-17.6 36.4-25.8 71.2-25.8 111 0 123.4 91 231.2 212 251 28 4.8 69.8 2.6 98.6-4.8zM348 546c-5.2-5.2-5.2-16.2-0.4-20.6 3.4-3 13.4-3.4 102.6-3.4 76.2 0 99.8 0.6 102.4 2.6 5.6 4.2 6.4 13.6 1.4 20l-4.2 5.4h-99c-96.2 0-99-0.2-102.8-4z" />
<glyph unicode="&#xe92f;" glyph-name="geo_location" d="M478 844c-101.6-21.8-185-108.6-203-211.6-4-22.6-3.8-62.2 0.2-82 3.6-18 14.2-50.2 22.8-69.6 11.8-26 69.4-114.8 107.6-166 40.6-54.2 69.2-83.4 93.8-95.6 12-6.2 32.8-7 46.6-2.2 22.8 8 51.8 36.6 92 90 41.8 55.8 101.2 146 113.2 172.4 9 19.6 19.8 52.4 23.6 71 4 19.6 4.2 59.6 0.2 81.8-18 104.2-104.8 193.4-207 212.6-23 4.4-67.8 4-90-0.8zM572 797.4c89.2-23.2 157.2-106.2 161.4-196.6 1.2-27.2-0.8-42.4-9.4-67.8-12.4-36.4-20.8-51.2-72.2-128.4-35.6-53.2-71.2-99.8-92.6-121.6-19-19.2-30.2-26.2-37.8-23.8-20.4 6.2-65 58.8-123.2 145.6-50.8 75.8-59.8 91.8-72.2 128.2-8.6 25.4-10.6 40.6-9.4 67.8 2.4 51.4 24.4 99.8 63.4 139.2 53.2 53.8 124.2 75 192 57.4zM508 718c-36.6-5.8-67.6-28.8-84-63-9-18.8-12-31.8-12-52 0-32 11.8-61 33.6-82.8 22.6-22.4 48-32.8 79.4-32.8 43.8 0 82 23.8 100.6 62.8 9.4 19.8 12.4 32.4 12.4 53.4 0 32-11.6 60.2-34 82.4-25.4 25.4-61.4 37.4-96 32zM339 353.2c-3.4-1.4-7.4-4.2-9-6.2s-12-10.8-23-19.8c-51-41-105.8-94.6-116.6-113.8-9.2-16.4-10.8-26-7.6-45.6 1.6-9.2 4.8-20.8 7.4-25.8 5.2-10.6 15-23.2 19.4-25 4-1.4 628.8-1.4 632.8 0 4.4 1.8 14.2 14.4 19.4 25 2.6 5 5.8 16.6 7.4 25.8 3.2 19.6 1.6 29.2-7.6 45.6-10.4 18.6-66.8 74-112.6 110.4-8.8 7.2-19.6 16.2-24 20.4-10 9.4-17.6 12.4-27.4 10.8-16.4-2.8-26-18.6-21.6-35 1.8-6.8 5.2-10.4 21.6-23.4 40-31.6 97.8-85.2 111.6-103.2 8.6-11.2 9.4-19.8 2.6-30.6l-4.2-6.8h-563.2l-4.2 6.8c-6.8 10.8-6 19.4 2.6 30.6 13.8 18 71.6 71.6 111.6 103.2 16.4 13 19.8 16.6 21.6 23.4 4.2 15.4-3.6 29.8-18.2 34-8.6 2.6-11.4 2.4-18.8-0.8z" />
<glyph unicode="&#xe930;" glyph-name="batteryAlert" d="M470 806.2v-24l-91.6-1.2-8.6-6c-4.6-3.2-10.6-10-13.2-14.8l-4.6-8.8v-469.4h378v469.4l-4.6 8.8c-2.6 4.8-8.6 11.6-13.2 14.8l-8.6 6-91.6 1.2v47.8h-142v-23.8zM699.4 751.2l5.6-4.8 0.6-146.2 0.4-146.2h-330l0.4 146.2 0.6 146.2 11.2 9.6h305.6l5.6-4.8zM352 194.6c0-64.2 0.2-65.8 4.6-73.4 2.4-4.4 7.8-10.6 12-14l7.8-6.2h329.2l7.8 6.2c4.2 3.4 9.6 9.6 12 14 4.4 7.6 4.6 9.2 4.6 73.4v65.4h-378v-65.4z" />
<glyph unicode="&#xe931;" glyph-name="bluetooth" d="M479.2 804.8c-49.8-9-103-37.8-137.8-74.6-34.2-36.2-58-83.4-66.4-131-4.4-26.2-4.4-254.2 0-280.4 13.4-76.8 63.8-145 133.2-180.8 38.6-19.8 72.8-28 117.8-28 44.2 0 78 7.8 115.4 26.8 70.8 35.8 122 104.4 135.6 182 4.4 26.2 4.4 254.2 0 280.4-18.2 103.6-102.2 187.6-205.8 205.8-22.2 3.8-70.2 3.8-92-0.2zM600.2 653.8l69.2-69.2-55.6-55.4c-30.8-30.6-55.8-56.8-55.8-58.4 0-1.8 25-28 55.6-58.6l55.6-55.6-81.6-81.6-81.6-81.8v110.4c0 110 0 110.4-4.2 110.4-2.6 0-18.4-14.6-46.2-42.4l-42-42.6-12.8 14c-7 7.8-12.6 14.4-12.6 15-0.2 2.2 11.4 14 13.6 14 1.4 0 1.8 1 1.2 2-0.6 1.2-0.2 2 1 2 3 0 8 5 8 8 0 1.2 18.4 20.6 41 43 22.6 22.6 41 42.4 41 44.2s-2.2 5-5 7.2c-2.6 2-4.8 4.6-4.4 5.6 0.2 0.8-22 23.8-49.4 50.8l-49.8 49.2 11.6 12.6c6.4 6.8 12.4 13.2 13.4 14.4s18.8-15 44.2-40.4c23.2-23.2 44.4-42.6 47-43.2l4.4-1v220.2l12.4-11.8c6.8-6.4 43.6-43 81.8-81zM548 585c0-49.2 0.4-57 3-57 2.8 0 55.2 51.8 56.6 56.2 0.4 1-3.4 6.6-8.6 12.4-12.6 14-46.4 45.4-49 45.4-1.2 0-2-20.2-2-57zM548 358c0-53 0.2-56 3.6-56 4.2 0 56.4 50.6 56.4 54.6 0 3.6-53.2 57.4-56.8 57.4-2.8 0-3.2-6.8-3.2-56z" />
<glyph unicode="&#xe932;" glyph-name="export" d="M483.8 822.6c-3.6-1-9.2-7.2-54-61.6-69.2-84-67.8-82-67.8-92 0-11.6 3.2-18.2 11.4-23.2 8.4-5.2 24.4-4.4 30.8 1.4 2.4 2 18.4 20.8 35.6 41.8l31.2 38 1-202c0.8-169.8 1.4-202.6 3.8-206.2 9.6-14.4 34.8-14.4 44.4 0 2.4 3.6 3 36.4 3.8 206.2l1 202 31.2-38c17.2-21 33.2-39.8 35.6-41.8 6.4-5.8 22.4-6.6 30.8-1.4 8.2 5 11.4 11.6 11.4 23.2 0 10.2 5 3.4-65.8 89-27.8 33.6-52.4 62-54.8 63.4-4.2 2.4-22.8 3.2-29.6 1.2zM207.4 569.2c-8.4-3.2-12.6-6-18.8-13.2l-4.4-5-0.2-209.4v-209.2l6.4-6.6c12.6-12.6-7.4-11.8 307.6-11.8s295-0.8 307.6 11.8l6.4 6.6v418.8l-5.6 6.2c-12.6 13.8-11.6 13.6-93.4 14.2-67.6 0.4-74.6 0.2-80.8-3-9.6-5-14.6-12.6-15.6-24-1-8.4-0.2-10.6 4.4-16.2 2.8-3.4 8.6-7.2 12.6-8.4 4.2-1.2 32.4-2 67-2h59.4v-352h-524v351.8l55.6 0.6c53.8 0.6 55.6 0.8 61.8 5.2 11.2 8 12.8 21.6 4.4 35.6-7.4 12.4-10.6 12.8-80.2 12.8-47-0.2-64.4-0.8-70.2-2.8z" />
<glyph unicode="&#xe933;" glyph-name="modem" d="M331 766.2c-6.4-3.8-21.2-19.2-28-29-2.2-3.2-5.8-8-8.2-11-12-15.2-28-48.6-35.4-74.2-8.8-30.4-10.8-89.4-3.8-118.2 7.6-31.4 23.2-71 29-73.4 0.8-0.4 1.4-1.6 1.4-2.6 0-3 21.6-31.8 30.2-40.2 12-12 26.6-8.8 29 6.6 1.2 6.4 0.2 8.2-7.8 17.4-20.8 23.4-39.8 57.4-46.6 84-11.4 43.6-9.8 93.8 4.2 132.4 9.6 26 27.4 54.6 48 76.4 8.8 9.2 11 13 11 18 0 7.6-1.2 9.6-8 14.2-6.2 4.2-7.6 4.2-15-0.4zM658 766.6c-6.8-4.6-8-6.6-8-14.2 0-5 2.2-8.8 11-18 20.6-21.8 38.4-50.4 48-76.4 14-38.6 15.6-88.8 4.2-132.4-6.8-26.6-25.8-60.6-46.6-84-8-9.2-9-11-7.8-17.4 2.4-15.4 17-18.6 29-6.6 8.6 8.4 30.2 37.2 30.2 40.2 0 1 0.6 2.2 1.6 2.6 5.6 2.4 21.2 42 28.8 73.4 7 28.8 5 87.8-3.8 118.2-7.4 25.6-23.4 59-35.4 74.2-2.4 3-6 7.8-8.2 11-6.8 9.8-23.6 27-29.4 30-6.8 3.6-7.6 3.6-13.6-0.6zM393 718.2c-7-4.2-26.2-25.6-30.4-33.8-1.6-3-4.2-6.8-5.8-8.6-1.6-1.6-2.8-4.6-2.8-6.4s-0.8-3.4-2-3.4c-1 0-2-1-2-2.4 0-1.2-1.6-6-3.8-10.4-9-19.8-13.2-41.2-13-67.2 0.2-43.4 11.2-77.8 35-109.4 16.4-21.8 23.2-25.6 34.2-19.2 5.2 3 6.8 5.2 7.2 11 0.6 6.8-0.8 9.8-8.8 18.4-4 4.4-18 26.2-21.2 33.2-11.8 25.4-14.4 37.6-14.2 67.4 0.2 22 1 27.8 4.4 35.8 2.4 5 4.2 10.4 4.2 11.8 0 2.6 6.4 17.2 10.6 24 8.2 13.4 14 21.2 22.2 29.6 12.4 13 12.8 24.4 1 30.4-7 3.8-7.6 3.8-14.8-0.8zM597 719.6c-12.4-6.6-12.4-17.8 0.2-31 8.2-8.4 14-16.2 22.2-29.6 4.2-6.8 10.6-21.4 10.6-24 0-1.4 1.8-6.8 4.2-11.8 5.4-12.6 6.4-56.2 1.4-73.2-8-27.6-22.2-53.2-39.2-71.2-1.6-1.6-2.4-6-2-10.2 0.4-6 1.8-8.2 7.2-11.2 11-6.4 17.8-2.6 34.2 19.2 23.8 31.6 34.8 66 35 109.4 0.2 26-4 47.4-13 67.2-2.2 4.4-3.8 9.2-3.8 10.4 0 1.4-0.8 2.4-2 2.4-1 0-2 1.6-2 3.4s-1.2 4.8-2.8 6.4c-1.6 1.8-4.2 5.8-5.8 8.8-4.4 8.4-25.4 31.2-31.6 34.6-6.6 3.4-7.6 3.4-12.8 0.4zM476 646.8c-18.4-6.6-31.6-18.6-41.6-37.6-5-9.2-5.4-12.2-5.4-32.2 0-21.2 0.2-22.4 6.8-34.6 10.6-19.4 29.2-33.8 48.8-37.4l7.4-1.4v-99.6h28v101.2l7.6 2.6c16.8 6.2 30.4 18.6 40 37 5 9.2 5.4 12.2 5.4 32.2 0 21.2-0.2 22.4-6.8 34.6-7.8 14.2-19.8 25.8-33.8 32.6-12.6 6-43 7.4-56.4 2.6zM128 230v-110h738v220h-738v-110zM601 257.6c12.4-6.8 19.4-17.8 19.4-30.6s-7-23.8-19.4-30.6c-5.4-3-22-3.4-172-4-91.2-0.4-170.6 0-176.4 0.6-33.6 4-44.8 41.8-18.2 61.6 2.8 2 8.2 4.6 11.8 5.4 3.8 1 83.8 1.4 177.8 1.4 155-0.4 171.6-0.8 177-3.8zM687.6 252c26-15.8 14.8-56-15.6-56s-41.6 40.2-15.6 56c8.6 5.2 22.6 5.2 31.2 0zM769.6 252c26-15.8 14.8-56-15.6-56s-41.6 40.2-15.6 56c8.6 5.2 22.6 5.2 31.2 0z" />
<glyph unicode="&#xe934;" glyph-name="APs" d="M741.2 899.8c-4.4-3.4-5.2-5.6-5.2-13.8 0-9 1-10.8 13.2-25.2 37.2-44.6 65-97.4 78.8-150.2 14.6-55.8 13.4-137.8-3-193.6-14.4-49.2-34.8-87.4-70.2-131.2-17.6-22-18.8-24-18.8-32.6 0-10.2 4.2-16.2 13-18.4 12.4-3.2 21 3.8 48 39.6 44.2 58.4 71.2 126.4 79.2 200 3.8 33.8 1.2 95.4-5.2 125.6-9 42.8-25.8 87.6-47 124-11.8 20.6-36 53.6-49.6 68-10.4 10.8-12.2 12-19.6 12-5.4 0-10.2-1.4-13.6-4.2zM237.4 896.4c-3-1.8-12-11-19.6-20.4-51.6-62.2-83.4-136.8-92-216.4-3.8-33.8-1.2-95.4 5.2-125.6 9-42.8 25.8-87.6 47-124 11.8-20.6 36-53.6 49.6-68 10.4-10.8 12.2-12 19.6-12 12.6 0 18.8 5.8 18.8 18 0 9-1 10.8-13.2 25.2-37.2 44.6-65 97.4-78.8 150.2-14.6 55.8-13.4 137.8 3 193.6 14.4 49.2 34.8 87.4 70.2 131.2 16.8 20.8 18.8 24.2 18.8 31.4 0 10.8-1.4 14-8.2 17.4-7.4 4-13.6 3.8-20.4-0.6zM285.2 818.8c-7.4-7.2-16.8-18.2-21-24.4-4.2-6.4-9.2-12.8-11-14.2s-3.2-3.6-3.2-4.6c0-1-3.2-6.8-7.2-12.8s-8.8-15-10.8-20.4c-2-5.2-6-14.6-8.8-20.6-9-20-19-74.2-19.2-104 0-8.2 1.4-25 3-37 3.2-22.8 12.4-63 14.8-64.8 0.8-0.6 4-7.2 7-15 6.2-16.2 20-40.8 29-51.2 3.4-4 6.2-8 6.2-9s7.6-9.6 16.6-19.4l16.8-17.4h10.6c9 0 11.8 1 16.4 5.4 4.4 4.2 5.6 7.2 5.6 14 0 9.6-7 22.8-14 26.6-2.2 1.2-6.2 5.6-8.8 9.6s-6.4 9.2-8.6 11.4c-5 5.4-15.8 23-17.6 28.6-0.6 2.4-2 4.4-2.8 4.4-2.4 0-13.2 27-16.2 40-1.4 6-3.2 12-4 13-3.2 4-6.2 26.4-7.4 52-1 25.8 2.6 61.8 7.2 70.4 1 2 4.8 12.8 8.2 24.2 3.6 11.2 8 22.4 9.8 25 2 2.4 5.6 8.4 8 13.4 2.6 4.8 6.6 11.4 9 14.4 2.2 3 7 9.2 10.2 13.8 3.4 4.6 9 11 12.6 14.6 10.2 9.4 14.4 17.6 14.4 27.6 0 12.8-7.4 19.6-21.4 19.6-10 0-10.8-0.4-23.4-13.2zM677.4 824.4c-4.2-4.2-5.4-7.6-5.4-14 0-9.4 7-22.8 14-26.4 2.2-1.2 6.2-5.6 8.8-9.6s6.4-9.2 8.6-11.4c5-5.4 15.8-23 17.6-28.4 0.6-2.6 2-4.6 2.8-4.6 2.4 0 13.2-27 16.2-40 1.4-6 3.2-11.8 4-13 3.2-4 6.2-26.4 7.4-52 1-25.8-2.6-61.8-7.2-70.4-1-2-4.8-12.8-8.2-24.2-3.6-11.2-8-22.4-9.8-25-2-2.4-5.6-8.4-8-13.4-2.6-4.8-6.6-11.4-9-14.4-2.2-3-6.8-9.2-10.2-13.8-3.2-4.6-9-11-12.6-14.6-10.2-9.4-14.4-17.6-14.4-27.6 0-12.8 7.4-19.6 21.4-19.6 10 0 10.8 0.4 23.4 13.2 7.4 7.2 16.8 18.2 21 24.4 4.2 6.4 9.2 12.8 11 14.2s3.2 3.6 3.2 4.6c0 1 3.2 6.8 7.2 12.8s8.8 15 10.8 20.4c2 5.2 6 14.6 8.8 20.6 9 20 19 74.2 19.2 104 0 8.2-1.4 25-3 37-3.2 22.8-12.4 63-14.8 64.8-0.8 0.6-4 7.4-7 15-6.2 16.2-20 40.8-29 51.2-3.4 4-6.2 8-6.2 9s-7.6 9.6-16.6 19.4l-16.8 17.4h-11c-9.2 0-11.6-0.8-16.2-5.6zM616 762.6c-7-2.6-12-9.4-12-16.2s3.8-12.8 16.8-26.4c9.2-9.6 27.6-45.4 32.4-63 4.4-16.2 6-61 2.8-80.2-5-31-19.4-61.4-41.2-86.2-8.8-10-10.8-13.6-10.8-19.4 0-10.4 5.6-15.2 17.6-15.2 8.6 0 10.2 0.8 20.4 10.8 15.8 15.6 22.6 24.4 30.2 39.2 3.6 7.2 7.8 14.4 9.2 16.2 4 4.8 12.2 32 15.6 51.2 3.8 22.2 3.8 57.8-0.2 78.8-3.6 19.2-11.6 45.2-15.4 49.6-1.4 1.8-5.6 9-9.2 16.2-7.8 15.2-13.6 22.8-27.2 36.2-8.8 8.6-11 9.8-18 9.6-4.4 0-9.4-0.6-11-1.2zM360 751.2c-15.8-15.6-22.6-24.4-30.2-39.2-3.6-7.2-7.8-14.4-9.2-16.2-4-4.8-12.2-32-15.6-51.2-3.8-22.2-3.8-57.8 0.2-78.8 3.6-19.2 11.6-45.2 15.4-49.6 1.4-1.8 5.6-9 9.2-16.2 7.8-15.2 13.4-22.6 27.2-36.4 9.8-9.6 10.2-9.8 20.6-9 13.2 1 20.4 7 20.4 17 0 6.8-3.8 12.8-16.8 26.4-9.2 9.6-27.6 45.4-32.4 63-4.4 16.2-6 61-2.8 80.2 5 31 19.4 61.4 41.2 86.2 8.8 10 10.8 13.6 10.8 19.4 0 10.4-5.6 15.2-17.4 15.2-8.8 0-10.4-0.8-20.6-10.8zM477.2 713.8c-34-8-67.2-41.6-75-75.8-2.6-11.6-2.6-40.4 0-52 8-34.8 41-67.8 75.8-75.8 11.6-2.6 40.4-2.6 52 0 34.8 8 67.8 41 75.8 75.8 2.6 11.6 2.6 40.4 0 52-3.8 16.4-14.2 34.4-27.8 48s-31.6 24-48 27.8c-10.8 2.6-42 2.4-52.8 0zM438 269v-171h146v342h-146v-171z" />
<glyph unicode="&#xe935;" glyph-name="customizeAlerts" d="M224.8 825.2c-9.6-4.2-20-14.4-24.6-24.2l-4.2-9v-656l4.2-9c4.8-10 15.2-20 25-24.2 5.6-2.4 50.2-2.8 264.2-2.8 245.2 0 258 0.2 265.6 3.8 9.6 4.4 19.4 14 24.4 24 3.4 6.8 3.6 18 4.2 171.8l0.4 164.4h-50v-314h-488v628h278v50h-146.4c-118-0.2-147.8-0.6-152.8-2.8zM726.4 811.8c-13.8-6.8-242-242.6-281.4-290.8-6.2-7.6-8.4-13.2-14.2-35.4-3.8-15.4-6.8-31.6-6.8-38.6 0-20.8 11.6-38.8 29.8-46.4 11-4.6 25.4-3.8 55 3.6l27.8 6.8 16.2 14.2c20.2 17.8 140 138.6 214.6 216.4 34.8 36.2 58 61.8 60.4 67.2 5.6 11.2 5.6 32.8 0.4 44.2-5.6 11.8-47.2 53.8-58.2 58.8-12.4 5.6-32 5.6-43.6 0zM667.4 615.4l-114.4-115.8-15.6 16.6c-8.6 9-15.2 17.2-15 18 0.4 0.8 51.4 52.8 113.4 115.8l112.8 114.2 33.2-32.8-114.4-116z" />
<glyph unicode="&#xe936;" glyph-name="import" d="M499.4 829.8c-4.8-0.8-10.2-3.6-14-7.6l-6.4-6.2-1-221.6-1-221.8-37 44c-20.4 24-39.4 45-42.4 46.6-7.8 4-23.4 3.6-30.4-1-11.6-7.6-16.4-22-11.4-34.6 1-2.6 19.2-25.4 40.6-50.8 72.2-86 88.4-104.4 94.4-106.6 6.2-2.4 23.4-2.8 30.6-1 2.8 0.8 28.8 30 64 71.4 78.6 92.6 73.4 85.8 73.4 97.4 0 18-12.2 28.8-31.4 27.4-14.2-0.8-13 0.2-57-51.8l-33.4-39.6-1 219.6c-1 204.8-1.2 220-4.4 225-6.2 9.2-18.8 13.6-32.2 11.2zM165.6 601c-5.2-2.8-11.6-8-14.4-11.6l-5.2-6.8v-229.6c0-225 0-229.6 4-236 2.2-3.4 8.4-8.8 13.8-11.6l9.8-5.4h646.8l9.8 5.4c5.4 2.8 11.6 8.2 13.8 11.6 4 6.4 4 11 4 236v229.6l-5.2 6.8c-2.8 3.6-9.4 8.8-14.8 11.6l-9.8 5h-83.8c-83.6 0-83.8 0-90.4-4.6-14-9.4-19.4-29.2-10.8-40.8 9-12.4 10.8-12.6 87.4-12.6h69.4v-390h-586v389.8l62.6 0.6c57.4 0.6 62.8 1 68 4.4 16.2 11 14.4 38-3.2 49-6.6 4-9 4.2-81.6 4.2l-74.8-0.2-9.4-4.8z" />
<glyph unicode="&#xe937;" glyph-name="deviceInfo" d="M450 780c-134.2-23.6-241-131-264-264.8-5.6-32.4-5.6-80 0-112.4 23-134.6 130.4-241.8 265.6-264.8 31.6-5.6 79.4-5.4 111.6 0 134.4 23 241.8 130.4 264.8 264.8 5.6 32.4 5.6 80 0 112.4-23 134.6-130.4 241.8-265.6 264.8-30.4 5.4-82.4 5.2-112.4 0zM552.2 734.8c57.4-9.6 110-36.8 151.8-78.8 33-32.8 53.6-66.2 68-109.8 10-30.4 14-54.8 14-87.2 0-75.4-28.2-143.4-82-197-39.6-39.8-86-65-142-77.2-24.2-5.4-85.8-5.4-110 0-56 12.2-102.4 37.4-142 77.2-33 32.8-53.6 66.2-68 109.8-10 30.4-14 54.8-14 87.2 0 75.4 28.2 143.4 82 197 41.4 41.6 93.6 68.8 151 78.8 22.2 4 68 4 91.2 0zM412.8 574.2c-3.4-2.2-7.2-6.8-8.6-10.4-3.6-10.2-3-219.8 0.6-228.6s10.4-13.2 20.2-13.2c10.8 0 15 3 51 36.4l31 28.8 32.6-30c18-16.6 34.8-31.2 37.2-32.6 6-3.6 19.6-3.2 25 0.6 10 7.2 10.2 8.6 10.2 124.8 0 118.6 0 118.8-11.8 124.8-5.2 2.8-18 3.2-93.6 3.2-82.6 0-88-0.2-93.8-3.8zM566 464.8v-67.2l-6.8 5.8c-3.8 3-14.8 12.8-24.4 21.6-17 15.8-17.6 16-27.8 16s-10.8-0.2-27.8-16c-9.6-8.8-20.6-18.6-24.4-21.6l-6.8-5.8v134.4h118v-67.2z" />
<glyph unicode="&#xe938;" glyph-name="battery20" d="M141.6 662.6c-2.8-3.2-6.2-7.6-7.4-10-3.2-6.2-3.2-355 0-361.2 1.2-2.4 4.6-6.8 7.4-9.8l5.2-5.6h634.4l5.2 5.6c8.8 9.4 9.6 12.8 9.6 41.2v27.2h55l5.6 7c3 3.8 6.4 9.2 7.4 12 1.2 3.2 2 43.2 2 102.8v97.6l-5.2 7.8c-3 4.2-6.4 8.4-7.6 9.2s-14.6 1.6-29.6 1.6h-27.6v30.2c0 31.4-0.8 34.8-9.6 44.4l-5.2 5.4h-634.4l-5.2-5.4zM770.4 594.6l0.6-39.6 34.6-0.6 34.4-0.4v-166h-31.8c-17.6 0-33.2-0.6-35-1.2-2.8-1-3.2-6.4-3.2-39v-37.8h-612v324h612l0.4-39.4zM652.4 617.6c-3.4-3.4-3.4-289.8 0-293.2s91.8-3.4 95.2 0c3.4 3.4 3.4 289.8 0 293.2s-91.8 3.4-95.2 0z" />
<glyph unicode="&#xe939;" glyph-name="battery40" d="M141.6 662.6c-2.8-3.2-6.2-7.6-7.4-10-3.2-6.2-3.2-355 0-361.2 1.2-2.4 4.6-6.8 7.4-9.8l5.2-5.6h634.4l5.2 5.6c8.8 9.4 9.6 12.8 9.6 41.2v27.2h55l5.6 7c3 3.8 6.4 9.2 7.4 12 1.2 3.2 2 43.2 2 102.8v97.6l-5.2 7.8c-3 4.2-6.4 8.4-7.6 9.2s-14.6 1.6-29.6 1.6h-27.6v30.2c0 31.4-0.8 34.8-9.6 44.4l-5.2 5.4h-634.4l-5.2-5.4zM770.4 594.6l0.6-39.6 34.6-0.6 34.4-0.4v-166h-31.8c-17.6 0-33.2-0.6-35-1.2-2.8-1-3.2-6.4-3.2-39v-37.8h-612v324h612l0.4-39.4zM534.4 617.6c-3.4-3.4-3.4-289.8 0-293.2s91.8-3.4 95.2 0c3.4 3.4 3.4 289.8 0 293.2s-91.8 3.4-95.2 0zM652.4 617.6c-3.4-3.4-3.4-289.8 0-293.2s91.8-3.4 95.2 0c3.4 3.4 3.4 289.8 0 293.2s-91.8 3.4-95.2 0z" />
<glyph unicode="&#xe93a;" glyph-name="battery60" d="M141.6 662.6c-2.8-3.2-6.2-7.6-7.4-10-3.2-6.2-3.2-355 0-361.2 1.2-2.4 4.6-6.8 7.4-9.8l5.2-5.6h634.4l5.2 5.6c8.8 9.4 9.6 12.8 9.6 41.2v27.2h55l5.6 7c3 3.8 6.4 9.2 7.4 12 1.2 3.2 2 43.2 2 102.8v97.6l-5.2 7.8c-3 4.2-6.4 8.4-7.6 9.2s-14.6 1.6-29.6 1.6h-27.6v30.2c0 31.4-0.8 34.8-9.6 44.4l-5.2 5.4h-634.4l-5.2-5.4zM770.4 594.6l0.6-39.6 34.6-0.6 34.4-0.4v-166h-31.8c-17.6 0-33.2-0.6-35-1.2-2.8-1-3.2-6.4-3.2-39v-37.8h-612v324h612l0.4-39.4zM416.4 617.6c-3.4-3.4-3.4-289.8 0-293.2s91.8-3.4 95.2 0c3.4 3.4 3.4 289.8 0 293.2s-91.8 3.4-95.2 0zM534.4 617.6c-3.4-3.4-3.4-289.8 0-293.2s91.8-3.4 95.2 0c3.4 3.4 3.4 289.8 0 293.2s-91.8 3.4-95.2 0zM652.4 617.6c-3.4-3.4-3.4-289.8 0-293.2s91.8-3.4 95.2 0c3.4 3.4 3.4 289.8 0 293.2s-91.8 3.4-95.2 0z" />
<glyph unicode="&#xe93b;" glyph-name="battery80" d="M141.6 662.6c-2.8-3.2-6.2-7.6-7.4-10-3.2-6.2-3.2-355 0-361.2 1.2-2.4 4.6-6.8 7.4-9.8l5.2-5.6h634.4l5.2 5.6c8.8 9.4 9.6 12.8 9.6 41.2v27.2h55l5.6 7c3 3.8 6.4 9.2 7.4 12 1.2 3.2 2 43.2 2 102.8v97.6l-5.2 7.8c-3 4.2-6.4 8.4-7.6 9.2s-14.6 1.6-29.6 1.6h-27.6v30.2c0 31.4-0.8 34.8-9.6 44.4l-5.2 5.4h-634.4l-5.2-5.4zM770.4 594.6l0.6-39.6 34.6-0.6 34.4-0.4v-166h-31.8c-17.6 0-33.2-0.6-35-1.2-2.8-1-3.2-6.4-3.2-39v-37.8h-612v324h612l0.4-39.4zM298.4 617.6c-3.4-3.4-3.4-289.8 0-293.2s91.8-3.4 95.2 0c3.4 3.4 3.4 289.8 0 293.2s-91.8 3.4-95.2 0zM416.4 617.6c-3.4-3.4-3.4-289.8 0-293.2s91.8-3.4 95.2 0c3.4 3.4 3.4 289.8 0 293.2s-91.8 3.4-95.2 0zM534.4 617.6c-3.4-3.4-3.4-289.8 0-293.2s91.8-3.4 95.2 0c3.4 3.4 3.4 289.8 0 293.2s-91.8 3.4-95.2 0zM652.4 617.6c-3.4-3.4-3.4-289.8 0-293.2s91.8-3.4 95.2 0c3.4 3.4 3.4 289.8 0 293.2s-91.8 3.4-95.2 0z" />
<glyph unicode="&#xe93c;" glyph-name="battery100" d="M141.6 662.6c-2.8-3.2-6.2-7.6-7.4-10-3.2-6.2-3.2-355 0-361.2 1.2-2.4 4.6-6.8 7.4-9.8l5.2-5.6h634.4l5.2 5.6c8.8 9.4 9.6 12.8 9.6 41.2v27.2h55l5.6 7c3 3.8 6.4 9.2 7.4 12 1.2 3.2 2 43.2 2 102.8v97.6l-5.2 7.8c-3 4.2-6.4 8.4-7.6 9.2s-14.6 1.6-29.6 1.6h-27.6v30.2c0 31.4-0.8 34.8-9.6 44.4l-5.2 5.4h-634.4l-5.2-5.4zM770.4 594.6l0.6-39.6 34.6-0.6 34.4-0.4v-166h-31.8c-17.6 0-33.2-0.6-35-1.2-2.8-1-3.2-6.4-3.2-39v-37.8h-612v324h612l0.4-39.4zM178.4 617.6c-3.4-3.4-3.4-289.8 0-293.2s91.8-3.4 95.2 0c3.4 3.4 3.4 289.8 0 293.2s-91.8 3.4-95.2 0zM298.4 617.6c-3.4-3.4-3.4-289.8 0-293.2s91.8-3.4 95.2 0c3.4 3.4 3.4 289.8 0 293.2s-91.8 3.4-95.2 0zM416.4 617.6c-3.4-3.4-3.4-289.8 0-293.2s91.8-3.4 95.2 0c3.4 3.4 3.4 289.8 0 293.2s-91.8 3.4-95.2 0zM534.4 617.6c-3.4-3.4-3.4-289.8 0-293.2s91.8-3.4 95.2 0c3.4 3.4 3.4 289.8 0 293.2s-91.8 3.4-95.2 0zM652.4 617.6c-3.4-3.4-3.4-289.8 0-293.2s91.8-3.4 95.2 0c3.4 3.4 3.4 289.8 0 293.2s-91.8 3.4-95.2 0z" />
<glyph unicode="&#xe93d;" glyph-name="role1" d="M692.8 817.6c-15.6-10.8-17.6-16.8-18.4-55l-0.6-32.6h-31.6c-29.2 0-32.2-0.4-40.4-4.6-29-15.4-28.8-58.6 0.4-73.4 6.6-3.4 11.8-4 39.8-4h32v-29.4c0-33.8 1.6-41.8 10.6-52 17-19.4 46.8-19.2 62.8 0.4 8.6 10.4 10.6 20.4 10.6 52.8v28l33.6 0.6c31.8 0.6 34.2 0.8 40.8 5.4 13 9 16.6 16.8 16.6 35.4 0 15.4-0.4 17-6.2 24.2-12 14.8-17.6 16.6-53 16.6h-31.4l-0.6 32.6c-0.8 32.4-0.8 32.8-6.8 42.4-8 13-19.4 19-36 19-10.8 0-13.8-0.8-22.2-6.4zM333 703.2c-53.2-12.2-94.2-51.4-109.4-104.6-5.8-20.2-6.2-57-0.8-76.6 5.2-19.2 15.8-40 28.2-55.4 6-7.4 11-14 11-14.6s-5.2-2-11.6-3.2c-26.4-5.2-52.8-19.4-73.4-39.8-23.8-23.4-38.8-54.2-42.4-87-1-8.2-1.4-59.8-1-114.4l0.8-99.6h176l-0.8 14.6c-1.2 18 1.4 46.6 5.8 62.4 12.8 46.4 43.2 88.8 82.2 113.8 7.8 5.2 14.4 9.8 14.4 10.4s-3.2 10.4-6.8 21.4c-24.4 71.4-5.6 148.2 49.2 200.8 13 12.4 37.8 29.6 49.6 34.6 6.4 2.6 6.4 2.8 5.2 13.2-1.8 15.8-10.2 40-18.6 54.8-10.4 17.8-36.2 43.4-53.2 53-22.8 12.6-40.8 17.4-68.4 18.2-15.8 0.4-28.2-0.2-36-2zM563 537.8c-45.4-6.6-87.8-37.6-108.2-78.8-18.2-37.2-20-86.6-4.4-123.6 4.8-11.4 18-32.4 27.4-43.6l6-7.2-15.2-3.2c-8.4-1.8-22.4-6.8-31.4-11.2-30.8-15-53.2-37.8-68.4-69.2-11-23.2-15.2-43.6-14.4-71l0.6-21 465.6-1-1.4 24.4c-1.8 33-5.4 48.6-16.4 71.4-8 16.2-12 21.8-27.6 37.4-15.2 15.2-21.2 19.6-37.2 27.6-11.8 5.8-25.2 10.6-35.2 12.6l-16.2 3.4 10.6 12.8c23.2 28.2 33.6 57.4 33.6 94.4 0 27.8-3.4 42-15.8 67.2-27.4 56-88.8 87.8-152 78.6z" />
<glyph unicode="&#xe93e;" glyph-name="support1" d="M458.2 829c-37.8-8.6-66-23.4-93.6-49.8-33.4-31.4-55.4-73.8-62.4-119-1.8-10.8-3.8-16.4-7.6-21-10.4-12.4-10.6-14.2-10.6-84.2 0-60.6 0.2-65.6 3.8-72.8 7.6-14.6 23-24.2 39.4-24.2 8 0 25.6 9 29.8 15.2l3.2 5 8-16.2c14.6-30.4 34.4-53.8 59.2-70 20.6-13.6 23.6-14 31.8-4.2 3.8 4.4 12 10.4 18.4 13.6 11.4 5.6 11.6 5.6 60.4 6.6 55.2 1.2 54.4 1 68.4 18.4 7.2 9.2 25.6 44.6 25.6 49.4 0 2 2.2 0.8 6-3.4 5-5.6 6-8.4 6-16.4 0-32.6-16.6-61.2-43.6-74.4-8.8-4.4-12.4-4.6-58.4-5.6-53.4-1-55.6-1.6-63.4-13.2-4.2-6.6-4.2-20 0.2-28.2 6.4-12.4 9.8-13 67-12.2 49.2 0.8 51.8 1 64.6 6 38.4 14.6 66.4 44.2 78.8 83 1.6 5.2 3.6 20 4.2 32.6 1 20.2 1.6 23.6 5.6 28 10.8 12 11 12.8 11 83 0 70-0.2 71.8-10.6 84.2-3.8 4.6-5.8 10.2-7.6 21-12 78.2-67.4 142.8-141.2 165-15 4.6-22.2 5.4-48.6 6-22 0.6-34.8-0.2-43.8-2.2zM533 774.8c28.2-7.6 57.6-27.2 76.2-50.4 11.2-14.2 25.4-43.2 29.6-60.6 4.2-17 4-19.6-1.6-26.6l-4.8-5.8-8.4 17.2c-21 42.2-58 73.8-98 83.6-14.2 3.4-43.8 3.4-58 0-39.8-9.8-76.8-41.2-98-83.4l-8.6-17.2-4.6 5.8c-5.6 6.8-5.8 9.4-1.6 26.4 17.2 69.8 79.2 118.4 146.8 115.2 10.4-0.4 24.4-2.4 31-4.2zM342.6 377.2c-45.6-14.8-90.8-49-118.2-89.6-29.2-43.2-42.4-87.2-42.4-141.2 0-25.4 0.4-27.6 5-35.8 3.2-5.2 8.2-10.2 13-12.6 7.8-4 11.8-4 297-4s289.2 0 297 4c4.8 2.4 9.8 7.4 13 12.6 4.6 8.2 5 10.4 5 35.8 0 54-13 97.6-42.6 141.6-12.2 18-39.4 45.8-58 59l-13.6 9.6-13.2-14.4c-23.2-25.6-52.8-42.8-83.8-49.2-13.2-2.6-26-3.2-66-2.6-46.6 0.6-50.4 0.8-57.8 5-9.6 5-24.6 20.6-27.2 28.2-1.4 4.4-4.6 6.4-14.6 10-17.2 6.2-41.4 21.4-57.6 36.2-7.2 6.8-14.8 12.2-17 12.2-2-0.2-10.2-2.2-18-4.8z" />
<glyph unicode="&#xe93f;" glyph-name="login" d="M476.2 820c-68.8-18.6-119.8-81.8-126-156.2-3-37.8 2.2-68.4 17.6-100.8 23.2-49 63.8-82.2 114.2-94 17-3.8 50.4-3.8 68.6 0.2 19.4 4.2 51.6 20 67.6 33.4 30.4 25.4 52.8 64 61 105 3.6 19 3.6 58.4-0.2 75.8-13.4 63.8-55.2 113-112.6 133.2-15.8 5.6-20 6.2-46.4 6.8-24 0.4-31.6 0-43.8-3.4zM482 410c-92.6-9.8-172.2-65-214-148.4-19.6-39.2-28-76.4-28-124.8v-30.8h552.6l-1.2 38.6c-0.8 34.4-1.6 40.8-7 61.4-14 53.2-37 92.8-76.6 131-37.4 36-80.2 58.6-131.4 69-22.8 4.6-69.6 6.6-94.4 4z" />
<glyph unicode="&#xe940;" glyph-name="cardList" d="M392.4 797.8c-9-4.4-18.4-17.4-18.4-25.2 0-4-1.2-4.2-42.4-5-35.6-0.8-44-1.4-51.6-4.6-13.4-5.4-27-16-33.8-26.2-13-19.8-12.4 0.2-11.8-304.8l0.6-277 5.6-11.2c6.4-13.4 21.8-28.4 35-34.4l9.4-4.4h456l11.4 5.6c14.4 7 26.8 19.4 33.4 33.4l5.2 11v562l-5.8 11c-7.6 14.6-22.6 28.8-36.8 34.2-10.2 4-15.8 4.6-53.6 5.4l-42.4 0.8-1 6.8c-1.6 9.4-8.2 18.2-17.4 22.8-7.6 3.8-12.2 4-120.4 4-110.6 0-112.8 0-121.2-4.2zM374 691.6c0-8 9.4-21 18.6-25.4 8.4-4.2 11-4.2 120.6-4.2 104.8 0 112.4 0.4 120 3.8 9.6 4.4 16.6 13.2 18.2 23.2l1.2 7h69.4v-522h-418v522h35c34.6 0 35 0 35-4.4zM357 588.2c-24.8-15.2-24.4-48.2 0.8-61.6l8.8-4.6h146.2c138 0 146.6 0.2 154.4 3.8 26 11.8 27.4 48.2 2.6 62-7.2 4.2-9.8 4.2-157 4.2-142.4 0-150-0.2-155.8-3.8zM365.6 452c-20.2-6.2-31-24.2-25.6-43.6 2.8-10.6 13.6-21.2 24.6-24.2 6.2-1.8 47.6-2.2 153.6-1.8l145 0.6 8.6 5.6c9.6 6.4 16 18.2 16.2 29.2 0 10.4-7.4 23.6-16.6 29.8l-8.2 5.4-146 0.4c-80.4 0.2-148.6-0.4-151.6-1.4zM362.6 311.8c-9.2-2.6-20-14.2-22.8-24.2-4.2-15.6 3.6-33 18.6-40.8 4.6-2.4 30-2.8 154.8-2.8h149.4l8.6 5c9.6 5.6 16.8 18.2 16.8 29.2 0 8.2-5.8 21.4-11.6 26.4-10.2 9.2-11.2 9.2-163.4 9.2-83.2-0.2-146.8-1-150.4-2z" />
<glyph unicode="&#xe941;" glyph-name="client_dashboard" d="M371 773c-22.6-5-44.4-16.8-58.2-31.6-23.4-25-30.8-49-30.8-100.6 0-32.8 0-33-4.8-34.6-5.8-2.4-7.2-5.8-8.6-22.2-1.8-23.4 8.4-53.6 25.6-75.2 8.6-11 9.2-12 16.6-32 3-7.8 9.4-20.4 14.4-27.8l9.2-13.6-4.6-3.6c-7.2-5.4-56.8-29.6-100.8-49-46.2-20.4-60.2-29.2-73.4-45.6-18.8-23.6-36-64.8-42.4-102.2-5.6-32.4-4-39.4 11-47 23-11.8 118.6-26.8 206.8-32.2 58.8-3.6 180.4-0.6 216.4 5.4l6.6 1-7.8 10.4c-9.6 12.4-22.2 37.4-28.2 55.4-17.8 52.4-11.6 113.4 15.8 160.4l8 13.6-27.4 13.8c-38.2 19.4-36.6 18-28.8 27.8 8.6 10.8 17.8 28.6 21.6 42.2 2.2 7 6.2 14.6 11.2 20.2 9 10.2 22.4 36.6 25.4 50 2.4 10 2.6 34.2 0.4 42-0.8 2.8-3.2 5.8-5.4 6.8-3.8 1.6-4.4 4.2-5.6 19.8-0.6 10-1.2 26.2-1.2 36.2 0 54.2-29.4 94.8-80 110.2-15.8 4.8-62.4 6-81 2zM671 464.6c-53.8-11.4-98.6-47-122.8-97.2-12.2-25.4-16.2-40.4-17.6-67.8-4.6-86.2 50.4-161 134.6-182.8 18-4.6 22.4-5 48.8-4.2 25.8 0.8 31 1.6 47.4 7 31 10.4 50.8 22.6 72.6 44.2 33.8 34 52 78 52 126.2 0 85.6-58.6 157.6-142.4 174.8-19.2 4-53.8 4-72.6-0.2zM747 446c8.8-2.2 24.6-8.2 35-13.4 16.2-8 22-12.4 39.2-29.6 18-17.8 21.2-22.2 30.4-41 12.2-25.2 17.2-46 17.2-72 0-17.6-5.8-52-8.6-52-0.6 0-4.6 2.8-9 6-18.4 14-46.8 16.8-68.6 7-14.8-6.6-30.8-22.4-36.8-36.4-5.2-12.2-7-31.6-4-44 1.4-5.2 5.6-14.8 9.6-21.2 3.8-6.4 6.6-12 6-12.6-2.8-2.8-31.4-6.8-49.4-6.8s-46.6 4-49.4 6.8c-0.6 0.4 1.8 4.6 5.2 9.2 13.2 18.2 16.4 44.8 8.2 66.6-5.2 13.8-20.6 30.4-34 37-24.4 11.6-52.8 9-73.6-6.8-3.8-3-7.4-4.6-8.4-3.6-3.6 3.6-8 31.6-8 50.8 0 42.8 14 78.8 42.6 109.4 40.6 43.4 98 60.4 156.4 46.6zM629.4 235.8c16.4-8 30.6-30 30.6-47.8 0-14.8-15-42-23-42-5.4 0-32.8 20.4-45.4 33.6-12 12.8-27.6 35.4-27.6 40 0 1 3.2 4.8 7.2 8.4 16.2 14.2 38.6 17.2 58.2 7.8zM825.4 239c11.8-3.4 26.6-13.6 26.6-18.2 0-17.6-62-78.6-74.8-73.6-4.2 1.6-13.8 15.6-16.8 24.6-7.8 22.6 2.2 49.4 22.8 61.4 15.2 9 26.4 10.4 42.2 5.8zM696 429.6c-5.2-5.6-5.2-11.6 0.2-18.4 8.2-10.4 25.8-4 25.8 9.4 0 12.2-17.4 18.2-26 9zM764.8 419.2c-10-4.4-11.8-14.4-3.8-22.2 13-13.2 33.6 4.6 21.6 18.6-5 5.6-10.4 6.6-17.8 3.6zM632 416c-5.2-5.2-5.2-16.2 0-21 6.2-5.6 15.8-4.8 21.4 1.8 6 7 5.8 12.2-0.4 18.2-6 6.2-15.4 6.6-21 1zM592.8 376c-5.2-2-10.8-9.6-10.8-14.6 0-2 2.2-5.8 5-8.4 9.8-10 25-4 25 9.6 0 10.2-10 17.2-19.2 13.4zM807 373c-2.8-2.6-5-6.2-5-7.8 0-5.6 4.4-12.8 9.4-15 6.8-3.2 9.4-2.8 15.4 2 3.8 3 5.2 6 5.2 10.8 0 13.8-15.4 19.8-25 10zM660.8 320.2c17.4-34.4 26.8-51.2 30.2-53.4 8.2-5.4 22.8-5.8 30.4-1 13.8 8.6 18.2 24.4 10.2 36.2-4 5.8-65.8 50.6-90.2 65-5 3-2.6-2.4 19.4-46.8zM571 311c-6.6-6.4-6.2-12 0.8-19.2 7-6.8 11.8-7.2 19-1.6 3.8 3 5.2 6 5.2 11 0 13.8-15.2 19.8-25 9.8zM821.8 310.4c-10-8.2-3.4-24.4 10.2-24.4 9 0 14.6 5.4 14.6 14.4 0 7.4-6.4 13.6-14.6 13.6-3 0-7.6-1.6-10.2-3.6z" />
<glyph unicode="&#xe942;" glyph-name="general_dashboard" d="M178.8 697.2l-6.8-6.8v-204.6c0-216.6-0.2-210.8 9.4-228.8 5.8-11.2 22.6-26.2 36.2-32.6l11.4-5.4 583.4-1 6.8 6.8c5.8 5.8 6.8 8.2 6.8 15.8 0 9.4-4.6 17.2-12.6 22-3.4 1.8-67.6 2.6-290.8 3.4l-286.6 1-7.4 7.6-7.6 7.4-1 202.6c-0.8 156.2-1.6 203.4-3.4 206.8-4.8 8-12.6 12.6-22 12.6-7.6 0-10-1-15.8-6.8zM738 658c-66.8-15-93-20.6-95.4-20.6-4.8 0-2.6-2.8 14.4-19.6l17.2-16.6-119.2-119.2-85 85-84.2-84c-46.2-46.2-85.4-86.6-87.2-89.8-3.8-7.2-2.4-19.8 2.8-25.6 5.4-6.2 16-10 23.4-8.6 4.8 1 22.4 17.6 75.8 70.6l69.4 69.4 41.6-41.6c22.8-22.8 42.4-41.4 43.4-41.4 1.2 0 35.8 33.8 77 75s75.6 75 76.2 75c0.6 0 8.6-7.6 17.6-17 9.2-9.4 17-17 17.4-17s0.8 1.4 0.8 3.2c0 2.8 2.8 15.4 17 78.8 6.4 28.2 11 50.6 10.4 51-0.2 0.2-15.2-3-33.4-7z" />
<glyph unicode="&#xe943;" glyph-name="manage_clients" d="M465 755.4c-5.4-1.2-10.4-2.8-11-3.4-0.6-0.8-5.2-2.4-10.4-4-5.4-1.4-9.6-3.4-9.6-4.2 0-1-1.2-1.8-2.8-1.8s-4.2-1.2-5.6-2.6c-1.4-1.4-4-3.6-5.8-4.6-9.6-5.4-25-19.6-33.8-30.8-2.8-3.6-6.2-7.6-7.4-9-1.4-1.6-2.6-3.6-2.6-4.8 0-1-1.2-3.2-2.4-4.6-4.2-4.4-9.4-16-11.8-26.6-1.4-5.4-3.4-11.2-4.4-12.6-3.2-4-3-62.8 0.2-64 1.4-0.4 2.4-2.4 2.4-4.6 0-5.6 4.6-21.8 6.2-21.8 0.8 0 2-2.6 2.8-6 0.8-3.2 2.2-6 3.2-6s1.8-1 1.8-2.2c0-5 31.6-41.8 35.8-41.8 1.2 0 2.8-1.2 3.6-2.6 1.6-2.8 9.4-7.4 19.2-11.6 3-1.2 5.4-3 5.4-3.8s3.2-2.2 7-2.8c3.8-0.8 7-2.2 7-3 0-2.6 28-6.2 48-6.2 19.8 0 48 3.6 48 6 0 1 3 2.4 6.6 3 3.4 0.8 6.8 2 7.4 2.8 0.6 0.6 6 3.8 12 7 12.6 6.8 12.2 6.6 28 21.4 6.6 6.2 11.2 11.8 10.6 12.6-0.8 0.6-0.4 1.2 0.8 1.2 2.4 0 13.8 16.2 13 18.6-0.2 0.8 0.4 1.4 1.4 1.4s2.4 2.8 3.2 6c0.8 3.4 2 6 3 6 0.8 0 2.2 3.4 3 7.4 0.8 4.2 2.2 8 3.2 8.8 1 0.6 2.4 8 3 16.4 0.8 8.4 2.2 15.4 3 15.4 1 0 1.8 4.6 1.8 10 0 5.6-0.8 10-1.8 10-0.8 0-2.2 7-3 15.4-0.6 8.4-2 15.8-3 16.4s-2.4 4.2-3.2 7.6c-0.6 3.6-3.4 10.4-6.2 15-2.6 4.8-5.6 10.6-6.6 12.8-3.8 8.6-37.2 42.8-41.8 42.8-1 0-3.8 1.8-6.4 4s-5.8 4-7.4 4c-1.4 0-2.6 0.8-2.6 1.8 0 0.8-4.2 2.8-9.4 4.2-5.4 1.6-10 3.2-10.6 4-4.2 5.4-60.2 7.8-81 3.4zM243.6 747.6c-5.4-1.2-9.6-2.8-9.6-3.6s-2.2-2.2-5-2.8c-2.8-0.8-5-2.2-5-3.2 0-1.2-1.2-2-2.6-2s-4.6-1.6-7-3.4c-6.6-5.2-22.4-20.4-22.4-21.8 0-1-8.4-13.2-10.2-14.8-0.6-0.6-1.8-3.6-2.6-7-0.8-3.2-2.6-6.6-3.8-7.4-1.6-1-2.4-10.8-2.4-32v-30.6l7-14c3.8-7.6 8.2-15.8 10-18 10.2-13 32-31 37.6-31 1.4 0 2.4-0.8 2.4-1.8s3-2.6 6.6-3.2c3.4-0.8 7-2.6 7.8-3.8 2-3 59.2-3 61.2 0 0.8 1.2 4 2.8 7 3.6 3.2 0.8 11 4.6 17.6 8.8 12 7.6 14.8 12.6 9.4 18.2-3.4 3.2-3.6 68.2-0.4 72.4 1.4 1.6 3 6.6 3.8 11.4 0.8 4.6 2 8.4 3 8.4 0.8 0 2.2 3.2 2.8 7 0.8 3.8 2.2 7 3.2 7 0.8 0 2.2 2.6 3 5.8 0.6 3.2 2.6 7 4.2 8.4 3.4 2.8 3.6 7 0.4 11-5.2 6.4-19.2 20-23.6 22.8-2.4 1.6-5.6 4-7 5.4s-4.8 3-7.8 3.8c-2.8 0.6-5.2 2-5.2 2.8 0 5.2-52.2 7.8-72.4 3.6zM675.6 747.6c-5.4-1.2-9.6-2.8-9.6-3.6 0-1-2.6-2.2-6-3-3.2-0.8-6-2-6-3s-1.6-2.2-3.4-2.8c-5.2-1.6-20.6-15.8-20.6-18.8 0-2.4 6.4-12.6 11.6-18 1.2-1.4 2.4-4 2.4-5.6s0.8-2.8 1.8-2.8c1 0 2.6-3 3.2-6.4 0.8-3.6 2.4-7.2 3.2-7.8 1-0.6 3-6.4 4.2-13 1.4-6.4 3.4-12.4 4.6-13.2 3-2 2.8-69.2-0.2-71.2-1.2-0.8-3-6-3.8-11.6-1.2-10.2-1.2-10.2 5.6-13.6 3.8-1.8 8.4-3.2 10-3.2 1.8 0 3.4-1.2 4-2.4 1-3.6 58.8-3.6 61-0.2 0.8 1.2 4.2 3 7.4 3.8s7.2 2.6 8.6 4.2c1.4 1.4 4 2.6 5.6 2.6s2.8 0.8 2.8 1.8c0 1 1.8 2.4 3.8 3.2 7.4 2.2 34.2 32 34.2 37.8 0 1.2 1.4 4.8 3 8s3.6 10.6 4.2 16.4c0.8 6 2.2 10.8 3.2 10.8 1.2 0 1.6 4.8 1 11.6-1.4 15.8-5.6 36.4-7.4 36.4-0.8 0-2.2 2.4-2.8 5.6-1.6 6.4-14.8 26.4-17.6 26.4-1 0-1.2 1-0.6 2 0.6 1.2 0.4 2-0.6 2s-5.2 3-9.2 6.8c-4 3.8-9 7.6-11.2 8.2s-4 2-4 3c0 1-2.6 2.2-6 3-3.2 0.8-6 2-6 2.8 0 5.4-50.4 8-70.4 3.8zM236.6 516.6c-5.8-0.4-10.6-1.6-10.6-2.6 0-0.8-3.6-2.2-8-3s-8-2.2-8-3.2c0-1-1.2-1.8-2.6-1.8-4.2 0-23.8-15.4-28-22-2-3.4-4.4-6-5.4-6-1.6 0-4.6-7.6-4.2-10.4 0.2-1-0.6-1.6-1.8-1.6-1 0-2-1.2-2-2.4-0.2-1.4-1.8-6.2-4-10.6s-3.8-9.6-4-11.4c0-2-0.8-3.6-1.8-3.6-0.8 0-2.2-4.2-3-9.2-0.6-5.2-2-10.4-2.8-11.6-1.6-2-7.2-23.2-7.4-28.2 0-1-0.6-2.8-1.4-4-0.6-1-1.8-7-2.6-13s-2.2-11.8-3-13c-2.4-3.4-6.6-40.6-5.4-48.4 1.2-7.4 9.4-16.6 14.8-16.6 1.4 0 2.6-0.8 2.6-2s27.6-2 79-2c76 0 79 0.2 81 3.8 1 2.2 2 6 2 8.6s1.2 7 2.8 10c1.6 2.8 3.4 9 4.2 13.4 0.8 4.6 2 8.2 3 8.2 0.8 0 2.2 3.2 2.8 7 0.8 3.8 2.2 7 3 7 1 0 2.4 3.2 3 7 0.8 3.8 2 7 3 7 0.8 0 2.6 3.4 3.8 7.8 1.4 4.2 3.8 8.8 5.4 10.2s3 3.2 3 4.2c0 1.8 5.4 8.8 12.4 16 1.8 1.8 2.8 4 2.2 4.6-0.8 0.6-0.2 1.2 1 1.2s4.6 2.4 7.8 5.6c7.2 7 21 16.4 24.2 16.4 1.4 0 2.4 0.8 2.4 1.8s2.8 2.4 6 3.2c5.4 1.2 8.8 7 4.2 7-1 0-2.4 3.2-3 7-0.8 3.8-2.2 7-3.2 7-0.8 0-2.2 2.8-3 6-0.8 3.4-2.2 6-3.2 6s-1.8 1.2-1.8 2.6c0 1.6-1.8 4.4-4 6.4s-4 4.4-4 5.6c0 3.2-22.2 23.4-27.2 24.6-2.6 0.6-4.8 2-4.8 2.8s-3.4 2.2-7.4 3c-4.2 0.8-8.2 2.4-9 3.6-1.2 2.2-76 3.8-97 2zM667.6 516.6c-5.4-0.4-9.6-1.6-9.6-2.4 0-1-4-2.4-9-3.2-5-0.6-8.6-2-8-3 0.6-0.8-1.4-2.2-4.2-2.8-6.2-1.6-8-3-21.6-16.4-9.4-9.4-14.2-16.8-22-35.2-4.8-11-4.2-13 4.8-14.4 4.4-0.6 8-2 8-3s3.2-2.4 7-3c4-0.8 6.6-2.2 6-3-0.6-1 1.4-2.4 4.2-3 9-2.4 26-16.6 35.8-30.2 2.2-3 5.2-6.6 6.6-8 1.2-1.6 2.4-3.8 2.4-5s1.4-2.6 3-3.2c1.6-0.8 3-2.2 3-3.2s1.8-4.4 3.8-7.4c2.2-3 4.6-7.8 5.2-10.8 0.8-3 2.2-5.4 3-5.4 1 0 2.2-2.6 3-6 0.8-3.2 2.2-6 3.2-6s1.8-1.4 1.8-3.2c0-1.6 1.6-6.8 3.8-11.4 2-4.6 4.4-11.6 5.2-15.4s2.2-7.8 3-9c0.8-1 2-4.4 2.8-7.4l1.2-5.6h64c35.2 0 64 0.8 64 1.8s2.6 2.2 6 2.8c7.4 1.6 12.8 7 16.2 16.2 2 5.8 2 11 0 28.6-1.4 11.8-3.4 22.8-4.4 24.6-0.8 1.6-2.4 8-3.6 14-1 6-2.4 13.2-3.2 16s-2.2 9.8-3.4 15.6c-1 5.6-2.8 10.4-3.6 10.4-1 0-2.4 4-3.2 9-0.6 5-2 9-2.8 9s-2.2 3.2-2.8 7c-0.8 3.8-2.2 7-3 7-1 0-2.4 2.4-3.2 5.4-0.6 3-4.4 9.8-8.2 15-3.8 5.4-6.8 10.2-6.8 10.8 0 0.8-3.6 4.6-8 8.6-12 10.8-13 11.6-17.6 13-2.4 0.8-4.4 2.2-4.4 3.2 0 0.8-3.8 2.2-8.4 3-4.8 0.8-9.2 2.4-10 3.6-1.4 2.2-76.6 3.8-96 2zM436 425.6c-7-1-13.4-2.6-14-3.4s-3.6-2.2-7-3c-3.2-0.8-6.4-2.2-7-2.8-0.6-0.8-5.2-3.6-10.4-6.4-5.4-2.6-9.6-5.6-9.6-6.2 0-0.8-2.8-2.4-6-3.8-3.4-1.4-5.8-2.8-5.4-3.2s-3-4.8-7.6-9.6c-4.4-5-10-12.4-12.2-16.6-2-4.2-4.2-8-4.8-8.6-1.8-1.8-8-14.4-8-16.2 0-1.2-1.8-5.8-3.8-10.4-2.2-4.6-4.4-11.8-5.2-16-0.8-4-2.2-7.8-3-8.4-1-0.6-2.2-4.6-3-9s-2.2-8.4-3-9c-1-0.6-2.4-6-3-12-0.8-6-2.2-10.6-3-10-0.8 0.4-2.6-6.8-3.8-16-1.4-9.4-3.4-17.4-4.2-18s-2.2-6.8-3-14c-0.6-7.2-2-13-3-13-0.8 0-2.2-6-3-13.4-0.8-7.6-2.2-14.2-3.4-14.8-3-2-3.2-48.2 0-49.2 1.2-0.6 2.4-2 2.4-3.4 0-1.6 3.8-5.2 8.4-8.4l8.2-5.8 181.2-0.6c125.8-0.4 183.4 0 188.6 1.6 11.4 3.2 21 10.2 25 18 2 3.8 4.2 7.4 5.2 7.6 2 1 1.8 28-0.4 29.2-0.8 0.6-2.4 7.6-3 15.4-0.8 7.8-2.4 15.8-3.2 17.6-1 1.8-2.8 8.6-3.8 15.2-4 23.6-8.4 44-10.2 47.6-1.2 1.8-2.6 7.6-3.4 12.4-0.6 5-1.8 9-2.8 9-0.8 0-2.2 4-3 9-0.6 5-2 9-2.8 9-1 0-2.2 3.6-3 8s-2 8-3 8c-0.8 0-2.6 4.6-4 10-1.4 5.6-3.2 10-4 10-1 0-2.2 2.8-3 6-0.8 3.4-2 6-3 6s-2.2 2.8-3 6c-0.8 3.4-2 6-3 6-0.8 0-4.4 4.4-7.8 9.8-6.8 10.6-16.4 21-25 27.2-3.2 2.2-6.8 5-8.2 6.4s-4.8 3-7.8 3.8c-2.8 0.6-5.2 2-5.2 2.8 0 1-3 2.4-6.4 3-3.6 0.8-7 2.2-7.6 3-3.6 5.6-123.6 8.2-156 3.6z" />
<glyph unicode="&#xe944;" glyph-name="quick_search" d="M381 747.6c-11-2.2-20.4-4.8-21-5.6s-7.2-3.4-15-6c-7.6-2.6-15-5.8-16.4-7.2s-5.8-3.6-9.6-5c-3.8-1.4-7-3.2-7-4.2 0-0.8-3-3-6.4-4.8-3.6-1.8-7-4-7.6-4.6-0.6-0.8-3.8-3.4-7.4-5.8-12-8.4-15-11.2-37-35-3.2-3.4-5.6-6.6-5.6-7.2s-2.8-4.4-6-8.2c-3.2-3.8-6-8-6-9.4s-1.2-3.2-2.6-4c-2.6-1.6-19.4-35-19.4-38.6 0-1.2-1.4-5-3.2-8.2-14.2-27.4-14.2-127.4-0.2-155.2 1.6-3 4.4-10.4 6.2-16 2-5.8 4.2-10.6 5-10.6s3-4.4 5-9.8c1.8-5.4 4.8-10.4 6.4-11s2.8-2.2 2.8-3.6c0-1.4 2.8-5.8 6-9.6s6-7.6 6-8.4c0-2.2 34.4-36.4 42-41.6 3.8-2.8 8-5.6 9-6.6 5.6-4.6 24.6-15.6 28.6-16.6 2.4-0.8 4.4-2 4.4-2.8 0-1 6-3.6 13.6-6.2 7.4-2.4 14.4-5 15.4-6 1.2-0.8 10.6-3 21-4.8s20.6-4.2 22.4-5.2c5-2.6 61.6-2.4 61.6 0.2 0 1.2 2.2 2 4.8 2 6.6 0 35.8 6 38.2 8 1.2 0.8 8 3.4 15.6 5.8 7.4 2.6 13.4 5.2 13.4 6.2 0 0.8 2 2 4.6 2.8 4 1 23.4 12.4 28.6 17 1.6 1.2 26.4-22.4 79-75.2 42.2-42.2 80.2-78.6 84.2-80.8 10.8-5.6 31.4-5.2 40.4 0.6 11.6 7.6 15.2 15 15.2 30.8 0 9.8-1.2 15.8-3.8 20.8-2 3.8-38.4 41.6-80.8 84s-76.4 77.4-75.4 78c4 2.6 23.8 41.2 28 55 1.4 4.4 3.2 9 4.2 10.2s3.2 11.6 5 23c1.8 11.4 4 22.4 5 24.2 2.4 4.6 2.4 42.6 0 47.2-1 1.8-3.2 13.4-5.2 25.4-1.8 12.2-4 22.4-4.8 23s-3.4 7.6-6 15.6c-2.4 7.8-5.2 14.4-5.8 14.4-0.8 0-3.2 4.6-5.4 10-2.2 5.6-4.4 10-5 10-0.8 0-2.8 3.2-4.6 7s-4.2 7-5.4 7c-1 0-2 1-2 2.2 0 8.2-49 54.8-65.2 62.2-2.6 1.2-4.8 2.8-4.8 3.8 0 0.8-3.8 2.8-8.4 4.8-4.8 1.8-9 4-9.6 4.8s-6.8 3.6-14 6.2c-7.2 2.6-13.8 5.4-15 6.2-1 0.8-11.4 3.2-22.8 5.6-28.6 5.8-78.4 5.8-107.2-0.2zM466.6 691.8c8-1.2 14.8-2.8 15.4-3.6s7.2-3 14.6-5c7.4-2 14.6-4.8 16-6s6.2-4 11-6c4.6-2.2 8.4-4.6 8.4-5.4s1.8-2.2 4.2-2.8c2.4-0.8 12.4-9.4 22.4-19.4 16.8-16.6 20.6-21.2 24.6-29.6 0.8-1.6 2.2-3.4 3-4 3.2-2.4 15.6-29.8 17.8-40 1.4-6 3.4-12 4.2-13.2 3.6-4.4 5.6-40.4 3.6-60.4-1.2-10.6-2.8-20.2-3.6-21.4-1-1-2.4-5.2-3.2-9-2-9.6-7.2-24.8-8.8-26-0.8-0.6-3-4.6-5-9-2.2-4.4-4.4-8.4-5-9s-4-5-7.2-10c-7.8-11.8-35.6-39-43-42.4-3.4-1.4-6-3.2-6-3.8 0-2.6-27-15.2-38-18-6-1.4-11.4-3.2-12-4-1.6-2.2-30.4-5.8-45-5.8-15.2 0-43.6 3.8-45 5.8-0.6 1-5.8 2.8-11.6 4.2-9.8 2.2-36 14.6-38.4 18-0.6 0.8-3.2 2.6-6 4-6 3.2-11 7.4-25.2 21.2-17.4 17.2-36 47.8-41.2 67.8-1.4 5.6-3.2 10.4-3.8 11-2.4 1.8-5.8 29.2-5.8 46s3.4 44.2 5.8 46c0.6 0.6 2.4 5.6 3.8 11 2.2 9 15 36.6 18.2 39 0.6 0.6 3.8 4.8 6.8 9.6 5.8 8.8 24.6 28.6 33.4 35 2.8 1.8 7.8 5.6 11 8 8.8 6.8 34.8 19 44 20.6 4.4 0.8 8.6 2.2 9.2 3.2 3.2 4.8 52.6 7 76.4 3.4z" />
<glyph unicode="&#xe945;" glyph-name="reseller" d="M772 618v-68h22.6c12.2 0 23.8 1 25.4 2 2.6 1.6 3 11.2 3.6 62.6 0.4 37.8-0.2 62.8-1.4 66l-2.2 5.4h-48v-68zM570.2 655.8c-8-2.4-7.4-2-33.6-27.2-11.6-11.4-21.8-20.6-22.8-20.6s-1.8-2.4-1.6-5.4c0-3.2 0.6-4.4 1.2-3 0.6 1.8 13.2 2.4 52.8 2.4 28.4 0 51.8-0.4 51.8-0.8 0-0.6-10-11-22.4-23.2l-22.4-22.4v-9.6c0-10 4.4-18 10.2-18 1.4 0 2.6-0.8 2.6-2 0-3.4 11.4-2.2 18.4 1.8 3.6 2 17 14.2 29.8 27l23.4 23.2h102.4v80l-91.4-0.2c-52.2 0-94.4-1-98.4-2zM310 587.8c-3.8-0.8-6-1.4-5-1.6 1.2-0.2-0.4-1.6-3.4-3.4-9.4-5-9.8-11-9.2-98l0.6-80.2 13.6-13.6 178.6-0.6c157.2-0.4 178.8-0.2 181.4 2.6 1.8 1.6 4 3 5.2 3 1 0 2.6 1.8 3.2 4s2.2 4 3.2 4c1 0 1.8 32.6 1.8 82v82h-8.6c-8.6 0-9.6-0.8-33.8-24.4-13.8-13.6-28-26.2-31.4-28-6.8-3.8-22.2-5-22.2-1.8 0 1-1.8 2.6-4.2 3.2-4.8 1.6-11.8 8-11.8 11 0 1.2-1 2-2.2 2-1 0-1.6 0.8-0.8 1.8 0.6 1 0.2 2.4-1 3.2-2.4 1.6-2.6 21-0.2 21 1 0 2.4 2.4 3.2 5.4 0.6 3 5.4 9.2 10.2 14 5 4.8 8.8 9.6 8.4 10.6-0.6 2.2-263.8 3.8-275.6 1.8zM187.2 360.8c-2.8-2.6-3.2-11.4-3.2-65.6 0-45.8 0.6-63 2.4-64.8 1.6-1.6 10.4-2.4 26-2.4h23.6v136h-22.8c-18.2 0-23.6-0.6-26-3.2zM248 296v-46.2l120.6 0.6c111.8 0.6 121 0.8 124.2 4.2 2 1.8 4.4 3.4 5.6 3.4 1 0 9.4 7.2 18.2 16.2 16 15.8 16.4 16.4 16.4 25.6 0 10.6-2.6 14.4-13.2 18.6-10 4-17 0.8-32-14.4l-12.6-13-56-0.6c-33.8-0.4-56.6 0.2-57.6 1.2-1.2 1.2-1.4 3.8-0.6 6.2 1.2 3.8 2.8 4.2 17.2 4.2 18.4 0 27 3.4 29 11.2 1.8 6.6-0.4 21.6-3.2 22.4-1 0.4-3.4 2-4.8 3.6-2.4 2.4-16 2.8-77 2.8h-74.2v-46z" />
<glyph unicode="&#xe946;" glyph-name="reseller_dashboard" d="M481 819c-47.6-10.4-76.2-36.4-86-77.2-3.4-15.2-3.8-45.4-0.8-63.2 2-10.8 1.8-13.6-1.2-19.8-7.4-15.8 0.4-52.4 12-56.8 3.2-1.2 4.8-4 5.6-9.4 1.8-10.8 12-30.4 21.4-41.2 7.8-8.8 8-9.2 8-24.8 0-14.8-0.4-16.2-5.4-21-6.4-6-18.4-12.2-43.6-22.6-37-15-59.4-31.6-72.4-53.4-6.6-10.6-14.6-37.2-14.6-47.8 0-3.6 2.4-8.4 5.8-12.2l5.8-6.6h386.8l6 6.8c5.8 6.4 6 7.4 4.8 18.4-5 44-30.6 72-86.2 94.8-25.2 10.4-37.2 16.6-43.4 22.6-5.2 4.8-5.6 6.4-5.6 20.8 0 14.2 0.4 16.2 5.2 21.2 9.4 9.8 20.2 28 24 40.4 2.4 8 4.8 12.4 7.4 13.2 5.4 1.6 13.2 19.8 14.6 34.2 1.2 11.6-1.6 26.6-5 26.6-1 0-0.4 5.2 1.2 11.6 1.4 6.2 2.8 21.8 3 34.4 0 19.8-0.6 25-5 37.6-6.2 18.2-17.8 33.6-31.8 43-11 7.2-32 15.4-39.6 15.4-2.6 0-5.6 2.6-8.2 7-2.4 4-5.8 8-7.8 9-5.2 2.8-40.8 2.2-55-1zM544.8 769c22.6-3.4 31.6-9.2 40.2-25.8 5.2-10.6 6-14.2 6.6-33.2 0.6-15-0.2-25-2.4-33.8-4.2-16.4-4-24 0.6-29 3.4-3.6 3.8-5.6 2.2-12.2-1-4.4-2.8-8.2-3.8-8.6-6.2-2-10.6-8.4-13-18.6-3.2-14.4-11-27.4-23.4-40l-9.8-9.8v-28.2c0-32.4 1.6-37.4 16.6-51.2 10-9.4 21.8-15.6 54.6-29.4 33.2-14 47-23.8 55-39.6 2-4 3.8-8 3.8-8.6s-73.4-1-163-1c-89.6 0-163 0.4-163 1 0 3.4 7.4 15 13.8 21.6 8.6 9 24.4 18.2 49 28.2 27.2 11.2 40.8 18.6 50.6 27.8 15 13.8 16.6 18.8 16.6 51.4v28.2l-10.2 10.4c-12 12.2-19.2 25.4-21.8 40-1.8 9.6-7.4 17.6-14 19.8-1.2 0.4-2.6 3.8-3.2 7.8-1 5.8-0.2 8.8 3.4 13.6 4.4 6 4.4 6.8 2 17.8-1.4 6.2-3 20.8-3.6 32.4-2.4 44.6 11.2 67.8 45.6 78.2 7.4 2.2 19.6 4.8 27.2 5.6l13.6 1.4 6-6.8c5.4-6.2 7.6-7 23.8-9.4zM278.2 295.2l-36.4-36.8-7.4 3c-15.2 6.2-36.4 0.2-50.8-14.8-9.8-10.2-13.6-19.8-13.6-35 0.2-38.6 39.8-64 72.2-46.2 11.2 6 16.6 12.4 25.6 30.4 7.4 15 7.4 16 2.2 26.4l-4.2 8 10.6 11.6c5.8 6.4 26.6 28.8 46.2 49.8 19.4 20.8 35.4 38.6 35.4 39.2s-9.8 1.2-21.6 1.2h-21.6l-36.6-36.8zM232.6 222.4c5.6-4.8 4.6-17.2-1.8-22.2-3-2.4-7.4-4.2-9.8-4.2-7.4 0-15 7.4-15 14.8 0 14.8 15.2 21.4 26.6 11.6zM490 253.8l0.2-78.2-9-5.6c-32.4-20.6-32.2-64 0.4-87 7.4-5 10.8-6 23.6-6.6 19.6-1 29.6 2.6 41.4 15.4 14.8 15.8 18.6 35.6 10.4 55.4-3.6 8.6-15.8 21.8-23 24.8l-6 2.4v157.6h-38v-78.2zM520 138c2.4-2.4 4-6.6 4-11s-1.6-8.6-4-11c-2.4-2.4-6.6-4-11-4-9.2 0-15 5.8-15 15 0 13.2 16.6 20.4 26 11zM660 330.8c0-1 48.2-53.4 85.6-93l6.8-7.4-4.2-8c-2.4-4.6-4.2-9.2-4.2-10.4s3-8.6 6.8-16.6c11.6-24.4 26-35.4 46.6-35.4 29 0.2 50.6 22 50.6 51 0 15.8-3.6 25.4-13.6 35.6-14.2 14.8-35.6 21-50.6 14.8l-7.2-3-73.6 73.6h-21.4c-12 0-21.6-0.6-21.6-1.2zM809 221.4c4.8-7 3.8-16.4-2.2-21.2-3-2.4-7.4-4.2-9.8-4.2s-6.8 1.8-9.8 4.2c-6 4.8-7 14.2-2.2 21.2 5.2 7.2 19 7.2 24 0z" />
</font>
</defs>
</svg>
